<?xml version="1.0" encoding="UTF-8"?>
<svg version="1.1" xmlns="http://www.w3.org/2000/svg" width="600" height="113">
<path d="M0 0 C1.39025391 0.01353516 1.39025391 0.01353516 2.80859375 0.02734375 C5.08100077 0.05077063 7.3528618 0.08357252 9.625 0.125 C9.62910889 0.67736328 9.63321777 1.22972656 9.63745117 1.79882812 C9.80193555 14.5049172 11.15905163 25.20189173 15.625 37.125 C16.29846549 39.12272087 16.96751456 41.12196297 17.625 43.125 C13.86091396 45.47226714 10.00484078 47.40952261 6 49.3125 C-13.21188072 58.73648095 -26.58265674 73.50088398 -34.0859375 93.421875 C-34.51132812 94.31390625 -34.93671875 95.2059375 -35.375 96.125 C-36.86 96.62 -36.86 96.62 -38.375 97.125 C-49.8202867 85.62161539 -55.32160533 72.28794824 -55.75 56.0625 C-55.32537712 40.69115172 -49.48917965 26.3855473 -38.7578125 15.30859375 C-32.01924708 9.13341659 -25.00523564 5.06206407 -16.375 2.125 C-15.50101563 1.76277344 -14.62703125 1.40054687 -13.7265625 1.02734375 C-9.11215294 -0.21499728 -4.75326813 -0.08814905 0 0 Z " fill="#3E3E3E" transform="translate(55.375,-0.125)"/>
<path d="M0 0 C1.19223265 1.6227611 2.37260123 3.25826 3.44140625 4.96484375 C10.37439028 14.01768756 22.74129047 18.76270693 33 23 C32.37597999 27.44403436 30.6522333 31.11274586 28.625 35.0625 C28.32078125 35.67416016 28.0165625 36.28582031 27.703125 36.91601562 C26.05967686 40.16428385 24.43308163 43.27467672 22 46 C21.34 46 20.68 46 20 46 C19.77570313 46.5775 19.55140625 47.155 19.3203125 47.75 C14.57166112 55.84237632 2.79324263 60.89132424 -5.875 63.75 C-21.36984812 67.67220078 -37.19278403 65.19814137 -50.91796875 57.3046875 C-53 56 -53 56 -54 55 C-54 40.98906919 -44.6502433 29.2500428 -36 19 C-35.44957031 18.33484375 -34.89914063 17.6696875 -34.33203125 16.984375 C-27.04733029 8.96933128 -11.20612356 -3.73537452 0 0 Z " fill="#3E3E3E" transform="translate(78,48)"/>
<path d="M0 0 C8 0 8 0 9.87231445 1.26733398 C11.03651965 3.05611171 12.091569 4.81097862 13.04296875 6.72265625 C13.39423828 7.42583984 13.74550781 8.12902344 14.10742188 8.85351562 C14.46384766 9.58248047 14.82027344 10.31144531 15.1875 11.0625 C15.55552734 11.79533203 15.92355469 12.52816406 16.30273438 13.28320312 C19 18.73278061 19 18.73278061 19 21 C19.66 21 20.32 21 21 21 C21.12375 20.00226563 21.12375 20.00226563 21.25 18.984375 C22.24134139 15.03966238 24.04572329 11.79639726 26 8.25 C26.55300781 7.22326172 26.55300781 7.22326172 27.1171875 6.17578125 C29.83698593 1.16301407 29.83698593 1.16301407 31 0 C33.97 0 36.94 0 40 0 C40 11.88 40 23.76 40 36 C37.03 36 34.06 36 31 36 C30.67 30.72 30.34 25.44 30 20 C27.69 24.29 25.38 28.58 23 33 C21.02 33 19.04 33 17 33 C13.04 26.07 13.04 26.07 9 19 C8.67 24.61 8.34 30.22 8 36 C5.36 36 2.72 36 0 36 C0 24.12 0 12.24 0 0 Z " fill="#414141" transform="translate(417,58)"/>
<path d="M0 0 C13.43723101 2.16729532 23.94155348 10.44866576 32.375 20.9375 C35.87249595 25.88566188 39 31.86142484 39 38 C34.7728653 38.31353523 30.5441628 38.56832253 26.3125 38.8125 C25.11431641 38.90208984 23.91613281 38.99167969 22.68164062 39.08398438 C13.7904059 39.55455112 13.7904059 39.55455112 9.83203125 36.77734375 C9.22746094 35.86082031 8.62289062 34.94429687 8 34 C7.51273438 33.29359375 7.02546875 32.5871875 6.5234375 31.859375 C1.37939878 22.41114062 -0.93983958 13.85895538 -1 3 C-0.67 2.01 -0.34 1.02 0 0 Z " fill="#404040" transform="translate(71,2)"/>
<path d="M0 0 C7 0 7 0 8.8984375 1.328125 C9.38570312 1.96234375 9.87296875 2.5965625 10.375 3.25 C11.22384766 4.32507812 11.22384766 4.32507812 12.08984375 5.421875 C13.03537109 6.69804688 13.03537109 6.69804688 14 8 C14.81276755 9.06849606 15.62662819 10.13616126 16.44140625 11.203125 C18.65925116 14.1136628 20.82499129 17.05537282 23 20 C23.33 13.4 23.66 6.8 24 0 C26.64 0 29.28 0 32 0 C32 11.88 32 23.76 32 36 C24 36 24 36 21.42578125 33.83984375 C20.72839844 32.88207031 20.03101563 31.92429687 19.3125 30.9375 C18.60738281 29.99777344 17.90226562 29.05804688 17.17578125 28.08984375 C16.45777344 27.07019531 15.73976562 26.05054687 15 25 C13.35 22.69 11.7 20.38 10 18 C9.67 23.94 9.34 29.88 9 36 C6.03 36 3.06 36 0 36 C0 24.12 0 12.24 0 0 Z " fill="#414141" transform="translate(216,58)"/>
<path d="M0 0 C4.41854291 3.11306432 8.02390999 6.75922996 9.75 11.9375 C10.32060449 18.21414941 10.04610875 23.40854339 6.75 28.9375 C2.76323663 33.19389954 -0.49917019 35.57697662 -6.36328125 36.140625 C-11.68691728 36.25409504 -15.5415769 35.69148332 -20.25 32.9375 C-25.04362423 28.26290481 -27.39886027 24.96386204 -27.5 18.1875 C-27.44186439 13.32154934 -27.20086646 9.97035082 -24.25 5.9375 C-17.08482595 -0.91614475 -9.57869572 -3.13149668 0 0 Z M-16.25 9.9375 C-18.17122969 14.29286687 -18.84487169 18.36742421 -17.125 22.875 C-15.50381767 25.87563354 -15.50381767 25.87563354 -13.5 27.4375 C-10.1172084 28.18923147 -7.59783056 27.77445764 -4.25 26.9375 C-0.75734336 24.63969958 -0.30541185 23.16653565 0.6875 19.0625 C1.00836526 14.9676481 0.11230491 12.35876917 -2.25 8.9375 C-6.91330095 5.51774597 -12.0334914 6.17683017 -16.25 9.9375 Z " fill="#414141" transform="translate(198.25,59.0625)"/>
<path d="M0 0 C19.79310345 0 19.79310345 0 24.9375 4.8125 C26.32559486 7.67034236 26.87242021 9.81050521 27 13 C25.63422102 16.3168918 23.98832013 19.01751981 22 22 C22.5053125 22.84304687 23.010625 23.68609375 23.53125 24.5546875 C24.1809375 25.65039062 24.830625 26.74609375 25.5 27.875 C26.1496875 28.96554688 26.799375 30.05609375 27.46875 31.1796875 C29 34 29 34 29 36 C25.37 36 21.74 36 18 36 C17.60167969 35.21753906 17.20335937 34.43507812 16.79296875 33.62890625 C16.26316406 32.61699219 15.73335938 31.60507813 15.1875 30.5625 C14.40439453 29.04849609 14.40439453 29.04849609 13.60546875 27.50390625 C12.18581516 24.71308782 12.18581516 24.71308782 9 24 C9 27.96 9 31.92 9 36 C6.03 36 3.06 36 0 36 C0 24.12 0 12.24 0 0 Z M9 8 C9 10.97 9 13.94 9 17 C13.47883696 16.55296014 13.47883696 16.55296014 17 14 C16.71016731 10.69316534 16.71016731 10.69316534 15 8 C13.00041636 7.95919217 10.99954746 7.95745644 9 8 Z " fill="#424242" transform="translate(482,58)"/>
<path d="M0 0 C19.30769231 0 19.30769231 0 25 4.625 C26.58525002 8.38996879 26.67833238 11.98712844 26 16 C24 19.0625 24 19.0625 22 21 C23.43060331 25.16175509 25.56513456 28.58544906 27.9765625 32.23046875 C29 34 29 34 29 36 C25.37 36 21.74 36 18 36 C17.60167969 35.21753906 17.20335937 34.43507812 16.79296875 33.62890625 C16.26316406 32.61699219 15.73335938 31.60507813 15.1875 30.5625 C14.40439453 29.04849609 14.40439453 29.04849609 13.60546875 27.50390625 C12.18581516 24.71308782 12.18581516 24.71308782 9 24 C9 27.96 9 31.92 9 36 C6.03 36 3.06 36 0 36 C0 24.12 0 12.24 0 0 Z M9 8 C9 10.97 9 13.94 9 17 C13.47883696 16.55296014 13.47883696 16.55296014 17 14 C16.71016731 10.69316534 16.71016731 10.69316534 15 8 C13.00041636 7.95919217 10.99954746 7.95745644 9 8 Z " fill="#424242" transform="translate(381,58)"/>
<path d="M0 0 C2.97 0 5.94 0 9 0 C9.33 4.62 9.66 9.24 10 14 C10.66 14 11.32 14 12 14 C12.20625 13.34 12.4125 12.68 12.625 12 C14.62814249 7.62950729 17.57847894 2.21076053 22 0 C23.54023996 -0.06950541 25.08334988 -0.08452357 26.625 -0.0625 C27.85089844 -0.04896484 27.85089844 -0.04896484 29.1015625 -0.03515625 C30.04128906 -0.01775391 30.04128906 -0.01775391 31 0 C29.39516194 4.66861981 27.02509806 9.09258167 24 13 C23.34 13 22.68 13 22 13 C20.98366863 15.09210747 20.98366863 15.09210747 21 18 C22.49223396 20.95758774 24.45639664 23.54043928 26.4375 26.1875 C27.48164782 27.61573142 28.52220476 29.04659724 29.55859375 30.48046875 C30.02579834 31.10848389 30.49300293 31.73649902 30.97436523 32.38354492 C32 34 32 34 32 36 C28.07477662 36.85841334 24.89210198 37.10201086 21 36 C18.09848477 32.84411717 16.02142136 29.6261386 13.875 25.94140625 C12.26823 22.73941417 12.26823 22.73941417 9 22 C9 26.62 9 31.24 9 36 C6.03 36 3.06 36 0 36 C0 24.12 0 12.24 0 0 Z " fill="#424242" transform="translate(568,58)"/>
<path d="M0 0 C-0.48148148 4.57407407 -0.48148148 4.57407407 -2.75 6.4375 C-5.77541336 7.19385334 -7.16670114 6.21427094 -10 5 C-13.04182893 4.74994614 -13.04182893 4.74994614 -16 5 C-16.7425 5.04125 -17.485 5.0825 -18.25 5.125 C-20.29166667 5.92708333 -20.29166667 5.92708333 -21.3125 8.625 C-22.25528997 13.25324165 -21.75207489 16.95865386 -20.125 21.375 C-19.0125 23.32916667 -19.0125 23.32916667 -16 24 C-13.66700175 24.03954234 -11.33291811 24.04401732 -9 24 C-8.67 22.68 -8.34 21.36 -8 20 C-9.65 20 -11.3 20 -13 20 C-13 17.69 -13 15.38 -13 13 C-8.71 13 -4.42 13 0 13 C0 18.61 0 24.22 0 30 C-7.29057836 33.18134328 -13.5235618 34.31492785 -21.25 31.875 C-26.23741757 29.76875991 -28.61042565 26.38212746 -31.3125 21.75 C-32.68170784 16.27316864 -32.72169811 11.01315788 -30.8125 5.6875 C-23.03815885 -5.83997136 -11.41661362 -6.76540066 0 0 Z " fill="#434343" transform="translate(288,62)"/>
<path d="M0 0 C7.59 0 15.18 0 23 0 C23 2.64 23 5.28 23 8 C18.38 8 13.76 8 9 8 C9 10.31 9 12.62 9 15 C12.63 15 16.26 15 20 15 C20 17.31 20 19.62 20 22 C16.37 22 12.74 22 9 22 C9 24.31 9 26.62 9 29 C13.62 29 18.24 29 23 29 C23 31.31 23 33.62 23 36 C15.41 36 7.82 36 0 36 C0 24.12 0 12.24 0 0 Z " fill="#424242" transform="translate(349,58)"/>
<path d="M0 0 C1.65018367 0.70770072 3.26026194 1.50765038 4.859375 2.32421875 C4.109375 7.07421875 4.109375 7.07421875 1.859375 9.32421875 C-0.7421875 9.30078125 -0.7421875 9.30078125 -3.765625 8.94921875 C-4.76851562 8.83835937 -5.77140625 8.7275 -6.8046875 8.61328125 C-7.96097656 8.47019531 -7.96097656 8.47019531 -9.140625 8.32421875 C-9.140625 9.31421875 -9.140625 10.30421875 -9.140625 11.32421875 C-8.46515625 11.5665625 -7.7896875 11.80890625 -7.09375 12.05859375 C2.80649786 15.77834006 2.80649786 15.77834006 4.859375 19.32421875 C5.63430323 24.17988603 5.60589983 27.99706349 3.171875 32.32421875 C-0.99542284 35.92836823 -4.54397872 36.72876998 -10.078125 36.58203125 C-13.54973242 36.14808032 -16.0575254 34.98909253 -19.140625 33.32421875 C-19.800625 32.33421875 -20.460625 31.34421875 -21.140625 30.32421875 C-19.820625 28.67421875 -18.500625 27.02421875 -17.140625 25.32421875 C-16.645625 25.46859375 -16.150625 25.61296875 -15.640625 25.76171875 C-12.16309578 26.54416282 -8.68107377 26.91116639 -5.140625 27.32421875 C-5.140625 26.00421875 -5.140625 24.68421875 -5.140625 23.32421875 C-5.89988281 23.081875 -6.65914062 22.83953125 -7.44140625 22.58984375 C-8.93220703 22.08710937 -8.93220703 22.08710937 -10.453125 21.57421875 C-11.43925781 21.249375 -12.42539062 20.92453125 -13.44140625 20.58984375 C-16.43098714 19.1880721 -17.56401294 18.19890806 -19.140625 15.32421875 C-20.02910288 10.84981213 -19.72685822 7.30825309 -17.390625 3.38671875 C-12.34195974 -1.2412244 -6.52151507 -2.05879947 0 0 Z " fill="#434343" transform="translate(555.140625,58.67578125)"/>
<path d="M0 0 C9.57 0 19.14 0 29 0 C29 2.64 29 5.28 29 8 C25.7 8 22.4 8 19 8 C19 17.24 19 26.48 19 36 C16.03 36 13.06 36 10 36 C10 26.76 10 17.52 10 8 C6.7 8 3.4 8 0 8 C0 5.36 0 2.72 0 0 Z " fill="#444444" transform="translate(314,58)"/>
<path d="M0 0 C3.3 0 6.6 0 10 0 C10 9.57 10 19.14 10 29 C14.29 29 18.58 29 23 29 C23 31.31 23 33.62 23 36 C15.41 36 7.82 36 0 36 C0 24.12 0 12.24 0 0 Z " fill="#414141" transform="translate(144,58)"/>
<path d="M0 0 C6 0 6 0 8.3359375 2.1875 C9.00882812 3.115625 9.68171875 4.04375 10.375 5 C11.06335938 5.928125 11.75171875 6.85625 12.4609375 7.8125 C12.96882813 8.534375 13.47671875 9.25625 14 10 C14.33 6.7 14.66 3.4 15 0 C16.98 0 18.96 0 21 0 C21 7.92 21 15.84 21 24 C19.35 24 17.7 24 16 24 C15.67 23.01 15.34 22.02 15 21 C14.34 21 13.68 21 13 21 C10.81411281 18.46301176 8.95646243 15.72203468 7 13 C6.67 16.63 6.34 20.26 6 24 C4.02 24 2.04 24 0 24 C0 16.08 0 8.16 0 0 Z " fill="#424242" transform="translate(384,23)"/>
<path d="M0 0 C5 0 5 0 7.203125 1.8984375 C7.87859375 2.71570313 8.5540625 3.53296875 9.25 4.375 C9.93578125 5.18710937 10.6215625 5.99921875 11.328125 6.8359375 C13 9 13 9 14 11 C14.33 7.37 14.66 3.74 15 0 C16.98 0 18.96 0 21 0 C21 7.92 21 15.84 21 24 C16 24 16 24 13.54296875 21.59375 C12.76566406 20.5728125 11.98835937 19.551875 11.1875 18.5 C10.39730469 17.4790625 9.60710937 16.458125 8.79296875 15.40625 C8.20128906 14.6121875 7.60960937 13.818125 7 13 C6.67 16.63 6.34 20.26 6 24 C4.02 24 2.04 24 0 24 C0 16.08 0 8.16 0 0 Z " fill="#494949" transform="translate(208,23)"/>
<path d="M0 0 C2.99055238 2.30699755 4.00091843 4.35322484 4.5234375 8.08984375 C4.58880442 12.33215711 4.6144368 14.95560834 2.4375 18.6875 C-1.55434412 22.23580589 -4.28882382 23.15127139 -9.78125 23.0078125 C-13.16679158 22.47393864 -15.25430448 20.88023902 -17.8125 18.6875 C-20.40315257 14.46995298 -20.34662954 10.50328089 -19.8125 5.6875 C-18.37926684 1.80933967 -17.1667111 0.89185256 -13.5625 -1.1875 C-8.36246974 -2.74750908 -4.88933113 -2.28168786 0 0 Z M-11.5625 5.8125 C-14.13991376 8.49740029 -14.13991376 8.49740029 -13.8125 11.875 C-13.02512767 14.97773828 -13.02512767 14.97773828 -9.8125 16.6875 C-6.72916667 16.6875 -6.72916667 16.6875 -3.8125 15.6875 C-1.8932277 13.35099459 -1.78012146 12.13000678 -2 9.125 C-2.87791639 6.49125082 -3.58168405 5.31771166 -5.8125 3.6875 C-8.99608411 3.38177625 -8.99608411 3.38177625 -11.5625 5.8125 Z " fill="#414141" transform="translate(367.8125,24.3125)"/>
<path d="M0 0 C2.0625 -0.04125 4.125 -0.0825 6.25 -0.125 C7.99023438 -0.15980469 7.99023438 -0.15980469 9.765625 -0.1953125 C12.85110761 -0.00899109 14.52469515 0.18793473 17 2 C18.05398001 5.91478289 18.31648749 8.20045267 16.8125 12 C15.71793895 14.84271838 15.71793895 14.84271838 16.75390625 16.859375 C17.78755392 18.60252995 18.89095671 20.30381615 20 22 C20 22.66 20 23.32 20 24 C16.8125 24.4375 16.8125 24.4375 13 24 C10.88841619 21.91454966 9.43260857 19.58793807 8 17 C7.34 19.31 6.68 21.62 6 24 C4.02 24 2.04 24 0 24 C0 16.08 0 8.16 0 0 Z M7 5 C7 6.65 7 8.3 7 10 C8.32 9.67 9.64 9.34 11 9 C10.67 7.68 10.34 6.36 10 5 C9.01 5 8.02 5 7 5 Z " fill="#444444" transform="translate(302,23)"/>
<path d="M0 0 C2.97 0 5.94 0 9 0 C9 11.88 9 23.76 9 36 C6.03 36 3.06 36 0 36 C0 24.12 0 12.24 0 0 Z " fill="#404040" transform="translate(518,58)"/>
<path d="M0 0 C5.28 0 10.56 0 16 0 C16 1.65 16 3.3 16 5 C13.03 5 10.06 5 7 5 C7 6.32 7 7.64 7 9 C9.31 9 11.62 9 14 9 C14 10.65 14 12.3 14 14 C11.69 14 9.38 14 7 14 C7 15.32 7 16.64 7 18 C9.97 18 12.94 18 16 18 C16 19.98 16 21.96 16 24 C13.52076199 24.02685095 11.0418116 24.04676547 8.5625 24.0625 C7.85544922 24.07087891 7.14839844 24.07925781 6.41992188 24.08789062 C4.61306441 24.09653588 2.80612397 24.05220011 1 24 C0 23 0 23 -0.11352539 20.77514648 C-0.10828857 19.81680908 -0.10305176 18.85847168 -0.09765625 17.87109375 C-0.09443359 16.83662109 -0.09121094 15.80214844 -0.08789062 14.73632812 C-0.07951172 13.64771484 -0.07113281 12.55910156 -0.0625 11.4375 C-0.05798828 10.34501953 -0.05347656 9.25253906 -0.04882812 8.12695312 C-0.0369984 5.41794568 -0.01906231 2.7089662 0 0 Z " fill="#3E3E3E" transform="translate(177,23)"/>
<path d="M0 0 C0.33 0.99 0.66 1.98 1 3 C-0.0625 4.5625 -0.0625 4.5625 -2 6 C-4.33333333 5.66666667 -6.66666667 5.33333333 -9 5 C-11.16666667 5.83333333 -11.16666667 5.83333333 -12 8 C-11.9493338 12.34509216 -11.9493338 12.34509216 -10 16 C-6.93518979 16.1613058 -4.94450722 15.98150241 -2 15 C-1.01 15.99 -0.02 16.98 1 18 C0 21 0 21 -1.5625 22.1875 C-6.17659692 23.72553231 -10.33403103 23.62936605 -14.8125 21.9375 C-17.87629652 19.22385165 -18.84375749 16.91837739 -20 13 C-20.19614836 8.86519256 -19.42531075 5.6987248 -17.25 2.125 C-11.8074885 -3.01514975 -6.82195632 -2.27398544 0 0 Z " fill="#414141" transform="translate(162,24)"/>
<path d="M0 0 C4.95 0 9.9 0 15 0 C15 1.65 15 3.3 15 5 C12.03 5 9.06 5 6 5 C6 6.32 6 7.64 6 9 C8.31 9 10.62 9 13 9 C13 10.65 13 12.3 13 14 C10.69 14 8.38 14 6 14 C6 15.32 6 16.64 6 18 C8.97 18 11.94 18 15 18 C15 19.98 15 21.96 15 24 C10.05 24 5.1 24 0 24 C0 16.08 0 8.16 0 0 Z " fill="#434343" transform="translate(273,23)"/>
<path d="M0 0 C7.26 0 14.52 0 22 0 C23.99390001 3.98780002 24.22686963 5.47147572 24.125 9.75 C24.10695313 10.73484375 24.08890625 11.7196875 24.0703125 12.734375 C24.04710938 13.48203125 24.02390625 14.2296875 24 15 C14.22865284 14.15031764 6.46266607 10.25363078 -1 4 C-0.67 2.68 -0.34 1.36 0 0 Z " fill="#404040" transform="translate(89,43)"/>
<path d="M0 0 C6.27 0 12.54 0 19 0 C19 1.65 19 3.3 19 5 C17.02 5 15.04 5 13 5 C13 11.27 13 17.54 13 24 C11.02 24 9.04 24 7 24 C7 17.73 7 11.46 7 5 C4.69 5 2.38 5 0 5 C0 3.35 0 1.7 0 0 Z " fill="#444444" transform="translate(241,23)"/>
<path d="M0 0 C5.28 0 10.56 0 16 0 C16 2.31 16 4.62 16 7 C15 8 15 8 11.62109375 8.09765625 C10.22652923 8.09098369 8.83198257 8.07902532 7.4375 8.0625 C6.37112305 8.05573242 6.37112305 8.05573242 5.28320312 8.04882812 C3.52209987 8.03700864 1.76103964 8.01907263 0 8 C0 5.36 0 2.72 0 0 Z " fill="#414141" transform="translate(298,75)"/>
<path d="M0 0 C1.21236328 0.02707031 1.21236328 0.02707031 2.44921875 0.0546875 C3.37154297 0.08949219 3.37154297 0.08949219 4.3125 0.125 C4.3125 0.455 4.3125 0.785 4.3125 1.125 C2.518125 1.2178125 2.518125 1.2178125 0.6875 1.3125 C-4.09480383 1.87412287 -6.29257231 3.81494551 -9.6875 7.125 C-7.82206758 1.67219755 -5.82891046 -0.16895393 0 0 Z " fill="#646464" transform="translate(594.6875,57.875)"/>
</svg>
