<?xml version="1.0" encoding="UTF-8"?>
<svg version="1.1" xmlns="http://www.w3.org/2000/svg" width="500" height="283">
<path d="M0 0 C165 0 330 0 500 0 C500 93.39 500 186.78 500 283 C335 283 170 283 0 283 C0 189.61 0 96.22 0 0 Z " fill="#FDFDFD" transform="translate(0,0)"/>
<path d="M0 0 C0 1.32 0 2.64 0 4 C-0.69448242 4.01981934 -1.38896484 4.03963867 -2.10449219 4.06005859 C-5.31997525 4.15664048 -8.53492277 4.26576748 -11.75 4.375 C-13.38775391 4.42140625 -13.38775391 4.42140625 -15.05859375 4.46875 C-27.90840757 4.29831125 -27.90840757 4.29831125 -39.27636719 8.88818359 C-41.18958801 10.97730369 -41.18958801 10.97730369 -42 14 C-41.05125 13.690625 -40.1025 13.38125 -39.125 13.0625 C-30.02629361 10.50573653 -20.40286214 10.78536382 -11.02539062 10.75976562 C-8.89933354 10.75011051 -6.77426723 10.71900836 -4.6484375 10.6875 C5.87417136 10.60659195 18.68436027 10.59546193 28 16 C28 16.99 28 17.98 28 19 C22.99509374 18.49102648 18.07715477 17.84420201 13.12109375 16.98046875 C5.64782299 15.82530272 -1.69849446 15.65712011 -9.25 15.6875 C-9.92543854 15.68799347 -10.60087708 15.68848694 -11.29678345 15.68899536 C-21.81081471 15.71247147 -31.77751999 16.4476861 -42 19 C-43.20076172 19.29583984 -43.20076172 19.29583984 -44.42578125 19.59765625 C-45.20501953 19.79681641 -45.20501953 19.79681641 -46 20 C-46 21.98 -46 23.96 -46 26 C-44.35064453 25.58427734 -44.35064453 25.58427734 -42.66796875 25.16015625 C-34.4534745 23.12843428 -26.48951846 21.27456399 -18 21 C-17.36497559 20.96890137 -16.72995117 20.93780273 -16.07568359 20.90576172 C21.42733406 19.19207618 52.64043143 34.13535648 82.9375 54.75 C84.52326453 55.81897839 86.10945131 56.88733066 87.69604492 57.95507812 C98.08474112 64.96032284 108.39926587 72.06832963 118.62011719 79.31640625 C133.91024688 90.13305934 149.36787445 100.68440895 165 111 C164.67 112.32 164.34 113.64 164 115 C158.78933518 113.31880354 154.62895869 110.16630423 150.1875 107.0625 C149.34437256 106.47911865 148.50124512 105.8957373 147.63256836 105.29467773 C145.9051468 104.09932088 144.17898694 102.90213864 142.45410156 101.703125 C139.63388966 99.74592263 136.80232919 97.80580172 133.96899414 95.86767578 C127.36750134 91.34832881 120.8033523 86.77630136 114.25 82.1875 C113.40816162 81.598479 112.56632324 81.00945801 111.69897461 80.40258789 C107.47474307 77.44429959 103.258113 74.47606742 99.0546875 71.48828125 C76.09269897 55.2065579 53.00277656 39.58520071 26 31 C24.52466797 30.47792969 24.52466797 30.47792969 23.01953125 29.9453125 C4.89853635 24.27224553 -15.04640756 24.39760982 -33.46875 28.34375 C-36.74659637 28.95290729 -39.67755848 29.12305339 -43 29 C-42.01 30.98 -41.02 32.96 -40 35 C-37.56199034 34.69112547 -35.12464633 34.37805338 -32.6875 34.0625 C-31.65206055 33.93198242 -31.65206055 33.93198242 -30.59570312 33.79882812 C-27.59857712 33.40789865 -24.87549881 32.9584996 -22 32 C33.15391785 27.43561753 75.14681162 59.00450174 117.40820312 89.64306641 C118.13974609 90.17335449 118.87128906 90.70364258 119.625 91.25 C120.35267578 91.77770996 121.08035156 92.30541992 121.83007812 92.84912109 C128.19249448 97.44830966 134.61814159 101.95401911 141.0625 106.4375 C142.01398926 107.09975586 142.96547852 107.76201172 143.94580078 108.44433594 C144.86216309 109.08016602 145.77852539 109.71599609 146.72265625 110.37109375 C147.60324707 110.9832373 148.48383789 111.59538086 149.39111328 112.22607422 C151.13601703 113.41253039 152.9006059 114.57052032 154.68310547 115.69970703 C155.5082666 116.22290527 156.33342773 116.74610352 157.18359375 117.28515625 C157.9202124 117.73898682 158.65683105 118.19281738 159.41577148 118.66040039 C159.93856689 119.10246826 160.4613623 119.54453613 161 120 C161 120.99 161 121.98 161 123 C160.195625 123.28875 159.39125 123.5775 158.5625 123.875 C155.8673532 124.73262568 155.8673532 124.73262568 155 127 C155.99 127.33 156.98 127.66 158 128 C158 137.57 158 147.14 158 157 C159.32 157 160.64 157 162 157 C162 158.98 162 160.96 162 163 C158.7 163 155.4 163 152 163 C152 153.43 152 143.86 152 134 C151.01 134.33 150.02 134.66 149 135 C149.33 136.65 149.66 138.3 150 140 C146.72510964 139.38493066 144.67091405 138.25318554 142.015625 136.26171875 C141.2537085 135.69509521 140.49179199 135.12847168 139.70678711 134.54467773 C138.89604736 133.93180908 138.08530762 133.31894043 137.25 132.6875 C135.98071655 131.74015991 135.98071655 131.74015991 134.68579102 130.77368164 C132.11887874 128.85565783 129.55857031 126.92913278 127 125 C124.31298557 122.97852064 121.62533491 120.95788826 118.9375 118.9375 C118.29449951 118.45369873 117.65149902 117.96989746 116.98901367 117.47143555 C109.80507816 112.07924547 102.52592315 106.82138919 95.22167969 101.59375 C93.08260297 100.05925628 90.95108573 98.51474323 88.8203125 96.96875 C73.42818655 85.86727696 57.57438061 75.31453133 40 68 C38.88008667 67.51829346 38.88008667 67.51829346 37.73754883 67.02685547 C6.48890953 53.93916111 -28.03625318 56.87123586 -59 69 C-61.95585836 70.30425548 -64.86295081 71.64479607 -67.73828125 73.1171875 C-70.30194213 74.11785651 -72.27162889 74.16418516 -75 74 C-75 73.01 -75 72.02 -75 71 C-44.30902885 55.89394753 -10.842804 48.92979289 23 57 C24.00804687 57.22816406 25.01609375 57.45632812 26.0546875 57.69140625 C46.86111508 62.84880685 65.620275 74.8664708 83 87 C83.70334473 87.48726563 84.40668945 87.97453125 85.13134766 88.4765625 C95.75220267 95.84101168 106.16118855 103.48836098 116.54443359 111.18261719 C121.52407291 114.86808498 126.51703591 118.53551421 131.50732422 122.20654297 C136.35776414 125.77858889 141.18712706 129.37749519 146 133 C146.72979892 130.2689454 146.72979892 130.2689454 146 127 C143.4203717 124.45162535 140.3832784 122.65543216 137.3125 120.75 C135.5488077 119.60329013 133.78709183 118.45353481 132.02734375 117.30078125 C130.72966064 116.45894287 130.72966064 116.45894287 129.40576172 115.60009766 C126.26952484 113.51415322 123.33297299 111.26996533 120.375 108.9375 C113.48904736 103.54205103 106.35109075 98.54039598 99.18066406 93.53222656 C97.04559433 92.0320365 94.92334901 90.51544062 92.8046875 88.9921875 C57.71379032 63.81346277 20.6318975 42.4160187 -24.15625 48.42333984 C-30.86988852 49.57617605 -37.43352597 51.20206725 -44 53 C-45.10843262 53.28834717 -45.10843262 53.28834717 -46.23925781 53.58251953 C-55.60783699 56.04226615 -64.10982406 59.71099198 -72.70800781 64.14160156 C-73.85027832 64.7173291 -73.85027832 64.7173291 -75.015625 65.3046875 C-75.68883789 65.65515137 -76.36205078 66.00561523 -77.05566406 66.36669922 C-79.41286476 67.13447654 -80.69019302 66.79935038 -83 66 C-82 63 -82 63 -80.19677734 61.82080078 C-79.4177002 61.44938965 -78.63862305 61.07797852 -77.8359375 60.6953125 C-76.96831787 60.27902588 -76.10069824 59.86273926 -75.20678711 59.43383789 C-74.27229736 59.00192139 -73.33780762 58.57000488 -72.375 58.125 C-71.42310791 57.67954834 -70.47121582 57.23409668 -69.49047852 56.77514648 C-61.80911697 53.24318132 -54.13993929 50.32026307 -46 48 C-44.9790625 47.70609375 -43.958125 47.4121875 -42.90625 47.109375 C-39.949976 46.31584882 -36.99526475 45.62975343 -34 45 C-33.02933594 44.79375 -32.05867188 44.5875 -31.05859375 44.375 C-13.73816499 41.31470339 4.96411658 41.61340183 22 46 C23.17175781 46.2784375 24.34351563 46.556875 25.55078125 46.84375 C34.57137461 49.17164506 42.72426737 52.82854535 51 57 C52.16917969 57.57363281 53.33835938 58.14726562 54.54296875 58.73828125 C80.3323873 71.70554207 103.52731203 90.58697021 126.8203125 107.5 C127.61445557 108.07564697 128.40859863 108.65129395 129.22680664 109.24438477 C130.72708102 110.33191511 132.22635463 111.42082815 133.72436523 112.51147461 C138.73146759 116.13956406 143.83344768 119.60315592 149 123 C149.66 121.35 150.32 119.7 151 118 C150.31164062 117.76925781 149.62328125 117.53851563 148.9140625 117.30078125 C145.35921475 115.71396584 142.45032533 113.53290518 139.375 111.1875 C133.54035898 106.81717084 127.60342327 102.64243439 121.5625 98.5625 C115.44175832 94.41919081 109.4466135 90.16064886 103.5625 85.6875 C98.16643391 81.5872563 92.7051371 77.67804508 87.0234375 73.9765625 C84.88319831 72.57738804 82.76844571 71.16169567 80.6640625 69.7109375 C65.68970917 59.43632263 50.19020549 50.02564061 33 44 C32.01386719 43.62488281 31.02773437 43.24976563 30.01171875 42.86328125 C8.622852 35.07761798 -14.76891214 35.28929681 -37 39 C-37 39.99 -37 40.98 -37 42 C-37.87785156 42.00386719 -37.87785156 42.00386719 -38.7734375 42.0078125 C-52.22930079 42.61393247 -64.99226656 48.0086662 -76.69799805 54.37133789 C-80.47741077 56.39903549 -83.72872715 57.54797879 -88 58 C-87.70068359 56.125 -87.70068359 56.125 -87 54 C-84.54063923 52.46813539 -82.23350357 51.21785304 -79.625 50 C-78.53940796 49.47563354 -78.53940796 49.47563354 -77.43188477 48.94067383 C-72.49997937 46.59696588 -67.5147878 44.55951467 -62.33984375 42.80859375 C-60.16458863 42.05687787 -58.09658327 41.19585981 -56 40.25 C-53 39 -53 39 -50 39 C-50.64477069 37.37457807 -51.29085143 35.74967576 -51.9375 34.125 C-52.47697266 32.76761719 -52.47697266 32.76761719 -53.02734375 31.3828125 C-53.94901262 29.03862333 -53.94901262 29.03862333 -55 27 C-56.32 26.67 -57.64 26.34 -59 26 C-59 30.95 -59 35.9 -59 41 C-61.97 41 -64.94 41 -68 41 C-68.33 40.34 -68.66 39.68 -69 39 C-69.33 39.45375 -69.66 39.9075 -70 40.375 C-72.41341187 42.33589714 -74.61799388 42.62629871 -77.609375 43.2578125 C-81.56602286 44.48618357 -84.96274989 46.70727743 -88.484375 48.85546875 C-91 50 -91 50 -93.328125 49.67578125 C-94.15570313 49.34126953 -94.15570313 49.34126953 -95 49 C-93.75453595 45.26360784 -92.36595047 44.81243487 -89 43 C-92.96 42.505 -92.96 42.505 -97 42 C-97 29.46 -97 16.92 -97 4 C-94.03 4 -91.06 4 -88 4 C-88 13.9 -88 23.8 -88 34 C-81.4 34 -74.8 34 -68 34 C-68 24.1 -68 14.2 -68 4 C-65.03 4 -62.06 4 -59 4 C-59 8.95 -59 13.9 -59 19 C-57.35 18.67 -55.7 18.34 -54 18 C-53.7525 17.175 -53.505 16.35 -53.25 15.5 C-50.23246288 7.05089606 -50.23246288 7.05089606 -48 4 C-45.052759 2.6161349 -43.17807899 2.00664123 -40.0625 1.5 C-39.26287842 1.34821289 -38.46325684 1.19642578 -37.6394043 1.04003906 C-25.2581221 -0.9922101 -12.49577214 -0.33601208 0 0 Z " fill="#8F8F8F" transform="translate(183,86)"/>
<path d="M0 0 C0 1.32 0 2.64 0 4 C-0.69448242 4.01981934 -1.38896484 4.03963867 -2.10449219 4.06005859 C-5.31997525 4.15664048 -8.53492277 4.26576748 -11.75 4.375 C-13.38775391 4.42140625 -13.38775391 4.42140625 -15.05859375 4.46875 C-27.90840757 4.29831125 -27.90840757 4.29831125 -39.27636719 8.88818359 C-41.18958801 10.97730369 -41.18958801 10.97730369 -42 14 C-41.05125 13.690625 -40.1025 13.38125 -39.125 13.0625 C-30.02629361 10.50573653 -20.40286214 10.78536382 -11.02539062 10.75976562 C-8.89933354 10.75011051 -6.77426723 10.71900836 -4.6484375 10.6875 C5.87417136 10.60659195 18.68436027 10.59546193 28 16 C28 16.99 28 17.98 28 19 C22.99509374 18.49102648 18.07715477 17.84420201 13.12109375 16.98046875 C5.64782299 15.82530272 -1.69849446 15.65712011 -9.25 15.6875 C-9.92543854 15.68799347 -10.60087708 15.68848694 -11.29678345 15.68899536 C-21.81081471 15.71247147 -31.77751999 16.4476861 -42 19 C-43.20076172 19.29583984 -43.20076172 19.29583984 -44.42578125 19.59765625 C-45.20501953 19.79681641 -45.20501953 19.79681641 -46 20 C-46 21.98 -46 23.96 -46 26 C-44.35064453 25.58427734 -44.35064453 25.58427734 -42.66796875 25.16015625 C-34.4534745 23.12843428 -26.48951846 21.27456399 -18 21 C-17.36497559 20.96890137 -16.72995117 20.93780273 -16.07568359 20.90576172 C21.42733406 19.19207618 52.64043143 34.13535648 82.9375 54.75 C84.52326453 55.81897839 86.10945131 56.88733066 87.69604492 57.95507812 C98.08474112 64.96032284 108.39926587 72.06832963 118.62011719 79.31640625 C133.91024688 90.13305934 149.36787445 100.68440895 165 111 C164.67 112.32 164.34 113.64 164 115 C158.78933518 113.31880354 154.62895869 110.16630423 150.1875 107.0625 C149.34437256 106.47911865 148.50124512 105.8957373 147.63256836 105.29467773 C145.9051468 104.09932088 144.17898694 102.90213864 142.45410156 101.703125 C139.63388966 99.74592263 136.80232919 97.80580172 133.96899414 95.86767578 C127.36750134 91.34832881 120.8033523 86.77630136 114.25 82.1875 C113.40816162 81.598479 112.56632324 81.00945801 111.69897461 80.40258789 C107.47474307 77.44429959 103.258113 74.47606742 99.0546875 71.48828125 C76.09269897 55.2065579 53.00277656 39.58520071 26 31 C24.52466797 30.47792969 24.52466797 30.47792969 23.01953125 29.9453125 C4.89853635 24.27224553 -15.04640756 24.39760982 -33.46875 28.34375 C-36.74659637 28.95290729 -39.67755848 29.12305339 -43 29 C-42.45859375 30.04800781 -42.45859375 30.04800781 -41.90625 31.1171875 C-41.4421875 32.02726562 -40.978125 32.93734375 -40.5 33.875 C-40.0359375 34.77992187 -39.571875 35.68484375 -39.09375 36.6171875 C-38 39 -38 39 -38 41 C-41.3 41 -44.6 41 -48 41 C-48.68835938 39.50146484 -48.68835938 39.50146484 -49.390625 37.97265625 C-50.00966765 36.66891492 -50.62950064 35.36554866 -51.25 34.0625 C-51.55035156 33.40314453 -51.85070312 32.74378906 -52.16015625 32.06445312 C-53.16272868 29.90589641 -53.16272868 29.90589641 -55 27 C-56.32 26.67 -57.64 26.34 -59 26 C-59 30.95 -59 35.9 -59 41 C-61.97 41 -64.94 41 -68 41 C-68.33 40.34 -68.66 39.68 -69 39 C-69.33 39.45375 -69.66 39.9075 -70 40.375 C-72.41341187 42.33589714 -74.61799388 42.62629871 -77.609375 43.2578125 C-81.56602286 44.48618357 -84.96274989 46.70727743 -88.484375 48.85546875 C-91 50 -91 50 -93.328125 49.67578125 C-94.15570313 49.34126953 -94.15570313 49.34126953 -95 49 C-93.75453595 45.26360784 -92.36595047 44.81243487 -89 43 C-92.96 42.505 -92.96 42.505 -97 42 C-97 29.46 -97 16.92 -97 4 C-94.03 4 -91.06 4 -88 4 C-88 13.9 -88 23.8 -88 34 C-81.4 34 -74.8 34 -68 34 C-68 24.1 -68 14.2 -68 4 C-65.03 4 -62.06 4 -59 4 C-59 8.95 -59 13.9 -59 19 C-57.35 18.67 -55.7 18.34 -54 18 C-53.7525 17.175 -53.505 16.35 -53.25 15.5 C-50.23246288 7.05089606 -50.23246288 7.05089606 -48 4 C-45.052759 2.6161349 -43.17807899 2.00664123 -40.0625 1.5 C-39.26287842 1.34821289 -38.46325684 1.19642578 -37.6394043 1.04003906 C-25.2581221 -0.9922101 -12.49577214 -0.33601208 0 0 Z " fill="#3D3D3D" transform="translate(183,86)"/>
<path d="M0 0 C14.85 0 29.7 0 45 0 C45 15.18 45 30.36 45 46 C30.15 46 15.3 46 0 46 C0 30.82 0 15.64 0 0 Z " fill="#F6F6F6" transform="translate(437,203)"/>
<path d="M0 0 C1.98 0 3.96 0 6 0 C6 2.97 6 5.94 6 9 C12.6 9 19.2 9 26 9 C26 17.58 26 26.16 26 35 C19.07 35 12.14 35 5 35 C5 38.96 5 42.92 5 47 C3.35 47 1.7 47 0 47 C0 43.04 0 39.08 0 35 C-6.93 35 -13.86 35 -21 35 C-21 26.42 -21 17.84 -21 9 C-14.07 9 -7.14 9 0 9 C0 6.03 0 3.06 0 0 Z " fill="#3E3E3E" transform="translate(404,202)"/>
<path d="M0 0 C0.66 0 1.32 0 2 0 C2.66 1.65 3.32 3.3 4 5 C2 7 2 7 -0.6015625 7.1953125 C-1.59929687 7.17210937 -2.59703125 7.14890625 -3.625 7.125 C-5.12933594 7.09792969 -5.12933594 7.09792969 -6.6640625 7.0703125 C-7.43492187 7.04710937 -8.20578125 7.02390625 -9 7 C-9 9.31 -9 11.62 -9 14 C-4.38 14 0.24 14 5 14 C5 15.98 5 17.96 5 20 C0.71 20 -3.58 20 -8 20 C-8 21.98 -8 23.96 -8 26 C-4.37 26 -0.74 26 3 26 C3 32.93 3 39.86 3 47 C-6.57 47 -16.14 47 -26 47 C-26 40.07 -26 33.14 -26 26 C-22.04 26 -18.08 26 -14 26 C-14 24.02 -14 22.04 -14 20 C-18.62 20 -23.24 20 -28 20 C-28 18.02 -28 16.04 -28 14 C-23.71 14 -19.42 14 -15 14 C-15 12.02 -15 10.04 -15 8 C-18.63 8 -22.26 8 -26 8 C-26 6.02 -26 4.04 -26 2 C-24.8718689 1.96241577 -24.8718689 1.96241577 -23.72094727 1.92407227 C-20.33460804 1.80849486 -16.94857387 1.68559655 -13.5625 1.5625 C-11.78649414 1.50352539 -11.78649414 1.50352539 -9.97460938 1.44335938 C-8.84990234 1.40146484 -7.72519531 1.35957031 -6.56640625 1.31640625 C-5.52427979 1.27974854 -4.48215332 1.24309082 -3.40844727 1.20532227 C-1.0500174 1.26484659 -1.0500174 1.26484659 0 0 Z " fill="#444444" transform="translate(373,202)"/>
<path d="M0 0 C1.00804687 0.22816406 2.01609375 0.45632812 3.0546875 0.69140625 C23.86111508 5.84880685 42.620275 17.8664708 60 30 C60.70334473 30.48726562 61.40668945 30.97453125 62.13134766 31.4765625 C72.75823039 38.84519127 83.17291155 46.4971302 93.56201172 54.19580078 C96.86613956 56.6409745 100.17756796 59.07615679 103.48950195 61.51074219 C105.8762439 63.26741473 108.25855892 65.02996359 110.640625 66.79296875 C113.36092799 68.80344639 116.0967774 70.78638311 118.859375 72.73828125 C119.42922119 73.14715576 119.99906738 73.55603027 120.58618164 73.97729492 C122.06568229 75.03769019 123.55395487 76.08581779 125.04296875 77.1328125 C126.01169922 78.05707031 126.01169922 78.05707031 127 79 C127 80.32 127 81.64 127 83 C123.72510964 82.38493066 121.67091405 81.25318554 119.015625 79.26171875 C118.2537085 78.69509521 117.49179199 78.12847168 116.70678711 77.54467773 C115.89604736 76.93180908 115.08530762 76.31894043 114.25 75.6875 C112.98071655 74.74015991 112.98071655 74.74015991 111.68579102 73.77368164 C109.11887874 71.85565783 106.55857031 69.92913278 104 68 C101.31298557 65.97852064 98.62533491 63.95788826 95.9375 61.9375 C95.29449951 61.45369873 94.65149902 60.96989746 93.98901367 60.47143555 C86.80507816 55.07924547 79.52592315 49.82138919 72.22167969 44.59375 C70.08260297 43.05925628 67.95108573 41.51474323 65.8203125 39.96875 C50.42818655 28.86727696 34.57438061 18.31453133 17 11 C15.88008667 10.51829346 15.88008667 10.51829346 14.73754883 10.02685547 C-16.51109047 -3.06083889 -51.03625318 -0.12876414 -82 12 C-84.95585836 13.30425548 -87.86295081 14.64479607 -90.73828125 16.1171875 C-93.30194213 17.11785651 -95.27162889 17.16418516 -98 17 C-98 16.01 -98 15.02 -98 14 C-67.30902885 -1.10605247 -33.842804 -8.07020711 0 0 Z " fill="#8F8F8F" transform="translate(206,143)"/>
<path d="M0 0 C3.63 0 7.26 0 11 0 C11.38671875 1.18335938 11.7734375 2.36671875 12.171875 3.5859375 C15.44630441 13.67048089 15.44630441 13.67048089 19.25 23.5625 C21.0789694 27.95658001 22.08503501 32.34364351 23 37 C23.20238281 37.72445312 23.40476563 38.44890625 23.61328125 39.1953125 C23.74089844 39.79085937 23.86851562 40.38640625 24 41 C22.32301141 42.67698859 20.22811441 42.18828726 17.92578125 42.24609375 C16.87181152 42.27775635 15.8178418 42.30941895 14.73193359 42.34204102 C13.03931396 42.38929321 13.03931396 42.38929321 11.3125 42.4375 C3.04312389 42.7083873 -4.9790171 43.14691603 -13.1328125 44.59765625 C-16.44815156 45.06288775 -19.6565458 45.06253343 -23 45 C-22.67 43.68 -22.34 42.36 -22 41 C-10.32247943 38.43899894 1.05781494 37.37643844 13 37 C12.505 33.535 12.505 33.535 12 30 C11.01 30.495 11.01 30.495 10 31 C8.12620395 31.07033769 6.24998898 31.0843022 4.375 31.0625 C3.37210938 31.05347656 2.36921875 31.04445313 1.3359375 31.03515625 C0.56507813 31.02355469 -0.20578125 31.01195313 -1 31 C-1.33 32.65 -1.66 34.3 -2 36 C-4.97 36 -7.94 36 -11 36 C-9.44435164 28.0764504 -6.97360331 20.57495755 -4.375 12.9375 C-3.95476562 11.69033203 -3.53453125 10.44316406 -3.1015625 9.15820312 C-2.07181153 6.10405535 -1.03786449 3.05139815 0 0 Z " fill="#444444" transform="translate(160,37)"/>
<path d="M0 0 C6.36893601 4.92307999 12.84043558 9.7134055 19.2890625 14.53125 C18.9590625 15.52125 18.6290625 16.51125 18.2890625 17.53125 C15.10005503 16.92013772 13.07234666 15.87107214 10.48046875 13.93359375 C9.74425293 13.38751465 9.00803711 12.84143555 8.24951172 12.27880859 C7.45818848 11.68148926 6.66686523 11.08416992 5.8515625 10.46875 C5.01898926 9.84822754 4.18641602 9.22770508 3.32861328 8.58837891 C-2.93040417 3.91014515 -9.13166152 -0.84335107 -15.3359375 -5.59375 C-24.30351018 -12.45560012 -33.39574237 -19.08706936 -42.7109375 -25.46875 C-43.45472656 -25.97921875 -44.19851563 -26.4896875 -44.96484375 -27.015625 C-70.77776943 -44.66100905 -98.30885892 -59.0979971 -130.4609375 -59.03125 C-131.70447998 -59.02883301 -132.94802246 -59.02641602 -134.22924805 -59.02392578 C-151.80041266 -58.68321376 -168.64707081 -54.26398649 -184.83203125 -47.5703125 C-187.7109375 -46.46875 -187.7109375 -46.46875 -190.7109375 -46.46875 C-190.4765625 -48.3203125 -190.4765625 -48.3203125 -189.7109375 -50.46875 C-183.64316864 -54.84506117 -175.44344926 -56.58099907 -168.3359375 -58.65625 C-167.48741211 -58.90616699 -166.63888672 -59.15608398 -165.76464844 -59.41357422 C-100.69032018 -77.67334689 -48.5366615 -37.625319 0 0 Z " fill="#8F8F8F" transform="translate(307.7109375,214.46875)"/>
<path d="M0 0 C37.50083964 -1.71397958 68.7137328 13.23096397 99.00878906 33.84423828 C100.59455359 34.91321668 102.18074037 35.98156894 103.76733398 37.04931641 C114.15603018 44.05456112 124.47055493 51.16256791 134.69140625 58.41064453 C149.98153594 69.22729762 165.43916351 79.77864723 181.07128906 90.09423828 C180.74128906 91.41423828 180.41128906 92.73423828 180.07128906 94.09423828 C174.86062424 92.41304182 170.70024775 89.26054251 166.25878906 86.15673828 C165.41566162 85.57335693 164.57253418 84.98997559 163.70385742 84.38891602 C161.97643586 83.19355916 160.250276 81.99637692 158.52539062 80.79736328 C155.70517872 78.84016091 152.87361825 76.90004 150.0402832 74.96191406 C143.4387904 70.44256709 136.87464136 65.87053964 130.32128906 61.28173828 C129.47945068 60.69271729 128.6376123 60.10369629 127.77026367 59.49682617 C123.54603213 56.53853787 119.32940206 53.5703057 115.12597656 50.58251953 C92.16398803 34.30079618 69.07406562 18.67943899 42.07128906 10.09423828 C41.08773437 9.74619141 40.10417969 9.39814453 39.09082031 9.03955078 C17.05164033 2.13983337 -5.71189973 4.69417454 -27.92871094 9.09423828 C-28.25871094 7.77423828 -28.58871094 6.45423828 -28.92871094 5.09423828 C-19.21237989 2.47314521 -10.07491994 0.49226824 0 0 Z " fill="#8F8F8F" transform="translate(166.9287109375,106.90576171875)"/>
<path d="M0 0 C0.70850098 0.28520508 1.41700195 0.57041016 2.14697266 0.86425781 C29.48792153 12.04502573 53.69212782 32.07373592 76.75561523 50.14208984 C82.40851666 54.56665165 88.14384328 58.8465144 94 63 C93.67 64.32 93.34 65.64 93 67 C88.39702442 65.51156117 85.09562016 62.86480423 81.4375 59.8125 C72.97187749 52.90072782 64.26487725 46.33861762 55.48144531 39.83740234 C53.88220789 38.65323658 52.28503723 37.46627198 50.69042969 36.27587891 C33.83793721 23.70848143 16.41471809 12.21103133 -3 4 C-3.93328125 3.59394531 -4.8665625 3.18789062 -5.828125 2.76953125 C-26.27340602 -5.41485272 -50.57970469 -6.92420582 -72 -2 C-72.9590625 -1.79375 -73.918125 -1.5875 -74.90625 -1.375 C-81.95445264 0.25721535 -88.73519574 2.52506857 -95.5546875 4.9140625 C-98.71588419 5.91044876 -101.72187827 6.54888233 -105 7 C-104.8984375 5.18359375 -104.8984375 5.18359375 -104 3 C-73.53304572 -14.1650996 -31.49433603 -13.1413135 0 0 Z " fill="#8F8F8F" transform="translate(225,171)"/>
<path d="M0 0 C2.97 0 5.94 0 9 0 C9 12.21 9 24.42 9 37 C0 37 0 37 -1.98046875 35.41796875 C-2.37878906 34.68191406 -2.77710938 33.94585937 -3.1875 33.1875 C-3.64769531 32.37796875 -4.10789063 31.5684375 -4.58203125 30.734375 C-5.28392578 29.38085938 -5.28392578 29.38085938 -6 28 C-6.56074219 26.99453125 -7.12148437 25.9890625 -7.69921875 24.953125 C-9.16315707 22.31871851 -10.58522176 19.66113049 -12 17 C-12.33 23.6 -12.66 30.2 -13 37 C-15.97 37 -18.94 37 -22 37 C-22 25.12 -22 13.24 -22 1 C-12 1 -12 1 -9.85498047 2.65234375 C-9.24227295 3.78349609 -9.24227295 3.78349609 -8.6171875 4.9375 C-8.153125 5.74960937 -7.6890625 6.56171875 -7.2109375 7.3984375 C-6.77007812 8.25695313 -6.32921875 9.11546875 -5.875 10 C-5.39546875 10.85851563 -4.9159375 11.71703125 -4.421875 12.6015625 C-3.24727003 14.71585144 -2.11893514 16.85572886 -1 19 C-0.67 12.73 -0.34 6.46 0 0 Z " fill="#414141" transform="translate(135,36)"/>
<path d="M0 0 C14.85 0 29.7 0 45 0 C45 15.18 45 30.36 45 46 C30.15 46 15.3 46 0 46 C0 30.82 0 15.64 0 0 Z M6 5 C6 16.88 6 28.76 6 41 C17.22 41 28.44 41 40 41 C40 29.12 40 17.24 40 5 C28.78 5 17.56 5 6 5 Z " fill="#3E3E3E" transform="translate(437,203)"/>
<path d="M0 0 C0.65786499 0.00115814 1.31572998 0.00231628 1.99353027 0.00350952 C12.10729627 0.03868437 21.47836791 0.66525385 31.25 3.3125 C32.16910156 3.54066406 33.08820313 3.76882812 34.03515625 4.00390625 C40.42995498 5.73356588 46.29594438 8.44545156 52.25 11.3125 C53.37535156 11.82039062 54.50070313 12.32828125 55.66015625 12.8515625 C75.75499867 22.14472874 93.46491113 35.96976014 110.86523438 49.47900391 C114.55474708 52.31563786 118.30245634 55.07037623 122.0625 57.8125 C122.69744385 58.27567627 123.3323877 58.73885254 123.98657227 59.21606445 C125.40647642 60.24991265 126.8280195 61.28150953 128.25 62.3125 C127.92 63.6325 127.59 64.9525 127.25 66.3125 C122.61719668 64.8202862 119.30260412 62.13449142 115.625 59.0625 C76.2160553 26.90236356 36.68313095 1.5206482 -15.984375 5.5859375 C-27.91993288 6.94341511 -40.25546307 10.10536441 -50.98828125 15.61328125 C-52.75 16.3125 -52.75 16.3125 -56.75 16.3125 C-56.5625 14.46484375 -56.5625 14.46484375 -55.75 12.3125 C-49.62258488 8.5391837 -42.11829396 6.70083027 -35.25 4.625 C-34.58742187 4.42269775 -33.92484375 4.22039551 -33.2421875 4.01196289 C-22.2365135 0.82366375 -11.4267678 -0.04868948 0 0 Z " fill="#8F8F8F" transform="translate(177.75,172.6875)"/>
<path d="M0 0 C3.3 0 6.6 0 10 0 C10 12.54 10 25.08 10 38 C6.7 38 3.4 38 0 38 C0 33.05 0 28.1 0 23 C-4.29 23 -8.58 23 -13 23 C-13 27.62 -13 32.24 -13 37 C-15.97 37 -18.94 37 -22 37 C-22 25.12 -22 13.24 -22 1 C-19.03 1 -16.06 1 -13 1 C-13 5.62 -13 10.24 -13 15 C-8.71 15 -4.42 15 0 15 C0 10.05 0 5.1 0 0 Z " fill="#464646" transform="translate(77,36)"/>
<path d="M0 0 C1.02196472 0.00131424 1.02196472 0.00131424 2.0645752 0.00265503 C13.14692719 0.04953716 23.32311409 0.93024324 33.875 4.375 C34.62571777 4.61105957 35.37643555 4.84711914 36.14990234 5.09033203 C64.00155071 14.02105492 86.79946321 30.91625063 109.63476562 48.6875 C111.70395235 50.24615504 113.821256 51.67047411 115.984375 53.09375 C116.93828125 53.8465625 117.8921875 54.599375 118.875 55.375 C118.875 56.695 118.875 58.015 118.875 59.375 C114.37308027 58.47241612 111.37066314 55.9511261 107.8125 53.1875 C106.37154309 52.09055533 104.93011722 50.99422647 103.48828125 49.8984375 C102.35640381 49.0336377 102.35640381 49.0336377 101.20166016 48.15136719 C83.33216771 34.50830035 65.50987614 22.4400638 44.875 13.375 C43.73289062 12.85164062 42.59078125 12.32828125 41.4140625 11.7890625 C37.46202407 10.20999196 33.57977293 9.18210462 29.4375 8.25 C28.72529297 8.08113281 28.01308594 7.91226563 27.27929688 7.73828125 C7.0388747 3.06882872 -14.43168332 4.33910276 -34.37109375 9.69140625 C-37.2736757 10.41190532 -40.17048148 10.91811569 -43.125 11.375 C-43.125 10.055 -43.125 8.735 -43.125 7.375 C-40.71148209 6.57253592 -38.2947968 5.78313424 -35.875 5 C-35.21242187 4.77828125 -34.54984375 4.5565625 -33.8671875 4.328125 C-22.7205867 0.75280022 -11.65478234 -0.01651836 0 0 Z " fill="#8F8F8F" transform="translate(178.125,183.625)"/>
<path d="M0 0 C3.63 0 7.26 0 11 0 C11.4125 1.44375 11.825 2.8875 12.25 4.375 C13.32151621 7.95678189 14.51731678 11.41716259 15.9375 14.875 C22 29.66843629 22 29.66843629 22 36 C19.03 36 16.06 36 13 36 C12.67 33.69 12.34 31.38 12 29 C7.71 29 3.42 29 -1 29 C-1.33 31.31 -1.66 33.62 -2 36 C-4.97 36 -7.94 36 -11 36 C-10.37877971 29.29082089 -8.2371031 23.22561083 -6.0625 16.875 C-5.70220703 15.80378906 -5.34191406 14.73257813 -4.97070312 13.62890625 C-3.41545943 9.02905104 -1.80452957 4.51132393 0 0 Z " fill="#414141" transform="translate(59,91)"/>
<path d="M0 0 C1.87907267 0.9496028 3.697652 2.01725864 5.5 3.10546875 C4.81911019 6.02532056 3.91898766 8.45669179 2.5 11.10546875 C-2.25 9.23046875 -2.25 9.23046875 -4.5 8.10546875 C-8.7535161 7.62393863 -10.8220363 7.6583012 -14.4375 10.04296875 C-17.1616796 14.08796271 -17.30827647 17.34939983 -16.5 22.10546875 C-15.22000938 25.38581682 -14.56316435 26.06335918 -11.5 28.10546875 C-6.02161531 28.66972532 -6.02161531 28.66972532 -1.1875 26.60546875 C-0.630625 26.11046875 -0.07375 25.61546875 0.5 25.10546875 C1.49 25.10546875 2.48 25.10546875 3.5 25.10546875 C5.3125 27.35546875 5.3125 27.35546875 6.5 30.10546875 C6.125 32.23046875 6.125 32.23046875 4.5 34.10546875 C-1.43186302 37.71616798 -7.68541205 38.17633257 -14.5 37.10546875 C-19.54539838 35.06185783 -23.30861359 32.07641688 -26.0625 27.35546875 C-28.46628277 21.59962192 -28.34739063 15.80652638 -26.5 9.91796875 C-20.06436057 0.86785081 -11.07322397 -3.96213795 0 0 Z " fill="#424242" transform="translate(42.5,36.89453125)"/>
<path d="M0 0 C6.9021108 1.96089778 12.74914044 4.86052537 18.875 8.5625 C19.81190674 9.12259766 20.74881348 9.68269531 21.71411133 10.25976562 C36.3907719 19.1423442 50.53359195 28.87665773 64.67651367 38.57727051 C74.62130142 45.39662598 84.61951863 52.13158393 94.65649414 58.81445312 C97.2259396 60.52559921 99.79369226 62.23926506 102.36132812 63.953125 C104.02594283 65.0626483 105.69065277 66.17202874 107.35546875 67.28125 C108.10765182 67.78338013 108.8598349 68.28551025 109.6348114 68.80285645 C110.35369034 69.28105835 111.07256927 69.75926025 111.81323242 70.25195312 C112.50234711 70.71287354 113.19146179 71.17379395 113.90145874 71.64868164 C115.34829848 72.58034838 116.82222136 73.47081294 118.31558228 74.32592773 C119.04973358 74.7488208 119.78388489 75.17171387 120.5402832 75.60742188 C121.20477982 75.97347534 121.86927643 76.33952881 122.5539093 76.7166748 C123.03111923 77.14017212 123.50832916 77.56366943 124 78 C124 79.32 124 80.64 124 82 C119.70928187 81.43611041 117.01038629 79.94715393 113.44921875 77.52734375 C112.36987061 76.8003125 111.29052246 76.07328125 110.1784668 75.32421875 C109.01471617 74.52878484 107.8510629 73.73320848 106.6875 72.9375 C105.48207659 72.12158283 104.27609555 71.30648893 103.06958008 70.4921875 C100.5923796 68.81944095 98.11772921 67.14301312 95.64453125 65.46435547 C92.2351925 63.15418085 88.80840398 60.871924 85.375 58.59765625 C84.33126221 57.90615479 83.28752441 57.21465332 82.2121582 56.50219727 C80.27386042 55.21912518 78.33495103 53.93697627 76.39526367 52.65600586 C71.25114417 49.23779808 66.19130165 45.72523496 61.1796875 42.1171875 C54.21354869 37.10806354 47.11633465 32.32306342 39.9375 27.625 C39.3180249 27.21846191 38.6985498 26.81192383 38.06030273 26.39306641 C27.5768615 19.52585513 16.89338635 13.11501557 5.9140625 7.06640625 C3.57652239 5.76406247 1.28132686 4.39823259 -1 3 C-0.67 2.01 -0.34 1.02 0 0 Z " fill="#8F8F8F" transform="translate(226,108)"/>
<path d="M0 0 C9.24 0 18.48 0 28 0 C28 1.98 28 3.96 28 6 C24.37 6 20.74 6 17 6 C17 7.65 17 9.3 17 11 C19.97 11 22.94 11 26 11 C26 12.65 26 14.3 26 16 C23.03 16 20.06 16 17 16 C17 18.64 17 21.28 17 24 C18.32 24 19.64 24 21 24 C20.79375 23.38125 20.5875 22.7625 20.375 22.125 C20.25125 21.42375 20.1275 20.7225 20 20 C20.66 19.34 21.32 18.68 22 18 C24.125 18.375 24.125 18.375 26 19 C25.67 20.32 25.34 21.64 25 23 C26.32 23.33 27.64 23.66 29 24 C29 25.98 29 27.96 29 30 C19.1 30 9.2 30 -1 30 C-1 28.02 -1 26.04 -1 24 C2.96 24 6.92 24 11 24 C11 21.69 11 19.38 11 17 C7.7 17 4.4 17 1 17 C1 15.02 1 13.04 1 11 C4.3 11 7.6 11 11 11 C11 9.02 11 7.04 11 5 C7.37 5 3.74 5 0 5 C0 3.35 0 1.7 0 0 Z " fill="#434343" transform="translate(446,211)"/>
<path d="M0 0 C2.97 0 5.94 0 9 0 C9 9.9 9 19.8 9 30 C13.95 30 18.9 30 24 30 C24 32.31 24 34.62 24 37 C21.44113496 38.32002556 18.87832932 39.63113782 16.3125 40.9375 C15.59126953 41.31068359 14.87003906 41.68386719 14.12695312 42.06835938 C10.43494258 43.93965239 7.16306904 45.48269556 3 46 C3 44.68 3 43.36 3 42 C5.5 40.25 5.5 40.25 8 39 C4.04 38.505 4.04 38.505 0 38 C0 25.46 0 12.92 0 0 Z " fill="#3B3B3B" transform="translate(86,90)"/>
<path d="M0 0 C10.23 0 20.46 0 31 0 C31 2.31 31 4.62 31 7 C27.37 7 23.74 7 20 7 C20 16.9 20 26.8 20 37 C17.03 37 14.06 37 11 37 C11 27.1 11 17.2 11 7 C7.37 7 3.74 7 0 7 C0 4.69 0 2.38 0 0 Z " fill="#3E3E3E" transform="translate(18,91)"/>
<path d="M0 0 C3.06783936 0.6233084 5.30791068 1.63277143 7.94921875 3.30078125 C8.70533447 3.77668701 9.4614502 4.25259277 10.24047852 4.74291992 C11.04799561 5.26088135 11.8555127 5.77884277 12.6875 6.3125 C13.53691162 6.85302002 14.38632324 7.39354004 15.26147461 7.95043945 C21.33407257 11.84782909 27.23660023 15.9413358 33.09716797 20.14794922 C39.55497091 24.75265632 46.16877393 29.10696534 52.8125 33.4375 C53.91658203 34.15856934 55.02066406 34.87963867 56.15820312 35.62255859 C61.44203449 39.0641851 66.74121792 42.4771552 72.078125 45.8359375 C73.00778076 46.42576416 73.93743652 47.01559082 74.89526367 47.62329102 C76.63112099 48.72264084 78.37321318 49.81222716 80.12231445 50.89038086 C80.88761475 51.37643799 81.65291504 51.86249512 82.44140625 52.36328125 C83.10857666 52.77876221 83.77574707 53.19424316 84.46313477 53.62231445 C86.34276516 55.30726351 86.6283144 56.54269075 87 59 C81.68809244 58.52212579 77.87649955 55.6674996 73.5234375 52.8359375 C72.6929892 52.30326263 71.86254089 51.77058777 71.00692749 51.22177124 C61.11179885 44.84150564 51.36620209 38.23672304 41.625 31.625 C38.01380014 29.17853559 34.401511 26.73368269 30.7890625 24.2890625 C29.91034485 23.69401917 29.0316272 23.09897583 28.12628174 22.48590088 C18.45119183 15.94016045 8.7287899 9.46556157 -1 3 C-0.67 2.01 -0.34 1.02 0 0 Z " fill="#8E8E8E" transform="translate(257,115)"/>
<path d="M0 0 C3.96345997 1.27128471 7.76542331 2.70527321 11.5703125 4.390625 C24.86510048 10.20136247 37.97053899 15.29986029 52 19 C52.84288574 19.22913086 53.68577148 19.45826172 54.55419922 19.69433594 C65.31637618 22.6109041 75.89738372 24.87291623 87 26 C87.495 27.98 87.495 27.98 88 30 C57.39698482 29.91683963 25.98563374 17.69541172 -1 4 C-0.67 2.68 -0.34 1.36 0 0 Z " fill="#909090" transform="translate(327,54)"/>
<path d="M0 0 C2.97 0 5.94 0 9 0 C10 1 10 1 10.11352539 4.51000977 C10.11336626 6.07048422 10.10767142 7.63096393 10.09765625 9.19140625 C10.0962413 10.01124496 10.09482635 10.83108368 10.09336853 11.67576599 C10.08775289 14.30471382 10.07519779 16.93357773 10.0625 19.5625 C10.05748701 21.34049357 10.05292376 23.11848846 10.04882812 24.89648438 C10.03777839 29.26435545 10.02050331 33.63216348 10 38 C6.7 38 3.4 38 0 38 C0 25.46 0 12.92 0 0 Z " fill="#525252" transform="translate(95,36)"/>
<path d="M0 0 C3.47998016 0.57371101 6.21460702 1.44974831 9.31640625 3.1171875 C10.14865723 3.55393799 10.9809082 3.99068848 11.83837891 4.44067383 C13.18681885 5.15066528 13.18681885 5.15066528 14.5625 5.875 C36.31838066 17.01776255 59.28884048 25.17950043 83 31 C83 32.32 83 33.64 83 35 C54.76814923 31.41089184 22.74760746 18.83173831 -1 3 C-0.67 2.01 -0.34 1.02 0 0 Z " fill="#909090" transform="translate(316,61)"/>
<path d="M0 0 C4.46076297 1.54472024 8.16528477 3.94855929 12.0390625 6.5859375 C12.71327744 7.03915375 13.38749237 7.49237 14.08213806 7.95932007 C15.52121188 8.92700252 16.95897769 9.89663255 18.39553833 10.86804199 C22.1327741 13.39414838 25.88076964 15.90416991 29.62890625 18.4140625 C30.7292646 19.15136597 30.7292646 19.15136597 31.85185242 19.90356445 C37.37347937 23.59699902 42.93490548 27.21963814 48.5625 30.75 C49.28493896 31.20415283 50.00737793 31.65830566 50.75170898 32.1262207 C54.37975857 34.39516481 58.02955086 36.6245691 61.6953125 38.83203125 C62.45126709 39.2919043 63.20722168 39.75177734 63.98608398 40.22558594 C65.41197118 41.09152342 66.84349205 41.9482787 68.28149414 42.79394531 C69.90611332 43.78213091 71.46187147 44.88193968 73 46 C73 46.99 73 47.98 73 49 C68.71161181 48.4774049 65.75600304 47.56348771 62.11328125 45.25390625 C61.18845947 44.67286133 60.2636377 44.09181641 59.31079102 43.49316406 C58.32135498 42.85604492 57.33191895 42.21892578 56.3125 41.5625 C55.26956787 40.90088867 54.22663574 40.23927734 53.15209961 39.55761719 C43.32597833 33.28906617 33.63284358 26.8193248 23.95556641 20.32420349 C15.70017838 14.78342435 7.37271576 9.36137229 -1 4 C-0.67 2.68 -0.34 1.36 0 0 Z " fill="#8F8F8F" transform="translate(267,110)"/>
<path d="M0 0 C4.96773892 0.55791529 8.9752953 2.17476361 13.375 4.4375 C14.41829468 4.96875488 14.41829468 4.96875488 15.48266602 5.51074219 C32.38556366 14.28267467 47.9777614 25.49727462 63.0625 37.0625 C63.66465332 37.5155249 64.26680664 37.9685498 64.88720703 38.43530273 C66.31689154 39.5521511 67.66748111 40.76884547 69 42 C69 42.99 69 43.98 69 45 C65.12366022 44.45349409 62.83952236 43.45092318 59.76953125 41.04296875 C58.97587158 40.4308252 58.18221191 39.81868164 57.36450195 39.18798828 C56.52234131 38.52782715 55.68018066 37.86766602 54.8125 37.1875 C37.65099142 24.05284536 20.00590233 12.36610461 0 4 C0 2.68 0 1.36 0 0 Z " fill="#909090" transform="translate(220,202)"/>
<path d="M0 0 C3.82600693 0.60943717 6.86432591 1.74799967 10.32421875 3.4765625 C11.34402832 3.97921631 12.36383789 4.48187012 13.41455078 4.99975586 C15.03466064 5.80425171 15.03466064 5.80425171 16.6875 6.625 C35.13379556 15.62712244 54.09066309 22.908839 74 28 C73.67 29.32 73.34 30.64 73 32 C65.46199173 30.83137281 58.43152953 29.05923368 51.25 26.5 C50.26628418 26.15251709 49.28256836 25.80503418 48.26904297 25.44702148 C31.20405378 19.30010123 14.84788718 11.80674536 -1 3 C-0.67 2.01 -0.34 1.02 0 0 Z " fill="#919191" transform="translate(326,78)"/>
<path d="M0 0 C11.22 0 22.44 0 34 0 C34 11.88 34 23.76 34 36 C22.78 36 11.56 36 0 36 C0 35.67 0 35.34 0 35 C10.89 35 21.78 35 33 35 C32.505 31.04 32.505 31.04 32 27 C30.35 27 28.7 27 27 27 C27.33 25.35 27.66 23.7 28 22 C26.68 22.33 25.36 22.66 24 23 C24 24.32 24 25.64 24 27 C22.68 27 21.36 27 20 27 C20 24.36 20 21.72 20 19 C22.97 19 25.94 19 29 19 C29 17.35 29 15.7 29 14 C26.03 14 23.06 14 20 14 C20 12.35 20 10.7 20 9 C23.63 9 27.26 9 31 9 C31 6.69 31 4.38 31 2 C29.69796631 2.01571045 29.69796631 2.01571045 28.36962891 2.03173828 C25.15300472 2.06579716 21.93647233 2.09088767 18.71972656 2.10986328 C17.32679219 2.11992877 15.93387898 2.13358234 14.54101562 2.15087891 C12.5404564 2.1751022 10.53974385 2.18540814 8.5390625 2.1953125 C7.33459473 2.20578613 6.13012695 2.21625977 4.88916016 2.22705078 C2 2 2 2 0 0 Z " fill="#E7E7E7" transform="translate(443,208)"/>
<path d="M0 0 C3.15346026 0.65288754 5.65156218 1.759456 8.47265625 3.30078125 C9.35904785 3.77765381 10.24543945 4.25452637 11.15869141 4.74584961 C12.11694824 5.26284424 13.07520508 5.77983887 14.0625 6.3125 C22.94235729 11.02514978 31.93379188 15.36557583 41.125 19.4375 C42.21304932 19.92065674 43.30109863 20.40381348 44.42211914 20.90161133 C51.86424023 24.16287996 59.39412671 27.14294386 67 30 C67 31.32 67 32.64 67 34 C60.82077892 33.4125019 55.46339287 30.90205331 49.8125 28.5 C48.74821777 28.05076172 47.68393555 27.60152344 46.58740234 27.13867188 C30.53084649 20.30568596 15.14412191 12.66670776 0 4 C0 2.68 0 1.36 0 0 Z " fill="#8F8F8F" transform="translate(317,85)"/>
<path d="M0 0 C2.12605709 -0.00965512 4.2511234 -0.04075726 6.37695312 -0.07226562 C16.89956199 -0.15317367 29.7097509 -0.1643037 39.02539062 5.24023438 C39.02539062 6.23023437 39.02539062 7.22023438 39.02539062 8.24023438 C34.02048436 7.73126086 29.1025454 7.08443639 24.14648438 6.22070312 C16.67313009 5.06552418 9.32695125 4.8978198 1.77539062 4.92773438 C1.10028442 4.92789551 0.42517822 4.92805664 -0.27038574 4.92822266 C-10.83655895 4.94573185 -20.67124611 5.92611 -30.97460938 8.24023438 C-31.96460938 8.24023438 -32.95460937 8.24023438 -33.97460938 8.24023438 C-33.72070312 6.34570312 -33.72070312 6.34570312 -32.97460938 4.24023438 C-31.25976562 3.22851562 -31.25976562 3.22851562 -29.03710938 2.55273438 C-28.32683594 2.32199219 -27.6165625 2.09125 -26.88476562 1.85351562 C-18.0384365 -0.01074434 -9.00537813 0.02458247 0 0 Z " fill="#929292" transform="translate(171.974609375,96.759765625)"/>
<path d="M0 0 C3.5111392 1.33817517 6.77642359 2.88195174 10.0703125 4.6875 C11.0396875 5.21641846 12.0090625 5.74533691 13.0078125 6.2902832 C14.55082031 7.13659302 14.55082031 7.13659302 16.125 8 C18.29382013 9.18181707 20.46309647 10.36279728 22.6328125 11.54296875 C23.70950195 12.12868652 24.78619141 12.7144043 25.89550781 13.31787109 C38.46989932 20.13114237 51.17711345 26.66814706 64 33 C63.67 33.99 63.34 34.98 63 36 C56.397682 34.96602064 50.70174825 31.71102047 44.75 28.8125 C44.11449219 28.50508881 43.47898437 28.19767761 42.82421875 27.88095093 C27.83434811 20.61624267 13.26735164 12.60078428 -1 4 C-0.67 2.68 -0.34 1.36 0 0 Z " fill="#8F8F8F" transform="translate(306,90)"/>
<path d="M0 0 C4.2381951 0.59403274 7.97411194 1.59446012 11.97265625 3.109375 C13.10985107 3.5321875 14.2470459 3.955 15.41870117 4.390625 C16.62115479 4.83921875 17.8236084 5.2878125 19.0625 5.75 C30.12848786 9.81832212 41.1873736 13.11711832 52.73974609 15.52734375 C56.5014098 16.31396947 60.2497257 17.16102744 64 18 C63.67 19.32 63.34 20.64 63 22 C55.41185356 21.50370668 48.32904947 20.055728 41 18.0625 C39.89019775 17.76110107 38.78039551 17.45970215 37.63696289 17.14916992 C29.09406778 14.74784915 20.7441767 11.93097452 12.4375 8.8125 C11.30763672 8.39685791 10.17777344 7.98121582 9.01367188 7.55297852 C7.97662109 7.15006592 6.93957031 6.74715332 5.87109375 6.33203125 C4.95255615 5.97858643 4.03401855 5.6251416 3.08764648 5.26098633 C1 4 1 4 0.19555664 1.85424805 C0.13102295 1.24234619 0.06648926 0.63044434 0 0 Z " fill="#8F8F8F" transform="translate(334,46)"/>
<path d="M0 0 C3.3 0 6.6 0 10 0 C10 9.57 10 19.14 10 29 C11.32 29 12.64 29 14 29 C14 30.98 14 32.96 14 35 C10.7 35 7.4 35 4 35 C4 25.43 4 15.86 4 6 C2.68 6 1.36 6 0 6 C0 4.02 0 2.04 0 0 Z " fill="#474747" transform="translate(331,214)"/>
<path d="M0 0 C1.39456867 0.00574201 2.78910972 0.01875397 4.18359375 0.03515625 C6.63796875 0.05578125 9.09234375 0.07640625 11.62109375 0.09765625 C11.62109375 5.37765625 11.62109375 10.65765625 11.62109375 16.09765625 C6.34109375 16.09765625 1.06109375 16.09765625 -4.37890625 16.09765625 C-4.39953125 13.64328125 -4.42015625 11.18890625 -4.44140625 8.66015625 C-4.45051025 7.88615479 -4.45961426 7.11215332 -4.46899414 6.31469727 C-4.47615538 4.57543908 -4.42915327 2.83620321 -4.37890625 1.09765625 C-3.37890625 0.09765625 -3.37890625 0.09765625 0 0 Z " fill="#EAEAEA" transform="translate(413.37890625,215.90234375)"/>
<path d="M0 0 C4.36065434 0.58900549 7.40204136 2.18564501 11.1640625 4.4296875 C11.75003708 4.77616333 12.33601166 5.12263916 12.93974304 5.47961426 C14.83900668 6.60454236 16.73210215 7.7393986 18.625 8.875 C20.58202125 10.04059437 22.54020148 11.20422219 24.49855042 12.36758423 C25.803451 13.14291382 27.10784464 13.91909725 28.41172791 14.69613647 C32.29259476 17.00459456 36.19731452 19.26094479 40.13671875 21.46875 C41.02343262 21.96777832 41.91014648 22.46680664 42.82373047 22.98095703 C44.44946992 23.89158801 46.07985108 24.79399459 47.71533203 25.68701172 C49.5262621 26.70836146 51.27274295 27.84275929 53 29 C53 29.99 53 30.98 53 32 C48.65524076 31.46083156 45.48834259 30.44679609 41.68359375 28.296875 C40.68134766 27.73468262 39.67910156 27.17249023 38.64648438 26.59326172 C37.58751953 25.98498535 36.52855469 25.37670898 35.4375 24.75 C34.34373047 24.12754395 33.24996094 23.50508789 32.12304688 22.86376953 C28.73889214 20.92556292 25.36708613 18.96769468 22 17 C20.41469482 16.07429199 20.41469482 16.07429199 18.79736328 15.12988281 C15.85310952 13.39708871 12.92363672 11.64231681 10 9.875 C9.10466553 9.34358398 8.20933105 8.81216797 7.28686523 8.26464844 C6.06205444 7.51103027 6.06205444 7.51103027 4.8125 6.7421875 C4.09707031 6.3076123 3.38164062 5.87303711 2.64453125 5.42529297 C0.67040947 3.71434835 0.36433091 2.54555832 0 0 Z " fill="#8F8F8F" transform="translate(292,94)"/>
<path d="M0 0 C4.95 0 9.9 0 15 0 C15 4.95 15 9.9 15 15 C10.05 15 5.1 15 0 15 C0 10.05 0 5.1 0 0 Z " fill="#F9F9F9" transform="translate(389,217)"/>
<path d="M0 0 C3.58045896 0.55815559 6.08800148 1.42877421 9.1171875 3.40625 C9.8817627 3.89851074 10.64633789 4.39077148 11.43408203 4.89794922 C12.23958496 5.42662598 13.04508789 5.95530273 13.875 6.5 C15.57719408 7.59779895 17.28033096 8.69413733 18.984375 9.7890625 C19.82935547 10.33336914 20.67433594 10.87767578 21.54492188 11.43847656 C25.0300913 13.6551774 28.57018967 15.77244573 32.125 17.875 C37.53327562 21.08407768 42.82573304 24.42428706 48 28 C47.505 29.485 47.505 29.485 47 31 C43.74750153 30.35098061 41.30996756 29.16978857 38.46484375 27.48046875 C37.58159424 26.95815674 36.69834473 26.43584473 35.78833008 25.89770508 C34.84755615 25.3333374 33.90678223 24.76896973 32.9375 24.1875 C31.96901123 23.61088623 31.00052246 23.03427246 30.00268555 22.44018555 C19.53812559 16.17953457 9.1475596 9.76503974 -1 3 C-0.67 2.01 -0.34 1.02 0 0 Z " fill="#8F8F8F" transform="translate(289,103)"/>
<path d="M0 0 C3.96007329 0.56817677 6.53863905 1.73828135 9.8515625 3.95703125 C10.77702881 4.5696582 11.70249512 5.18228516 12.65600586 5.81347656 C13.63577393 6.4731543 14.61554199 7.13283203 15.625 7.8125 C17.67994944 9.17994979 19.73595728 10.54581026 21.79296875 11.91015625 C22.82599121 12.59609863 23.85901367 13.28204102 24.92333984 13.98876953 C27.83532991 15.89235421 30.77374134 17.73818982 33.73828125 19.55859375 C34.61726074 20.09959717 35.49624023 20.64060059 36.40185547 21.19799805 C38.06642431 22.21683726 39.73590506 23.22770316 41.41064453 24.22973633 C42.52028564 24.91265747 42.52028564 24.91265747 43.65234375 25.609375 C44.30195068 26.00092773 44.95155762 26.39248047 45.62084961 26.79589844 C46.07596924 27.19325195 46.53108887 27.59060547 47 28 C47 28.99 47 29.98 47 31 C40.9952143 30.59776555 37.06783391 27.84550215 32.1875 24.625 C31.36233887 24.09205322 30.53717773 23.55910645 29.68701172 23.01000977 C27.11876712 21.34891092 24.55936838 19.67473311 22 18 C19.61523231 16.45446617 17.22829463 14.91233202 14.84106445 13.37060547 C13.39935263 12.43826566 11.95900869 11.50380609 10.52026367 10.56689453 C9.86646729 10.14134277 9.2126709 9.71579102 8.5390625 9.27734375 C7.93223633 8.8788623 7.32541016 8.48038086 6.70019531 8.06982422 C5.18664823 7.1174458 3.60765061 6.27093516 2.0234375 5.44140625 C1.35570312 4.96574219 0.68796875 4.49007812 0 4 C0 2.68 0 1.36 0 0 Z " fill="#909090" transform="translate(281,109)"/>
<path d="M0 0 C1.21945313 -0.00386719 2.43890625 -0.00773438 3.6953125 -0.01171875 C10.21588214 -0.0046771 16.5375515 0.24755548 23 1.125 C23.495 3.105 23.495 3.105 24 5.125 C22.91170898 5.11452637 21.82341797 5.10405273 20.70214844 5.09326172 C16.60940934 5.0566715 12.51668426 5.03395964 8.42382812 5.01513672 C6.66273557 5.00516706 4.90165917 4.99158644 3.140625 4.97412109 C-5.94059525 4.88640476 -14.71422068 4.8331554 -23.65429688 6.6796875 C-26.83103403 7.282765 -29.778442 7.27143445 -33 7.125 C-33 6.135 -33 5.145 -33 4.125 C-31.52433205 3.6351645 -30.04417897 3.1588408 -28.5625 2.6875 C-27.73878906 2.42066406 -26.91507813 2.15382812 -26.06640625 1.87890625 C-17.49429557 -0.22863179 -8.77863558 -0.02783922 0 0 Z " fill="#909090" transform="translate(179,194.875)"/>
<path d="M0 0 C0.82638376 2.89234315 1 4.88742431 1 8 C0.31599121 8.01981934 -0.36801758 8.03963867 -1.07275391 8.06005859 C-18.17726685 8.4994361 -18.17726685 8.4994361 -35.1328125 10.59765625 C-38.44815156 11.06288775 -41.6565458 11.06253343 -45 11 C-44.67 9.68 -44.34 8.36 -44 7 C-32.32247943 4.43899894 -20.94218506 3.37643844 -9 3 C-8.67 2.34 -8.34 1.68 -8 1 C-5.36 1.33 -2.72 1.66 0 2 C0 1.34 0 0.68 0 0 Z " fill="#989898" transform="translate(182,71)"/>
<path d="M0 0 C6.27 0 12.54 0 19 0 C19 3.3 19 6.6 19 10 C12.73 10 6.46 10 0 10 C0 6.7 0 3.4 0 0 Z " fill="#F1F1F1" transform="translate(352,234)"/>
<path d="M0 0 C0 1.32 0 2.64 0 4 C-0.68400879 4.01981934 -1.36801758 4.03963867 -2.07275391 4.06005859 C-20.62242491 4.59116952 -20.62242491 4.59116952 -39 7 C-39 6.67 -39 6.34 -39 6 C-41.97 5.67 -44.94 5.34 -48 5 C-35.25510091 -3.49659939 -14.54798981 -0.28759712 0 0 Z " fill="#939393" transform="translate(183,86)"/>
<path d="M0 0 C4.60205636 0.34732501 8.44960712 1.06516993 12.75 2.75 C19.11170803 5.20650112 25.65123746 6.74953044 32.27050781 8.33691406 C33.1106543 8.53897461 33.95080078 8.74103516 34.81640625 8.94921875 C35.57381104 9.12799561 36.33121582 9.30677246 37.11157227 9.4909668 C39 10 39 10 41 11 C40.67 12.32 40.34 13.64 40 15 C31.29881308 13.7388779 23.23760711 11.29136627 14.9375 8.4375 C13.71611328 8.02564453 12.49472656 7.61378906 11.23632812 7.18945312 C2.3689759 4.18448795 2.3689759 4.18448795 0 3 C0 2.01 0 1.02 0 0 Z " fill="#919191" transform="translate(339,36)"/>
<path d="M0 0 C4.59652074 0.62760187 8.41399124 2.47772141 12.5 4.5625 C13.19689941 4.9145752 13.89379883 5.26665039 14.61181641 5.62939453 C31.07782382 14.07782382 31.07782382 14.07782382 36 19 C36 19.99 36 20.98 36 22 C31.00082279 21.48284374 27.69744989 19.08633166 23.625 16.375 C16.05429463 11.47100668 8.26396435 7.58580063 0 4 C0 2.68 0 1.36 0 0 Z " fill="#8F8F8F" transform="translate(223,214)"/>
<path d="M0 0 C7.00613394 0.73044862 13.66142926 2.69566109 20.4375 4.5625 C22.25024414 5.0565332 22.25024414 5.0565332 24.09960938 5.56054688 C27.06745067 6.36995814 30.03418131 7.18321462 33 8 C33 9.32 33 10.64 33 12 C21.60650059 11.06991842 10.42032337 7.60946069 0 3 C0 2.01 0 1.02 0 0 Z " fill="#919191" transform="translate(341,24)"/>
<path d="M0 0 C5.15445119 -0.40380493 8.78666669 0.92893009 13.3125 3.1875 C13.96677979 3.50340088 14.62105957 3.81930176 15.29516602 4.14477539 C20.29601604 6.58317579 25.20337838 9.17922252 30 12 C30 12.99 30 13.98 30 15 C25.08768455 14.43406504 21.08075254 12.84840191 16.6875 10.6875 C15.36748454 10.05406813 14.04717254 9.42125383 12.7265625 8.7890625 C12.09137695 8.48258789 11.45619141 8.17611328 10.80175781 7.86035156 C7.23745461 6.15837264 3.61680596 4.5863184 0 3 C0 2.01 0 1.02 0 0 Z " fill="#919191" transform="translate(216,223)"/>
<path d="M0 0 C2.97 0 5.94 0 9 0 C9 0.33 9 0.66 9 1 C6.36 1 3.72 1 1 1 C1 12.88 1 24.76 1 37 C4.63 37 8.26 37 12 37 C14.34039804 37.27945051 16.67936391 37.58744247 19 38 C16.26256906 40.11528755 13.4900729 42.00920413 10.5 43.75 C9.7471875 44.19859375 8.994375 44.6471875 8.21875 45.109375 C5.65055105 46.14027176 4.54992963 45.95042831 2 45 C3.24546405 41.26360784 4.63404953 40.81243487 8 39 C4.04 38.505 4.04 38.505 0 38 C0 25.46 0 12.92 0 0 Z " fill="#828282" transform="translate(86,90)"/>
<path d="M0 0 C5 1 5 1 6.36328125 2.70703125 C6.67652344 3.40183594 6.98976562 4.09664063 7.3125 4.8125 C7.63863281 5.49957031 7.96476562 6.18664062 8.30078125 6.89453125 C9 9 9 9 9 13 C-2.33712984 17.77676538 -2.33712984 17.77676538 -9 16 C-9 15.67 -9 15.34 -9 15 C-6.03 15 -3.06 15 0 15 C0 10.05 0 5.1 0 0 Z " fill="#A6A6A6" transform="translate(124,112)"/>
<path d="M0 0 C0.33 2.31 0.66 4.62 1 7 C-7.53279474 8.24113378 -15.46720526 8.24113378 -24 7 C-23.67 6.34 -23.34 5.68 -23 5 C-20.03 5 -17.06 5 -14 5 C-13.67 3.68 -13.34 2.36 -13 1 C-11.20843648 0.83222817 -9.4167455 0.66581706 -7.625 0.5 C-6.62726563 0.4071875 -5.62953125 0.314375 -4.6015625 0.21875 C-2 0 -2 0 0 0 Z " fill="#F3F3F3" transform="translate(172,67)"/>
<path d="M0 0 C0.33 0.66 0.66 1.32 1 2 C2.36125 1.505 2.36125 1.505 3.75 1 C7 0 7 0 11 0 C9.57892936 4.8553247 7.85369722 8.84175548 5 13 C3.35 13.33 1.7 13.66 0 14 C0 9.38 0 4.76 0 0 Z " fill="#9A9A9A" transform="translate(124,91)"/>
<path d="M0 0 C2.97 0 5.94 0 9 0 C9 0.33 9 0.66 9 1 C6.36 1 3.72 1 1 1 C1 12.88 1 24.76 1 37 C0.34 36.34 -0.32 35.68 -1 35 C-1.4125 35.515625 -1.825 36.03125 -2.25 36.5625 C-2.8275 37.036875 -3.405 37.51125 -4 38 C-6.1875 37.6875 -6.1875 37.6875 -8 37 C-7.01 37 -6.02 37 -5 37 C-5 34.69 -5 32.38 -5 30 C-3.35 30 -1.7 30 0 30 C0 20.1 0 10.2 0 0 Z " fill="#747474" transform="translate(115,90)"/>
<path d="M0 0 C3.94949704 0.62816498 7.19892028 1.8645529 10.8125 3.5625 C12.27623047 4.24505859 12.27623047 4.24505859 13.76953125 4.94140625 C14.50558594 5.29074219 15.24164063 5.64007813 16 6 C15.67 7.32 15.34 8.64 15 10 C9.31497465 8.35433477 4.23318364 5.70967216 -1 3 C-0.67 2.01 -0.34 1.02 0 0 Z " fill="#919191" transform="translate(226,237)"/>
<path d="M0 0 C3.37462715 0.54723683 5.08235 1.0549 8 3 C8 3.99 8 4.98 8 6 C1.36842105 8.76315789 1.36842105 8.76315789 -1 9 C-2.75 7.5625 -2.75 7.5625 -4 6 C-3.67 5.01 -3.34 4.02 -3 3 C-2.34 3 -1.68 3 -1 3 C-0.67 2.01 -0.34 1.02 0 0 Z " fill="#444444" transform="translate(336,203)"/>
<path d="M0 0 C2.52480693 2.52480693 2.55738633 4.13823034 3.125 7.625 C3.29257813 8.62789062 3.46015625 9.63078125 3.6328125 10.6640625 C3.75398438 11.43492188 3.87515625 12.20578125 4 13 C1.69 13 -0.62 13 -3 13 C-2.69128878 11.20767663 -2.37790936 9.41615679 -2.0625 7.625 C-1.88847656 6.62726563 -1.71445312 5.62953125 -1.53515625 4.6015625 C-1 2 -1 2 0 0 Z " fill="#DFDFDF" transform="translate(64,100)"/>
<path d="M0 0 C0.66 0.33 1.32 0.66 2 1 C3.26761762 5.29581527 4 8.50944298 4 13 C1.69 13 -0.62 13 -3 13 C-2.343621 8.51474352 -1.29925791 4.33085971 0 0 Z " fill="#DEDEDE" transform="translate(165,46)"/>
<path d="M0 0 C0.33 1.98 0.66 3.96 1 6 C-1.64 6.66 -4.28 7.32 -7 8 C-7 5.69 -7 3.38 -7 1 C-4 0 -4 0 0 0 Z " fill="#F9F9F9" transform="translate(132,119)"/>
<path d="M0 0 C0.33 0 0.66 0 1 0 C1 1.98 1 3.96 1 6 C-0.98 6.99 -2.96 7.98 -5 9 C-5 10.32 -5 11.64 -5 13 C-6.32 13 -7.64 13 -9 13 C-9 10.36 -9 7.72 -9 5 C-6.03 5 -3.06 5 0 5 C0 3.35 0 1.7 0 0 Z " fill="#868686" transform="translate(472,222)"/>
<path d="M0 0 C2.125 0.375 2.125 0.375 4 1 C3.67 2.32 3.34 3.64 3 5 C4.32 5.33 5.64 5.66 7 6 C7 7.98 7 9.96 7 12 C6.67 12 6.34 12 6 12 C6 10.35 6 8.7 6 7 C2.37 7 -1.26 7 -5 7 C-3.68 6.67 -2.36 6.34 -1 6 C-1.309375 5.071875 -1.309375 5.071875 -1.625 4.125 C-1.810625 3.073125 -1.810625 3.073125 -2 2 C-1.34 1.34 -0.68 0.68 0 0 Z " fill="#686868" transform="translate(468,229)"/>
<path d="M0 0 C-1.875 5.75 -1.875 5.75 -3 8 C-4.32 8 -5.64 8 -7 8 C-7 5.69 -7 3.38 -7 1 C-4 0 -4 0 0 0 Z " fill="#F6F6F6" transform="translate(132,96)"/>
<path d="M0 0 C4.31392226 0.4793247 6.16569547 1.7457985 9 5 C8.67 5.99 8.34 6.98 8 8 C4.67689517 6.83242263 2.16638868 5.85051143 0 3 C0 2.01 0 1.02 0 0 Z " fill="#8D8D8D" transform="translate(281,251)"/>
<path d="M0 0 C1.65 0 3.3 0 5 0 C4.63287028 2.71675995 4.27255401 4.61063713 2.6875 6.875 C1 8 1 8 -1.1875 7.6875 C-1.785625 7.460625 -2.38375 7.23375 -3 7 C-2.01 7 -1.02 7 0 7 C0 4.69 0 2.38 0 0 Z " fill="#909090" transform="translate(110,120)"/>
<path d="M0 0 C1.32 0.33 2.64 0.66 4 1 C3.34 2.32 2.68 3.64 2 5 C2.66 5 3.32 5 4 5 C4 5.66 4 6.32 4 7 C2.68 7 1.36 7 0 7 C0 4.69 0 2.38 0 0 Z " fill="#F8F8F8" transform="translate(463,228)"/>
<path d="M0 0 C1.98 0.99 3.96 1.98 6 3 C6 3.99 6 4.98 6 6 C5.01 6 4.02 6 3 6 C0 2.66666667 0 2.66666667 0 0 Z " fill="#848484" transform="translate(338,203)"/>
</svg>
