<?xml version="1.0" encoding="UTF-8"?>
<svg xmlns="http://www.w3.org/2000/svg" width="311" height="37" viewBox="0 0 311 37" fill="none">
  <g clip-path="url(#clip0_206_2347)">
    <path d="M28.9674 10.5898H22.4694C21.8243 10.5898 21.3014 11.1076 21.3014 11.7463V18.1797C21.3014 18.8184 21.8243 19.3362 22.4694 19.3362H28.9674C29.6125 19.3362 30.1355 18.8184 30.1355 18.1797V11.7463C30.1355 11.1076 29.6125 10.5898 28.9674 10.5898Z" fill="#464646"></path>
    <path d="M8.97652 12.4043C9.94784 10.1462 12.2655 8.74634 14.743 8.74634H18.8004C19.1938 8.74634 19.5135 8.42984 19.5135 8.0403V0.699951C19.5135 0.310413 19.1938 0 18.8065 0H11.3925C10.9991 0 10.6856 0.316499 10.6856 0.699951V4.8327C10.6856 6.21434 10.2245 7.57773 9.30235 8.61852C9.21628 8.71591 9.13021 8.80721 9.038 8.8985C7.94988 9.9819 6.44372 10.548 4.90068 10.548H2.59533H0.714174C0.320729 10.548 0.00720215 10.8645 0.00720215 11.2479V18.5883C0.00720215 18.9778 0.326876 19.2943 0.720322 19.2943H4.93756C6.44372 19.2943 7.91299 19.8421 8.98882 20.8829C9.00111 20.8951 9.01956 20.9133 9.03185 20.9255C10.1015 21.9906 10.661 23.4575 10.661 24.9548V29.1362C10.661 29.5257 10.9806 29.8422 11.3679 29.8422H18.7819C19.1754 29.8422 19.495 29.5257 19.495 29.1362V21.7959C19.495 21.4063 19.1754 21.0959 18.7881 21.0959H14.7552C12.2778 21.0959 9.96014 19.696 8.98882 17.4379C8.93964 17.3223 8.89046 17.2005 8.84742 17.0788C8.60767 16.4032 8.47242 15.6728 8.47242 14.9181C8.47242 14.1634 8.60767 13.433 8.84742 12.7574C8.89046 12.6356 8.93964 12.52 8.98882 12.3983L8.97652 12.4043Z" fill="#464646"></path>
    <path d="M42.2216 15.0761C42.2216 5.97065 49.0208 0.529297 56.3057 0.529297C63.1049 0.529297 68.3549 4.47945 69.2463 10.4442H63.6705C62.816 7.38273 60.0864 5.36809 56.3057 5.36809C51.7073 5.36809 48.0864 9.15391 48.0864 15.0822C48.0864 21.0105 51.7503 25.0337 56.3057 25.0337C60.0495 25.0337 62.693 23.0981 63.7135 19.9149H69.2894C68.232 26.0014 63.0619 29.8298 56.3057 29.8298C48.8179 29.8298 42.2216 24.3094 42.2216 15.0822V15.0761Z" fill="#464646"></path>
    <path d="M71.2382 18.7819C71.2382 12.2145 76.2423 7.98438 82.3468 7.98438C88.4514 7.98438 93.4186 12.1354 93.4186 18.7819C93.4186 25.4284 88.4514 29.7863 82.3468 29.7863C76.2423 29.7863 71.2382 25.5562 71.2382 18.7819ZM88.0457 18.7819C88.0457 14.9961 85.728 12.3362 82.3468 12.3362C78.9657 12.3362 76.6111 14.9534 76.6111 18.7819C76.6111 22.6103 78.9288 25.4284 82.3468 25.4284C85.7649 25.4284 88.0457 22.7686 88.0457 18.7819Z" fill="#464646"></path>
    <path d="M95.4166 18.7819C95.4166 12.2145 100.421 7.98438 106.525 7.98438C112.63 7.98438 117.597 12.1354 117.597 18.7819C117.597 25.4284 112.63 29.7863 106.525 29.7863C100.421 29.7863 95.4166 25.5562 95.4166 18.7819ZM112.224 18.7819C112.224 14.9961 109.906 12.3362 106.525 12.3362C103.144 12.3362 100.79 14.9534 100.79 18.7819C100.79 22.6103 103.107 25.4284 106.525 25.4284C109.943 25.4284 112.224 22.7686 112.224 18.7819Z" fill="#464646"></path>
    <path d="M125.085 26.5242V36.9991H119.878V8.46544H125.005V11.2835C126.185 9.31147 128.386 7.97852 131.515 7.97852C136.808 7.97852 141.241 11.7278 141.241 18.7395C141.241 25.7512 136.722 29.7805 131.472 29.7805C128.503 29.7805 126.302 28.5327 125.085 26.5181V26.5242ZM135.868 18.7456C135.868 14.5154 133.507 12.2573 130.452 12.2573C127.396 12.2573 124.999 14.7163 124.999 18.7456C124.999 23.0183 127.402 25.5138 130.452 25.5138C133.501 25.5138 135.868 23.0548 135.868 18.7456Z" fill="#464646"></path>
    <path d="M154.347 29.7863C148.366 29.7863 143.355 25.6779 143.355 18.7454C143.355 11.8128 148.526 7.98438 154.144 7.98438C159.763 7.98438 164.724 11.8128 164.724 19.2262V20.3522H148.649C149.054 23.6572 151.495 25.7144 154.507 25.7144C156.462 25.7144 158.417 25.0693 159.395 23.219H164.522C163.218 27.8143 158.7 29.7863 154.347 29.7863ZM148.605 16.6881H159.351C159.106 13.87 156.991 12.0137 154.058 12.0137C151.292 12.0137 148.968 13.7483 148.605 16.6881Z" fill="#464646"></path>
    <path d="M172.458 29.3417H167.251V8.46489H172.341V11.6481C172.79 10.9238 173.319 10.2361 174.007 9.67611C175.268 8.70835 176.448 8.30664 178.28 8.30664C178.852 8.30664 179.38 8.34925 179.743 8.42837V13.3037C178.722 13.2246 178.237 13.2246 177.665 13.2246C175.384 13.2246 172.458 14.028 172.458 18.0999V29.3417Z" fill="#464646"></path>
    <path d="M195.413 26.7613C194.03 28.6542 191.829 29.7863 188.7 29.7863C184.79 29.7863 181.009 27.6073 181.009 23.3407C181.009 19.074 184.673 17.3759 190.249 16.4933L195.05 15.7264V15.483C195.05 12.8658 193.587 11.8554 191.104 11.8554C188.62 11.8554 187.114 13.024 186.665 15.1604H181.698C182.307 10.7294 186.259 7.98438 191.3 7.98438C196.341 7.98438 200.214 10.0416 200.171 15.8421L200.091 25.0327C200.091 25.7144 200.135 26.8039 200.294 29.342H195.493L195.413 26.7613ZM189.88 25.8727C192.727 25.8727 195.05 24.1806 195.05 20.833V19.3844C188.743 20.1879 186.093 20.833 186.093 23.0911C186.093 24.9049 187.68 25.8727 189.88 25.8727Z" fill="#464646"></path>
    <path d="M205.059 23.742V12.415H201.518V8.46484H205.059V3.38867H210.229V8.46484H215.116V12.415H210.229V22.7317C210.229 24.9471 210.924 25.3123 212.59 25.3123H215.11V29.299C213.604 29.3781 212.706 29.3781 210.917 29.3781C207.333 29.3781 205.059 28.3313 205.059 23.7359V23.742Z" fill="#464646"></path>
    <path d="M218.245 0.328125H223.538V5.16691H218.245V0.328125ZM218.288 8.46581H223.495V29.3426H218.288V8.46581Z" fill="#464646"></path>
    <path d="M238.883 29.3416H233.35L225.536 8.46484H230.989L236.239 23.7359L241.532 8.46484H246.702L238.889 29.3416H238.883Z" fill="#464646"></path>
    <path d="M258.334 29.7863C252.352 29.7863 247.342 25.6779 247.342 18.7454C247.342 11.8128 252.512 7.98438 258.125 7.98438C263.737 7.98438 268.705 11.8128 268.705 19.2262V20.3522H252.629C253.034 23.6572 255.475 25.7144 258.487 25.7144C260.442 25.7144 262.397 25.0693 263.375 23.219H268.502C267.198 27.8143 262.68 29.7863 258.328 29.7863H258.334ZM252.598 16.6881H263.344C263.098 13.87 260.983 12.0137 258.051 12.0137C255.284 12.0137 252.961 13.7483 252.598 16.6881Z" fill="#464646"></path>
    <path d="M294.555 22.7745H282.303L279.862 29.3419H274.207L285.358 1.13086H291.789L302.904 29.3419H297.002L294.561 22.7745H294.555ZM292.846 18.2218L288.451 6.45657L284.012 18.2218H292.846Z" fill="#464646"></path>
    <path d="M305.381 1.13086H311V29.3419H305.381V1.13086Z" fill="#464646"></path>
  </g>
  <defs>
    <clipPath id="clip0_206_2347">
      <rect width="311" height="37" fill="white"></rect>
    </clipPath>
  </defs>
</svg>
