<?xml version="1.0" encoding="UTF-8"?>
<svg version="1.1" xmlns="http://www.w3.org/2000/svg" width="486" height="83">
<path d="M0 0 C160.38 0 320.76 0 486 0 C486 27.39 486 54.78 486 83 C325.62 83 165.24 83 0 83 C0 55.61 0 28.22 0 0 Z " fill="#FDFDFD" transform="translate(0,0)"/>
<path d="M0 0 C55.77 0 111.54 0 169 0 C169.33 24.42 169.66 48.84 170 74 C173.50076982 79.97226499 173.50076982 79.97226499 178 83 C119.26 83 60.52 83 0 83 C0 55.61 0 28.22 0 0 Z " fill="#FCFCFC" transform="translate(0,0)"/>
<path d="M0 0 C1.9385939 0.00666183 1.9385939 0.00666183 3.91635132 0.01345825 C4.64018194 0.01321718 5.36401257 0.01297611 6.10977745 0.01272774 C8.45737288 0.01422286 10.8046524 0.02946443 13.15219116 0.04519653 C14.59969937 0.04813636 16.0472097 0.05017717 17.49472046 0.05130005 C22.86755557 0.06179442 28.24034521 0.08971675 33.61312866 0.11550903 C45.61687866 0.15675903 57.62062866 0.19800903 69.98812866 0.24050903 C69.98812866 26.64050903 69.98812866 53.04050903 69.98812866 80.24050903 C43.58812866 80.24050903 17.18812866 80.24050903 -10.01187134 80.24050903 C-4.01187134 72.24050903 -4.01187134 72.24050903 -3.01187134 71.24050903 C-1.04817981 71.14650233 0.91892065 71.12307522 2.88485718 71.12698364 C4.14608902 71.12705917 5.40732086 71.1271347 6.70677185 71.12721252 C8.0935266 71.13231993 9.48028095 71.13753594 10.86703491 71.14285278 C12.27808075 71.14471702 13.68912723 71.1461409 15.10017395 71.1471405 C18.82053401 71.15096524 22.54085526 71.16079514 26.26119995 71.17184448 C30.05493647 71.18205956 33.84867924 71.18663833 37.64242554 71.19168091 C45.09101302 71.20241746 52.53956047 71.22001388 59.98812866 71.24050903 C59.98812866 62.33050903 59.98812866 53.42050903 59.98812866 44.24050903 C37.21812866 44.24050903 14.44812866 44.24050903 -9.01187134 44.24050903 C-7.21737572 40.65151779 -5.81651089 38.07071436 -3.01187134 35.24050903 C-0.13912964 34.63923645 -0.13912964 34.63923645 3.22543335 34.67288208 C5.11694122 34.67344856 5.11694122 34.67344856 7.04666138 34.67402649 C8.41778555 34.69955779 9.78889961 34.72563774 11.16000366 34.75222778 C12.5667495 34.76155754 13.97351163 34.76867289 15.38027954 34.77366638 C19.07637677 34.79272413 22.77148584 34.84181202 26.4671936 34.89718628 C30.24096306 34.94840658 34.01489277 34.97118621 37.78890991 34.99636841 C45.18915138 35.04993435 52.58837547 35.13785751 59.98812866 35.24050903 C59.98812866 26.66050903 59.98812866 18.08050903 59.98812866 9.24050903 C37.21812866 9.24050903 14.44812866 9.24050903 -9.01187134 9.24050903 C-3.90999624 0.31222762 -3.90999624 0.31222762 0 0 Z " fill="#353535" transform="translate(10.011871337890625,1.759490966796875)"/>
<path d="M0 0 C6.65532445 4.30638641 9.53380899 10.60142696 12 18 C12.79064872 29.30238832 12.06129559 38.549707 5.875 48.375 C-1.21829387 54.85148571 -8.01025806 56.8658918 -17.59375 56.48046875 C-24.40665305 55.5194744 -29.69623654 52.72311008 -34.4375 47.75 C-41.14937889 38.79449021 -41.12870083 27.76827508 -40 17 C-39.17889262 13.53464852 -38.01808566 10.92058359 -36 8 C-35.56429688 7.35804687 -35.12859375 6.71609375 -34.6796875 6.0546875 C-26.32184379 -4.86074773 -11.92154873 -6.17365916 0 0 Z " fill="#383838" transform="translate(299,27)"/>
<path d="M0 0 C3.96 0 7.92 0 12 0 C18.18165109 16.37953307 24.24561486 32.79931758 30.22387695 49.25415039 C31.36208186 52.38603027 32.50219436 55.51720203 33.64328098 58.64803219 C34.74414411 61.66976166 35.84265949 64.69234422 36.94140625 67.71484375 C37.35064835 68.83745102 37.75989044 69.96005829 38.18153381 71.11668396 C38.55289963 72.14028519 38.92426544 73.16388641 39.30688477 74.21850586 C39.63503677 75.12096542 39.96318878 76.02342499 40.30128479 76.95323181 C41 79 41 79 41 80 C37.37 80 33.74 80 30 80 C28.82738774 76.89796196 27.66171068 73.79361833 26.5 70.6875 C26.16613281 69.80642578 25.83226562 68.92535156 25.48828125 68.01757812 C25.17246094 67.17001953 24.85664063 66.32246094 24.53125 65.44921875 C24.23798828 64.66893311 23.94472656 63.88864746 23.64257812 63.0847168 C23 61 23 61 23 58 C11.78 58 0.56 58 -11 58 C-11.66 60.97 -12.32 63.94 -13 67 C-13.82180086 69.37326127 -14.69224541 71.73061352 -15.625 74.0625 C-16.07101562 75.18785156 -16.51703125 76.31320313 -16.9765625 77.47265625 C-17.31429688 78.30667969 -17.65203125 79.14070313 -18 80 C-21.3 80 -24.6 80 -28 80 C-26.76677085 73.97589383 -25.20574102 68.35897558 -23.0234375 62.6171875 C-22.73694336 61.84809052 -22.45044922 61.07899353 -22.15527344 60.28659058 C-21.54666397 58.65411735 -20.93550898 57.02259113 -20.32196045 55.39196777 C-18.72350838 51.14337181 -17.14345347 46.88794441 -15.5625 42.6328125 C-15.09618668 41.37960205 -15.09618668 41.37960205 -14.62045288 40.10107422 C-11.79248193 32.48279764 -9.09603064 24.82425235 -6.48583984 17.12841797 C-4.51102318 11.33523858 -2.30980777 5.6686112 0 0 Z " fill="#373737" transform="translate(420,2)"/>
<path d="M0 0 C6.58710322 3.47319988 10.51831538 8.78221231 13.6875 15.4375 C14.4375 18.8125 14.4375 18.8125 14.4375 30.8125 C0.9075 30.8125 -12.6225 30.8125 -26.5625 30.8125 C-24.49673036 40.02481544 -24.49673036 40.02481544 -19.0625 47.1875 C-14.15723058 49.46494651 -9.88407127 49.59648148 -4.5625 48.8125 C-0.75776132 46.97807242 0.93017173 45.87547352 2.75 42.0625 C4.4375 39.8125 4.4375 39.8125 6.6171875 39.49609375 C8.91076719 39.4996663 11.15467513 39.59713916 13.4375 39.8125 C13.30270709 45.20421652 11.14643328 48.19421771 7.57421875 51.9765625 C1.20579855 57.44851404 -6.17400454 58.5534963 -14.37890625 58.25390625 C-21.32206751 57.29123481 -26.59820937 54.46987218 -31 49 C-35.62274602 42.52815558 -37.10429704 35.70144977 -37 27.875 C-36.99315186 27.08448242 -36.98630371 26.29396484 -36.97924805 25.47949219 C-36.81565729 19.54120892 -35.95241544 14.80816487 -32.5625 9.8125 C-31.840625 8.74 -31.11875 7.6675 -30.375 6.5625 C-21.86017207 -1.76310953 -11.48275993 -3.76234369 0 0 Z " fill="#393939" transform="translate(233.5625,25.1875)"/>
<path d="M0 0 C0 8.91 0 17.82 0 27 C-1.87703613 26.99363525 -3.75407227 26.98727051 -5.68798828 26.98071289 C-11.90284184 26.96783678 -18.1169456 26.98723822 -24.33166695 27.02846622 C-28.0983428 27.05228034 -31.8641353 27.06329703 -35.63085938 27.04467773 C-39.26892168 27.02717177 -42.90540029 27.04379099 -46.54327011 27.08367729 C-47.92824449 27.09294272 -49.31335673 27.09009037 -50.69827652 27.07469368 C-58.37118532 26.75168109 -58.37118532 26.75168109 -65.1864624 29.61837769 C-66.65631644 31.34586558 -67.83123424 33.06355805 -69 35 C-69.33 35 -69.66 35 -70 35 C-70 23.78 -70 12.56 -70 1 C-46.64624681 0.14298153 -23.36668 -0.11429354 0 0 Z " fill="#FCFCFC" transform="translate(70,46)"/>
<path d="M0 0 C16.5 0 33 0 50 0 C50 2.97 50 5.94 50 9 C36.8 9 23.6 9 10 9 C10 17.58 10 26.16 10 35 C21.88 35 33.76 35 46 35 C46 37.97 46 40.94 46 44 C34.12 44 22.24 44 10 44 C10 52.91 10 61.82 10 71 C23.53 71 37.06 71 51 71 C51 73.97 51 76.94 51 80 C34.17 80 17.34 80 0 80 C0 53.6 0 27.2 0 0 Z " fill="#353535" transform="translate(104,2)"/>
<path d="M0 0 C4.1407851 2.33389706 7.07027304 4.78170155 9.4375 8.9375 C9.8125 12.375 9.8125 12.375 9.4375 14.9375 C6.4675 14.9375 3.4975 14.9375 0.4375 14.9375 C0.169375 14.15375 -0.09875 13.37 -0.375 12.5625 C-1.41064432 9.65635077 -1.41064432 9.65635077 -4.5625 7.9375 C-7.85576547 7.54272905 -7.85576547 7.54272905 -11.5 7.5625 C-12.72589844 7.53414062 -13.95179688 7.50578125 -15.21484375 7.4765625 C-18.61397593 7.66550059 -18.61397593 7.66550059 -20.97265625 9.76953125 C-22.79613948 11.91233447 -22.79613948 11.91233447 -23.0625 15 C-22.84826925 17.9294918 -22.84826925 17.9294918 -21.0859375 19.46484375 C-17.47902234 21.56980817 -13.71854627 22.42811038 -9.6875 23.4375 C5.05162799 27.16435944 5.05162799 27.16435944 9.51953125 32.93359375 C11.55400924 37.37481592 11.12641448 42.20608736 10.4375 46.9375 C7.99048498 52.41881365 4.6619196 54.41858341 -0.5625 56.9375 C-8.06149558 59.35600723 -17.09195774 59.11827081 -24.1875 55.75 C-29.59763609 52.60147818 -32.66665423 48.94101159 -34.5625 42.9375 C-34.5625 41.9475 -34.5625 40.9575 -34.5625 39.9375 C-31.51178825 39.649697 -28.60189738 39.4902128 -25.5625 39.9375 C-23.45888304 42.3598468 -22.5625 43.71995634 -22.5625 46.9375 C-18.61467867 48.78619991 -15.40940758 49.23476551 -11.0625 49.25 C-9.9590625 49.26675781 -8.855625 49.28351563 -7.71875 49.30078125 C-4.18979257 48.89460174 -2.31507203 48.17081393 0.4375 45.9375 C1.21949939 44.01605705 1.21949939 44.01605705 1.0625 41.9375 C1.07539063 41.256875 1.08828125 40.57625 1.1015625 39.875 C0.56568151 37.75064584 0.56568151 37.75064584 -1.54296875 36.33984375 C-6.15063252 34.19993263 -10.95896606 33.11910343 -15.88085938 31.91992188 C-22.07506656 30.31823985 -27.36782236 28.01526767 -31.5625 22.9375 C-33.3994984 17.4265048 -33.44385709 11.96845329 -31.125 6.625 C-22.78698478 -2.11974767 -11.49990651 -3.51631757 0 0 Z " fill="#3A3A3A" transform="translate(355.5625,25.0625)"/>
<path d="M0 0 C4.9719029 4.50940031 7.38071054 9.68058647 7.92578125 16.35546875 C8.12002185 24.91227848 7.13790774 31.09666445 1.75 37.875 C-2.38139542 41.00484502 -6.09631465 41.90175525 -11.3203125 41.75390625 C-15.70204954 41.05798331 -18.46496066 38.5574627 -21.0625 35.125 C-24.83699899 27.00982718 -26.07578357 17.64235192 -23.58984375 8.89453125 C-21.64918652 4.70679722 -19.24517252 1.95844393 -15.3125 -0.5625 C-9.95934273 -2.34688576 -5.13268305 -2.42107691 0 0 Z " fill="#FBFBFB" transform="translate(293.3125,33.5625)"/>
<path d="M0 0 C11.22 0 22.44 0 34 0 C36.64 7.59 39.28 15.18 42 23 C25.5 23 9 23 -8 23 C-5.36 15.41 -2.72 7.82 0 0 Z " fill="#FCFCFC" transform="translate(409,60)"/>
<path d="M0 0 C3.3 0 6.6 0 10 0 C10.01030746 0.8703035 10.02061493 1.74060699 10.03123474 2.63728333 C10.12915391 10.83330844 10.23166045 19.02926052 10.33933926 27.22516346 C10.39453751 31.43890076 10.44795259 35.65264504 10.49731445 39.86645508 C10.54500366 43.93190764 10.59734816 47.99727589 10.65294075 52.06262779 C10.67334364 53.61476229 10.69206014 55.16691989 10.70907402 56.71909523 C10.73316378 58.89069605 10.76321199 61.06213787 10.79467773 63.23364258 C10.81022202 64.47052322 10.8257663 65.70740387 10.84178162 66.98176575 C10.868297 70.04844364 10.868297 70.04844364 12 73 C15.51190809 74.22969878 15.51190809 74.22969878 19 75 C19.04241723 77.33294775 19.04092937 79.66702567 19 82 C17.44969882 83.55030118 15.96323999 83.24405099 13.8125 83.3125 C9.13553019 83.25301549 6.57246072 82.14716778 3 79 C-0.11639771 74.85594742 -0.36677704 71.76603992 -0.34057617 66.6394043 C-0.34101425 65.91690994 -0.34145233 65.19441559 -0.34190369 64.45002747 C-0.33982244 62.07447793 -0.31652374 59.69964418 -0.29296875 57.32421875 C-0.28737041 55.67227056 -0.28310144 54.02031738 -0.28010559 52.36836243 C-0.26867551 48.02979677 -0.2392243 43.69153453 -0.20599365 39.35308838 C-0.17525306 34.92228296 -0.16159174 30.4914283 -0.14648438 26.06054688 C-0.11435268 17.373559 -0.06317876 8.68681729 0 0 Z " fill="#373737" transform="translate(169,0)"/>
<path d="M0 0 C3.3 0 6.6 0 10 0 C10 26.4 10 52.8 10 80 C6.7 80 3.4 80 0 80 C0 53.6 0 27.2 0 0 Z " fill="#333333" transform="translate(476,2)"/>
<path d="M0 0 C0.66 0 1.32 0 2 0 C3.38836235 3.87747039 4.77586485 7.7552473 6.16259766 11.63330078 C6.6337199 12.95044105 7.1050703 14.26749974 7.57666016 15.58447266 C8.25744776 17.48578435 8.93739358 19.38739533 9.6171875 21.2890625 C10.02565918 22.43068848 10.43413086 23.57231445 10.85498047 24.74853516 C11.42176514 26.35801025 11.42176514 26.35801025 12 28 C12.37914551 29.04591309 12.75829102 30.09182617 13.14892578 31.16943359 C14 34 14 34 14 38 C5.09 38 -3.82 38 -13 38 C-9.74344136 27.14480453 -9.74344136 27.14480453 -7.79443359 22.08984375 C-6.21143844 17.92560326 -4.7770138 13.70703756 -3.3125 9.5 C-2.99216797 8.5821875 -2.67183594 7.664375 -2.34179688 6.71875 C-1.56037521 4.4794521 -0.77979314 2.23986541 0 0 Z " fill="#F5F5F5" transform="translate(425,13)"/>
<path d="M0 0 C3.93574545 2.03573041 6.25047792 4.69648334 8.4375 8.5 C9 11 9 11 9 17 C-1.23 17 -11.46 17 -22 17 C-20.82040816 7.56326531 -20.82040816 7.56326531 -17 3 C-11.60715817 -0.87320942 -6.43916356 -1.0561591 0 0 Z " fill="#FAFAFA" transform="translate(229,32)"/>
</svg>
