<?xml version="1.0" encoding="UTF-8"?>
<svg xmlns="http://www.w3.org/2000/svg" width="137" height="28" viewBox="0 0 137 28" fill="none">
  <g clip-path="url(#clip0_211_196)">
    <path d="M0 26.575C1.65674 26.4038 2.68998 26.1129 3.09258 25.7022C3.49519 25.2881 3.69827 24.2134 3.69827 22.4679V4.95462C3.69827 3.52056 3.47381 2.58278 3.02133 2.14127C2.56884 1.69976 1.56054 1.42595 0 1.32328V0.570312H22.4248L22.5673 6.35445H21.3951C21.1065 4.50626 20.565 3.33917 19.7704 2.84632C18.9759 2.35347 17.4082 2.11047 15.0639 2.11047H9.29556C8.73263 2.11047 8.37278 2.20288 8.21245 2.38769C8.05568 2.57251 7.97373 2.9353 7.97373 3.47265V12.498H14.077C15.8726 12.498 17.0163 12.2413 17.508 11.7313C17.9997 11.2213 18.3987 10.1843 18.7016 8.62703H19.6885V17.9672H18.7016C18.3845 16.3997 17.9819 15.3626 17.4902 14.8561C16.9985 14.3496 15.8584 14.0963 14.077 14.0963H7.97373V22.9436C7.97373 24.4222 8.20888 25.3702 8.68275 25.7809C9.15661 26.1951 10.1863 26.4586 11.7753 26.575V27.3245H0V26.575Z" fill="#464646"></path>
    <path d="M28.4283 3.57316C31.0185 1.19105 34.2037 0 37.9839 0C41.7642 0 44.9743 1.1979 47.561 3.59369C50.3685 6.188 51.7759 9.64136 51.7759 13.9606C51.7759 18.2799 50.3222 21.8325 47.4185 24.4268C44.814 26.7439 41.6715 27.9007 37.9839 27.9007C34.0363 27.9007 30.762 26.6173 28.1575 24.0504C25.5138 21.4321 24.192 18.0677 24.192 13.9606C24.192 9.64479 25.6029 6.18115 28.4247 3.57316H28.4283ZM31.5743 23.3864C33.3166 25.4194 35.4579 26.4359 37.9946 26.4359C40.5314 26.4359 42.6014 25.4468 44.3651 23.4651C46.1287 21.4834 47.0087 18.3141 47.0087 13.9572C47.0087 9.60029 46.118 6.36255 44.333 4.40142C42.548 2.44029 40.4352 1.45801 37.9946 1.45801C35.5541 1.45801 33.3344 2.47451 31.585 4.50752C29.8356 6.54052 28.9627 9.68928 28.9627 13.9572C28.9627 18.2252 29.8321 21.3534 31.5743 23.3864Z" fill="#464646"></path>
    <path d="M73.6055 0.747944C75.2088 1.18261 76.1067 1.39823 76.2991 1.39823C76.6981 1.39823 77.0722 1.29213 77.4285 1.08335C77.7848 0.874578 78.0306 0.54259 78.1696 0.0976562H79.0532L79.4451 9.18114H78.4796C77.9166 7.37745 77.1862 5.92286 76.2813 4.81737C74.5533 2.73645 72.2303 1.69599 69.3123 1.69599C66.3943 1.69599 63.9573 2.81517 62.0867 5.05353C60.2162 7.29189 59.2792 10.3722 59.2792 14.2945C59.2792 17.9018 60.2625 20.7802 62.2293 22.933C64.196 25.0858 66.6864 26.1605 69.7006 26.1605C71.8811 26.1605 73.887 25.6608 75.7219 24.6614C76.7765 24.0967 77.9345 23.241 79.1957 22.0945L79.976 22.844C79.0425 23.9769 77.8846 24.9694 76.5022 25.8251C74.1435 27.2728 71.589 27.9984 68.8348 27.9984C64.3135 27.9984 60.7222 26.6088 58.0642 23.8331C55.6094 21.2662 54.3838 18.0627 54.3838 14.2157C54.3838 10.3688 55.6771 6.97701 58.2673 4.30399C61.0001 1.49749 64.5487 0.0976562 68.9204 0.0976562C70.4417 0.0976562 72.0022 0.313278 73.6055 0.747944Z" fill="#464646"></path>
    <path d="M82.0389 27.3276V26.578C83.122 26.4617 83.9343 26.0681 84.4759 25.4041C85.0174 24.7401 85.9438 22.9193 87.2585 19.9451L96.0267 0.0976562H96.864L107.353 23.022C108.051 24.5416 108.611 25.4794 109.028 25.8388C109.445 26.1981 110.146 26.4446 111.133 26.5746V27.3242H100.427V26.5746C101.656 26.4685 102.451 26.3419 102.807 26.1913C103.163 26.0407 103.341 25.6711 103.341 25.0824C103.341 24.8873 103.274 24.5382 103.135 24.0419C102.999 23.5422 102.807 23.0186 102.558 22.471L100.872 18.5795H89.7774C88.6836 21.2251 88.0316 22.8406 87.8179 23.4224C87.6041 24.0043 87.5008 24.4663 87.5008 24.8086C87.5008 25.4897 87.7894 25.962 88.363 26.2221C88.7193 26.3795 89.3891 26.4959 90.3724 26.5746V27.3242H82.0317L82.0389 27.3276ZM100.17 16.9401L95.3462 5.80307L90.5007 16.9401H100.17Z" fill="#464646"></path>
    <path d="M112.291 26.575C113.841 26.4175 114.842 26.154 115.302 25.7809C115.762 25.4079 115.99 24.4632 115.99 22.9436V4.95462C115.99 3.52056 115.765 2.58278 115.313 2.14127C114.86 1.69976 113.852 1.42595 112.291 1.32328V0.570312H124.174V1.32328C122.624 1.402 121.587 1.645 121.06 2.05228C120.532 2.45957 120.269 3.33574 120.269 4.67739V24.1073C120.269 24.5556 120.347 24.9082 120.507 25.1649C120.664 25.4216 121.013 25.5824 121.548 25.6474C121.861 25.6885 122.196 25.7125 122.545 25.7262C122.895 25.7399 123.55 25.7467 124.512 25.7467C128.257 25.7467 130.79 25.4489 132.105 24.8568C133.423 24.2647 134.698 22.752 135.931 20.3151H137L134.941 27.3245H112.291V26.575Z" fill="#464646"></path>
  </g>
  <defs>
    <clipPath id="clip0_211_196">
      <rect width="137" height="28" fill="white"></rect>
    </clipPath>
  </defs>
</svg>
