<svg xmlns="http://www.w3.org/2000/svg" width="215" height="38" viewBox="0 0 215 38"
                                fill="none">
                                <path
                                    d="M0.5 17.9434V0.316406H3.73486L9.54541 15.8315H9.56982L15.3438 0.316406H18.603V17.9434H16.6133V9.03223L16.6377 2.35498H16.6133L10.6929 17.98H8.41016L2.48975 2.35498H2.46533L2.47754 9.03223V17.9434H0.5Z"
                                    fill="white" />
                                <path
                                    d="M23.4502 17.98L30.7134 0.316406H32.9839L40.2471 17.98H38.0254L35.9014 12.731H27.5884L25.4888 17.98H23.4502ZM28.3086 10.9487H35.1689L31.751 2.50146H31.7144L28.3086 10.9487Z"
                                    fill="white" />
                                <path
                                    d="M54.1523 18.2983C48.5249 18.2983 45.0947 14.4287 45.0947 9.15527V9.13086C45.0947 3.85742 48.5249 0 54.1523 0C58.376 0 61.4155 2.18506 62.3799 5.88379H60.2437C59.4136 3.14941 56.96 1.79443 54.1401 1.79443C49.7334 1.79443 47.2676 4.87061 47.2676 9.13086V9.15527C47.2676 13.4277 49.7334 16.5039 54.1401 16.5039C56.96 16.5039 59.4136 15.1489 60.2437 12.4146H62.3799C61.4155 16.1133 58.376 18.2983 54.1523 18.2983Z"
                                    fill="white" />
                                <path
                                    d="M67.2266 17.9629V0.335938H73.6719C77.7979 0.335938 80.3491 1.4834 80.3491 4.90137V4.92578C80.3491 7.28174 79.2261 8.62451 77.1753 9.23486C78.5791 9.56445 79.5801 10.0894 79.8364 12.7383L80.0562 14.9355C80.2881 17.2549 80.4346 17.6089 80.5688 17.9629H78.4448C78.3105 17.5723 78.1763 16.9497 78.0908 16.0952L77.7734 13.1289C77.5049 10.4067 76.272 10.2725 73.8428 10.2725H69.2651V17.9629H67.2266ZM69.2651 8.50244H73.623C76.6016 8.50244 78.1763 7.77002 78.1763 5.3042V5.27979C78.1763 2.81396 76.5894 2.11816 73.6108 2.11816H69.2651V8.50244Z"
                                    fill="white" />
                                <path
                                    d="M94.5225 18.2983C89.0537 18.2983 85.416 14.4409 85.416 9.14307V9.13086C85.416 3.83301 89.0537 0 94.5225 0C100.003 0 103.653 3.83301 103.653 9.13086V9.14307C103.653 14.4409 100.003 18.2983 94.5225 18.2983ZM94.5225 16.5039C98.7827 16.5039 101.48 13.4766 101.48 9.14307V9.13086C101.48 4.79736 98.7827 1.79443 94.5225 1.79443C90.2622 1.79443 87.5889 4.79736 87.5889 9.13086V9.14307C87.5889 13.4766 90.2622 16.5039 94.5225 16.5039Z"
                                    fill="white" />
                                <path
                                    d="M115.801 18.2983C111.504 18.2983 109.05 16.1499 108.501 12.7563H110.637C111.162 15.332 112.859 16.5894 115.886 16.5894C118.389 16.5894 120.452 15.7104 120.452 13.501V13.4766C120.452 11.2671 118.779 10.6323 116.875 10.2173L113.494 9.47266C110.967 8.91113 108.989 7.50732 108.989 4.66309V4.62646C108.989 1.78223 111.76 0 115.312 0C119.023 0 121.392 1.70898 121.904 4.93164H119.78C119.219 2.56348 117.62 1.70898 115.19 1.70898C112.969 1.70898 111.089 2.64893 111.089 4.56543V4.60205C111.089 6.32324 112.285 7.20215 113.97 7.59277L117.363 8.37402C120.305 9.05762 122.551 10.0464 122.551 13.2324V13.269C122.551 16.5649 119.658 18.2983 115.801 18.2983Z"
                                    fill="white" />
                                <path
                                    d="M136.456 18.2983C130.829 18.2983 127.398 14.4287 127.398 9.15527V9.13086C127.398 3.85742 130.829 0 136.456 0C140.68 0 143.719 2.18506 144.684 5.88379H142.547C141.717 3.14941 139.264 1.79443 136.444 1.79443C132.037 1.79443 129.571 4.87061 129.571 9.13086V9.15527C129.571 13.4277 132.037 16.5039 136.444 16.5039C139.264 16.5039 141.717 15.1489 142.547 12.4146H144.684C143.719 16.1133 140.68 18.2983 136.456 18.2983Z"
                                    fill="white" />
                                <path
                                    d="M158.638 18.2983C153.169 18.2983 149.531 14.4409 149.531 9.14307V9.13086C149.531 3.83301 153.169 0 158.638 0C164.119 0 167.769 3.83301 167.769 9.13086V9.14307C167.769 14.4409 164.119 18.2983 158.638 18.2983ZM158.638 16.5039C162.898 16.5039 165.596 13.4766 165.596 9.14307V9.13086C165.596 4.79736 162.898 1.79443 158.638 1.79443C154.377 1.79443 151.704 4.79736 151.704 9.13086V9.14307C151.704 13.4766 154.377 16.5039 158.638 16.5039Z"
                                    fill="white" />
                                <path
                                    d="M172.615 17.9629V0.335938H178.78C183.26 0.335938 185.481 2.20361 185.481 5.59717V5.62158C185.481 8.99072 183.26 10.8462 178.78 10.8462H174.654V17.9629H172.615ZM174.654 9.07617H178.707C181.722 9.07617 183.309 8.0752 183.309 5.62158V5.59717C183.309 3.13135 181.722 2.11816 178.707 2.11816H174.654V9.07617Z"
                                    fill="white" />
                                <path d="M190.329 17.9629V0.335938H192.368V17.9629H190.329Z" fill="white" />
                                <path
                                    d="M206.272 18.2983C200.645 18.2983 197.215 14.4287 197.215 9.15527V9.13086C197.215 3.85742 200.645 0 206.272 0C210.496 0 213.536 2.18506 214.5 5.88379H212.364C211.534 3.14941 209.08 1.79443 206.26 1.79443C201.854 1.79443 199.388 4.87061 199.388 9.13086V9.15527C199.388 13.4277 201.854 16.5039 206.26 16.5039C209.08 16.5039 211.534 15.1489 212.364 12.4146H214.5C213.536 16.1133 210.496 18.2983 206.272 18.2983Z"
                                    fill="white" />
                                <path
                                    d="M4.25977 37.293L0.5 28.4551H1.64136L4.87622 36.1089H4.88232L8.12329 28.4551H9.15479L5.40112 37.293H4.25977Z"
                                    fill="white" />
                                <path
                                    d="M31.7754 37.2803V28.4668H37.5981V29.3579H32.7947V32.3608H37.1709V33.252H32.7947V36.3953H37.6104V37.2803H31.7754Z"
                                    fill="white" />
                                <path
                                    d="M60.2305 37.2803V28.4668H61.4207L66.3523 35.8459H66.3645L66.3584 32.666V28.4668H67.3533V37.2803H66.157L61.2253 29.9194H61.2131L61.2253 33.0994V37.2803H60.2305Z"
                                    fill="white" />
                                <path
                                    d="M93.2085 37.2803V29.364H89.9736V28.4668H97.4626V29.364H94.2339V37.2803H93.2085Z"
                                    fill="white" />
                                <path
                                    d="M123.586 37.3652C121.389 37.3652 120.083 36.3337 120.083 33.697V28.3809H121.108V33.697C121.108 35.7173 122.012 36.468 123.586 36.468C125.173 36.468 126.083 35.7173 126.083 33.697V28.3809H127.108V33.697C127.108 36.3337 125.796 37.3652 123.586 37.3652Z"
                                    fill="white" />
                                <path
                                    d="M149.729 37.2803V28.4668H152.951C155.014 28.4668 156.29 29.0405 156.29 30.7495V30.7617C156.29 31.9397 155.728 32.6111 154.703 32.9163C155.405 33.0811 155.905 33.3435 156.033 34.668L156.143 35.7666C156.259 36.9263 156.333 37.1033 156.4 37.2803H155.338C155.271 37.085 155.203 36.7737 155.161 36.3464L155.002 34.8633C154.868 33.5022 154.251 33.4351 153.037 33.4351H150.748V37.2803H149.729ZM150.748 32.55H152.927C154.416 32.55 155.203 32.1838 155.203 30.9509V30.9387C155.203 29.7058 154.41 29.3579 152.921 29.3579H150.748V32.55Z"
                                    fill="white" />
                                <path
                                    d="M179.02 37.2803V28.4668H184.842V29.3579H180.039V32.3608H184.415V33.252H180.039V36.3953H184.854V37.2803H179.02Z"
                                    fill="white" />
                                <path
                                    d="M211.125 37.448C208.976 37.448 207.749 36.3738 207.475 34.677H208.543C208.805 35.9648 209.654 36.5935 211.167 36.5935C212.418 36.5935 213.45 36.1541 213.45 35.0493V35.0371C213.45 33.9324 212.614 33.615 211.662 33.4075L209.971 33.0352C208.708 32.7544 207.719 32.0525 207.719 30.6304V30.6121C207.719 29.1899 209.104 28.2988 210.88 28.2988C212.736 28.2988 213.92 29.1533 214.176 30.7646H213.114C212.833 29.5806 212.034 29.1533 210.819 29.1533C209.708 29.1533 208.769 29.6233 208.769 30.5815V30.5999C208.769 31.4604 209.367 31.8999 210.209 32.0952L211.906 32.4858C213.377 32.8276 214.5 33.322 214.5 34.915V34.9333C214.5 36.5813 213.053 37.448 211.125 37.448Z"
                                    fill="white" />
                            </svg>