<?xml version="1.0" encoding="UTF-8"?>
<svg version="1.1" xmlns="http://www.w3.org/2000/svg" width="472" height="126">
<path d="M0 0 C155.76 0 311.52 0 472 0 C472 41.58 472 83.16 472 126 C316.24 126 160.48 126 0 126 C0 84.42 0 42.84 0 0 Z " fill="#FCFCFC" transform="translate(0,0)"/>
<path d="M0 0 C0.81162598 -0.00852997 1.62325195 -0.01705994 2.45947266 -0.02584839 C3.3462822 -0.02494202 4.23309174 -0.02403564 5.14677429 -0.02310181 C6.08367096 -0.02981903 7.02056763 -0.03653625 7.9858551 -0.04345703 C11.08992282 -0.06248881 14.19377487 -0.06636403 17.29789734 -0.06851196 C19.45400075 -0.07493694 21.61010328 -0.08166508 23.76620483 -0.08868408 C28.28972901 -0.10067028 32.81317675 -0.10436359 37.3367157 -0.10317993 C43.13070479 -0.10297682 48.92420296 -0.13026534 54.71807575 -0.16472435 C59.17307787 -0.18697368 63.62796155 -0.19101805 68.08301353 -0.18996048 C70.21883522 -0.19231992 72.35466 -0.2011627 74.49042702 -0.21662521 C77.48039101 -0.23624232 80.46929284 -0.23046334 83.45927429 -0.21841431 C84.34001114 -0.22965332 85.22074799 -0.24089233 86.12817383 -0.25247192 C91.71093275 -0.19536368 94.68405108 0.66600185 98.99711609 4.26742554 C101.32752985 7.23340669 101.29296563 10.36513788 101.45805359 14.07211304 C100.10548301 20.514017 94.15488731 25.40221576 89.67680359 29.85336304 C88.62699814 30.90603867 88.62699814 30.90603867 87.5559845 31.97998047 C86.0842286 33.45309132 84.60996815 34.92370373 83.13334656 36.39193726 C80.86552285 38.64898746 78.60864426 40.91659154 76.35258484 43.18539429 C74.91963251 44.61702617 73.48606051 46.04803814 72.05180359 47.47836304 C71.37471344 48.15950165 70.69762329 48.84064026 70.00001526 49.54241943 C69.05861191 50.4743663 69.05861191 50.4743663 68.09819031 51.42514038 C67.54621979 51.97551971 66.99424927 52.52589905 66.42555237 53.09295654 C64.99711609 54.26742554 64.99711609 54.26742554 62.99711609 54.26742554 C65.55922448 59.23924926 69.23685796 62.77190405 73.18461609 66.64242554 C73.86153503 67.31289917 74.53845398 67.9833728 75.23588562 68.67416382 C79.09769106 72.47654258 83.02505252 76.14973261 87.15727234 79.65805054 C100.56596898 91.38710152 100.56596898 91.38710152 101.43461609 99.20492554 C101.25705736 103.48247683 99.80725355 106.00159011 96.99711609 109.26742554 C92.49617442 112.81797639 88.49037636 112.70086065 83.00346375 112.67147827 C81.65861153 112.68177315 81.65861153 112.68177315 80.28659058 112.692276 C77.32795799 112.71055078 74.36985542 112.70670506 71.41117859 112.70101929 C69.35000944 112.70558119 67.28884181 112.71088679 65.22767639 112.71690369 C60.90857259 112.72583646 56.58965367 112.72341022 52.27055359 112.71347046 C46.74348043 112.70198853 41.21704689 112.72217978 35.69005775 112.7513876 C31.43316105 112.76976116 27.17641723 112.76945467 22.91949081 112.76375008 C20.88219176 112.76359696 18.84488228 112.76963314 16.807621 112.78204155 C13.95452899 112.79696903 11.10261345 112.78626093 8.2495575 112.76913452 C7.41296097 112.77880249 6.57636444 112.78847046 5.7144165 112.7984314 C0.0117692 112.72698322 -3.3702043 111.66628356 -8.00288391 108.26742554 C-11.7632558 103.98951155 -11.43526493 99.49195304 -11.40693665 94.0743103 C-11.4137999 93.15662872 -11.42066315 92.23894714 -11.42773438 91.29345703 C-11.44601021 88.26509047 -11.44216368 85.23724158 -11.43647766 82.20883179 C-11.4410391 80.10042655 -11.44634457 77.9920228 -11.45236206 75.88362122 C-11.46129474 71.46616574 -11.45886821 67.04889104 -11.44892883 62.63143921 C-11.43743955 56.97423696 -11.45764955 51.31765892 -11.48684597 45.66053867 C-11.50520387 41.30674789 -11.50491629 36.95310681 -11.49920845 32.59928703 C-11.49905518 30.51371319 -11.50510394 28.42812924 -11.51749992 26.34259224 C-11.53239993 23.42464314 -11.5217398 20.50784861 -11.5045929 17.5899353 C-11.51426086 16.73104202 -11.52392883 15.87214874 -11.53388977 14.98722839 C-11.46787461 9.61448015 -10.60226845 6.51151779 -7.00288391 2.26742554 C-3.97250466 0.24717271 -3.39525343 0.01614726 0 0 Z " fill="#5D5D5D" transform="translate(11.002883911132813,1.732574462890625)"/>
<path d="M0 0 C0.80824219 -0.0515625 1.61648438 -0.103125 2.44921875 -0.15625 C11.3452844 1.88268456 18.36107719 11.20500006 24.62890625 17.4453125 C25.69597157 18.50339527 26.76310637 19.56140797 27.83030701 20.61935425 C30.05014169 22.82280886 32.26564497 25.03052005 34.47875977 27.24072266 C37.31853255 30.07506723 40.17419672 32.89282349 43.03386021 35.70707893 C45.23580365 37.87936078 47.42648788 40.06272989 49.61414909 42.24938583 C50.66308399 43.29411072 51.71614667 44.33470797 52.77334785 45.37106705 C54.24318253 46.81416341 55.69651469 48.27208773 57.14672852 49.73486328 C57.97753433 50.56059845 58.80834015 51.38633362 59.6643219 52.23709106 C61.3125 54.5 61.3125 54.5 61.36186218 56.48554993 C59.88574425 59.31923874 57.94946434 61.23698412 55.68847656 63.49633789 C55.20868347 63.97978165 54.72889038 64.4632254 54.23455811 64.96131897 C52.64805586 66.55592013 51.05095875 68.13941587 49.453125 69.72265625 C48.34500885 70.83025359 47.23741112 71.93836983 46.13031006 73.04698181 C43.8080333 75.36916887 41.48067658 77.68610232 39.14941406 79.99926758 C36.16730102 82.95873346 33.19634336 85.92910015 30.22891617 88.90328312 C27.94214474 91.19340354 25.65039895 93.47849202 23.35704803 95.76202202 C22.26014336 96.85508747 21.16457193 97.94949259 20.07038116 99.04527473 C18.53649574 100.5795328 16.99624459 102.10710455 15.45410156 103.63305664 C14.5799762 104.50257462 13.70585083 105.37209259 12.80523682 106.26795959 C7.8113868 110.73954077 4.28530595 112.06165019 -2.3125 111.85546875 C-5.73155475 111.34373523 -7.41500658 110.0565551 -9.6875 107.5 C-11.32466188 104.71152417 -11.93924797 102.67598144 -11.95492554 99.45278931 C-11.96345551 98.65661697 -11.97198547 97.86044464 -11.98077393 97.04014587 C-11.97986755 96.17563309 -11.97896118 95.3111203 -11.97802734 94.42041016 C-11.98810318 93.04410683 -11.98810318 93.04410683 -11.99838257 91.63999939 C-12.01738308 88.6062987 -12.0212878 85.57281899 -12.0234375 82.5390625 C-12.02986395 80.42922881 -12.03659219 78.31939602 -12.04360962 76.20956421 C-12.05558749 71.78617283 -12.05928991 67.36285958 -12.05810547 62.93945312 C-12.05790224 57.27440376 -12.08520627 51.60985583 -12.11964989 45.94492531 C-12.14189911 41.58686019 -12.14594361 37.22891612 -12.14488602 32.87080002 C-12.14724488 30.78242642 -12.15608442 28.69404962 -12.17155075 26.60573196 C-12.19117054 23.68292482 -12.18538825 20.76120395 -12.17333984 17.83837891 C-12.18457886 16.97791458 -12.19581787 16.11745026 -12.20739746 15.23091125 C-12.15111112 9.85110622 -11.29406953 6.74895067 -7.6875 2.5 C-4.59815509 0.44043673 -3.56941334 0.13448339 0 0 Z " fill="#333333" transform="translate(11.6875,1.5)"/>
<path d="M0 0 C2.57816377 1.10769138 4.64890752 2.43260501 7 4 C7 3.01 7 2.02 7 1 C10.3 1 13.6 1 17 1 C17.09945752 6.12282759 17.17174409 11.24508354 17.21972656 16.36865234 C17.23974522 18.10866089 17.26696886 19.84860299 17.30175781 21.58837891 C17.35070952 24.10075346 17.37306587 26.61223275 17.390625 29.125 C17.41127014 29.89303955 17.43191528 30.6610791 17.45318604 31.45239258 C17.45548178 37.07666105 16.10241538 41.28720867 13 46 C8.69660796 50.19304865 4.65942103 52.07690106 -1.3125 52.3125 C-6.63122458 52.16205355 -11.46141404 51.19212882 -15.57421875 47.640625 C-18.51405156 44.37227219 -19.11375897 42.43120517 -20 38 C-16.7 37.34 -13.4 36.68 -10 36 C-9.34 37.32 -8.68 38.64 -8 40 C-4.90826248 41.54586876 -2.40570448 41.29359521 1 41 C3.52311011 39.39450853 3.52311011 39.39450853 5 37 C5 35.68 5 34.36 5 33 C4.01 33.66 3.02 34.32 2 35 C-3.22322537 35.70517642 -7.67917457 35.64840521 -12.4375 33.3125 C-16.20278052 29.91456392 -19.7614198 26.61264873 -20.23828125 21.390625 C-20.48756822 10.84184992 -20.48756822 10.84184992 -16 6 C-10.90911887 1.24677935 -7.12620388 -0.98513052 0 0 Z " fill="#373737" transform="translate(293,17)"/>
<path d="M0 0 C3.96 0 7.92 0 12 0 C13.65 6.27 15.3 12.54 17 19 C19.31 12.73 21.62 6.46 24 0 C27.96 0 31.92 0 36 0 C38.67767805 6.33717138 40.69328927 12.24866125 42 19 C42.66 19 43.32 19 44 19 C44.10957031 18.29875 44.21914063 17.5975 44.33203125 16.875 C45.32906005 10.90903906 46.68104379 5.58657632 49 0 C52.63 0 56.26 0 60 0 C56.37 11.88 52.74 23.76 49 36 C45.37 36 41.74 36 38 36 C36.82956003 32.70963048 35.66349466 29.41782464 34.5 26.125 C34.16613281 25.18785156 33.83226562 24.25070313 33.48828125 23.28515625 C33.01455078 21.94130859 33.01455078 21.94130859 32.53125 20.5703125 C32.23798828 19.74289551 31.94472656 18.91547852 31.64257812 18.06298828 C31 16 31 16 31 14 C30.34 14 29.68 14 29 14 C28.7525 15.2375 28.505 16.475 28.25 17.75 C24.83895706 33.16104294 24.83895706 33.16104294 22 36 C20.14712498 36.07226502 18.29166122 36.0838122 16.4375 36.0625 C15.42558594 36.05347656 14.41367187 36.04445312 13.37109375 36.03515625 C12.19740234 36.01775391 12.19740234 36.01775391 11 36 C9.42970152 31.19570674 7.86321853 26.39019297 6.30029297 21.58349609 C5.76781814 19.94773601 5.23429345 18.3123173 4.69970703 16.67724609 C3.93247079 14.32998716 3.16899111 11.98153537 2.40625 9.6328125 C2.16563843 8.89942657 1.92502686 8.16604065 1.67712402 7.41043091 C0 2.22774341 0 2.22774341 0 0 Z " fill="#373737" transform="translate(411,18)"/>
<path d="M0 0 C4.63048819 2.67981218 7.49982822 6.41475168 9.5625 11.3125 C10.2776077 17.46056878 10.27892176 23.15746336 6.5625 28.3125 C1.84905788 33.03732724 -2.41661562 36.59277624 -9.3125 36.625 C-15.22670272 36.48604663 -18.68222726 34.86367126 -23.125 30.9375 C-28.15995773 25.22214258 -29.10177518 21.0895117 -28.9140625 13.546875 C-28.05826767 7.73869369 -25.15252514 4.68308165 -20.8671875 0.94140625 C-14.75851795 -3.32285824 -6.59968358 -3.01664641 0 0 Z " fill="#373737" transform="translate(218.4375,18.6875)"/>
<path d="M0 0 C3.63145881 2.65716499 6.54932139 5.53689551 8.375 9.75 C8.67169247 13.11251466 8.5625 16.49942135 8.5625 19.875 C0.3125 19.875 -7.9375 19.875 -16.4375 19.875 C-15.10186384 24.81963635 -15.10186384 24.81963635 -12.4375 25.875 C-10.73047265 25.94496014 -9.02081997 25.95940154 -7.3125 25.9375 C-6.40242188 25.92847656 -5.49234375 25.91945313 -4.5546875 25.91015625 C-3.85601562 25.89855469 -3.15734375 25.88695313 -2.4375 25.875 C-2.1075 24.885 -1.7775 23.895 -1.4375 22.875 C1.5325 23.535 4.5025 24.195 7.5625 24.875 C7.34104028 28.75054506 6.62536207 29.8149318 3.75 32.5625 C-2.08988353 36.79927825 -6.2574745 37.72796544 -13.4375 36.875 C-19.05064723 35.2503976 -22.35290328 32.39019975 -25.52734375 27.55859375 C-28.63028293 21.81882213 -28.10116412 15.21734396 -26.375 9.125 C-20.40179093 -0.89457651 -11.04029219 -3.61318653 0 0 Z " fill="#383838" transform="translate(401.4375,18.125)"/>
<path d="M0 0 C5.03236504 2.42299057 6.88727344 4.91833464 9 10 C9.34057617 13.15966797 9.34057617 13.15966797 9.29296875 16.4921875 C9.2784668 18.29042969 9.2784668 18.29042969 9.26367188 20.125 C9.23853516 21.3625 9.21339844 22.6 9.1875 23.875 C9.16719727 25.76605469 9.16719727 25.76605469 9.14648438 27.6953125 C9.11123725 30.79705907 9.05743361 33.89858492 9 37 C5.04 37 1.08 37 -3 37 C-3.495 24.625 -3.495 24.625 -4 12 C-6.31 11.67 -8.62 11.34 -11 11 C-13.60088622 13.60088622 -13.29962225 14.82137113 -13.4140625 18.4453125 C-13.47207031 20.05986328 -13.47207031 20.05986328 -13.53125 21.70703125 C-13.5621875 22.83496094 -13.593125 23.96289062 -13.625 25.125 C-13.68300781 26.82849609 -13.68300781 26.82849609 -13.7421875 28.56640625 C-13.83667233 31.37732987 -13.91943321 34.18864304 -14 37 C-17.63 37 -21.26 37 -25 37 C-25 25.12 -25 13.24 -25 1 C-21.7 1 -18.4 1 -15 1 C-15 1.99 -15 2.98 -15 4 C-14.34 4 -13.68 4 -13 4 C-13 3.34 -13 2.68 -13 2 C-8.6586504 -0.45551448 -4.89717776 -0.68016358 0 0 Z " fill="#3C3C3C" transform="translate(259,17)"/>
<path d="M0 0 C3.96 0 7.92 0 12 0 C12 13.53 12 27.06 12 41 C19.26 41 26.52 41 34 41 C34 44.96 34 48.92 34 53 C22.78 53 11.56 53 0 53 C0 35.51 0 18.02 0 0 Z " fill="#3F3F3F" transform="translate(153,1)"/>
<path d="M0 0 C1.98 0 3.96 0 6 0 C6.33 0.99 6.66 1.98 7 3 C7.474375 2.505 7.94875 2.01 8.4375 1.5 C12.253805 -0.73393463 15.68179392 -0.65972593 20 0 C24.04258576 1.87156748 25.61840231 3.35128392 27.875 7.1875 C29.44026795 12.49201916 30.22788593 17.04903134 28.05078125 22.28125 C26.26738522 25.38672195 24.70797216 27.54077482 21.6875 29.5 C16.21985904 30.51723553 12.11134769 30.55567384 7 28 C6.67 32.29 6.34 36.58 6 41 C4.02 41 2.04 41 0 41 C0 27.47 0 13.94 0 0 Z " fill="#404040" transform="translate(412,84)"/>
<path d="M0 0 C21.73529412 0 21.73529412 0 27.3125 5.125 C29.66805832 9.13817343 29.66964915 12.45299959 29 17 C27.69393422 20.33772367 26.45870214 21.64993784 23.625 23.8125 C18.0501142 25.63875569 12.84877923 25.17904426 7 25 C7 30.94 7 36.88 7 43 C4.69 43 2.38 43 0 43 C0 28.81 0 14.62 0 0 Z " fill="#414141" transform="translate(153,71)"/>
<path d="M0 0 C3.96 0 7.92 0 12 0 C14.64 6.6 17.28 13.2 20 20 C22.31 13.4 24.62 6.8 27 0 C30.96 0 34.92 0 39 0 C27.50695518 33.49304482 27.50695518 33.49304482 25 36 C23.14712498 36.07226502 21.29166122 36.0838122 19.4375 36.0625 C18.42558594 36.05347656 17.41367187 36.04445312 16.37109375 36.03515625 C15.19740234 36.01775391 15.19740234 36.01775391 14 36 C12.0017042 31.19634591 10.00799416 26.39082482 8.01855469 21.58349609 C7.34078419 19.94755436 6.66175206 18.31213475 5.98144531 16.67724609 C5.00515792 14.33045614 4.03338758 11.98184063 3.0625 9.6328125 C2.75626709 8.89942657 2.45003418 8.16604065 2.13452148 7.41043091 C0 2.22774341 0 2.22774341 0 0 Z " fill="#373737" transform="translate(314,18)"/>
<path d="M0 0 C4.83763525 2.32923179 7.63619663 5.18147775 10 10 C10.90866304 15.68680129 10.17922718 20.1176154 7 25 C4.1463776 28.2995009 2.16115335 29.7730975 -2.26953125 30.23828125 C-8.04295046 30.4067835 -11.57781849 30.1063114 -16 26 C-19.18686762 22.06621028 -20.73569456 18.24185731 -20.453125 13.0546875 C-19.36522329 8.12161594 -16.48170021 4.35469733 -12.8125 1 C-8.50641427 -0.5310527 -4.51255311 -0.64465044 0 0 Z " fill="#3C3C3C" transform="translate(397,84)"/>
<path d="M0 0 C3.11593195 1.69902929 5.38899662 3.77799325 7 7 C7.08449628 8.7404417 7.10723024 10.48409722 7.09765625 12.2265625 C7.09443359 13.2578125 7.09121094 14.2890625 7.08789062 15.3515625 C7.07951172 16.43179688 7.07113281 17.51203125 7.0625 18.625 C7.05798828 19.71296875 7.05347656 20.8009375 7.04882812 21.921875 C7.03701776 24.61463789 7.02054778 27.30729188 7 30 C4.625 30.125 4.625 30.125 2 30 C1.34 29.34 0.68 28.68 0 28 C-0.495 28.33 -0.99 28.66 -1.5 29 C-5.00274552 30.40109821 -8.31190002 30.61468333 -12 30 C-14.8100346 28.20636089 -16.50940468 26.98119065 -18 24 C-18.4375 21.1875 -18.4375 21.1875 -18 18 C-13.20587664 12.1405159 -7.23995912 11.78491466 0 11 C-0.33 9.35 -0.66 7.7 -1 6 C-5.02130715 5.72364839 -5.02130715 5.72364839 -9 6 C-11.05270463 7.84188612 -11.05270463 7.84188612 -12 10 C-13.65 9.67 -15.3 9.34 -17 9 C-16.80037128 5.40668306 -16.21261372 4.20171045 -13.5625 1.6875 C-8.90495879 -0.51870373 -5.06959699 -0.97776668 0 0 Z " fill="#3C3C3C" transform="translate(262,84)"/>
<path d="M0 0 C1.98 0 3.96 0 6 0 C6.33 5.28 6.66 10.56 7 16 C7.99 15.34 8.98 14.68 10 14 C14.59271203 13.26034975 18.02462089 13.39038806 22 15.875 C25.10218527 19.17107185 25.12098232 21.0133583 25.09765625 25.4453125 C25.09443359 26.52167969 25.09121094 27.59804687 25.08789062 28.70703125 C25.07951172 29.83496094 25.07113281 30.96289062 25.0625 32.125 C25.05798828 33.26066406 25.05347656 34.39632812 25.04882812 35.56640625 C25.03701615 38.37765638 25.02054507 41.1888023 25 44 C23.02 44 21.04 44 19 44 C18.505 32.12 18.505 32.12 18 20 C10.57479754 19.12777421 10.57479754 19.12777421 8.03198242 21.70214844 C6.90180169 24.21865211 6.57646489 26.01429541 6.48828125 28.765625 C6.45283203 29.65507813 6.41738281 30.54453125 6.38085938 31.4609375 C6.35830078 32.38132813 6.33574219 33.30171875 6.3125 34.25 C6.27833984 35.18585938 6.24417969 36.12171875 6.20898438 37.0859375 C6.12667838 39.39050533 6.0574737 41.69470119 6 44 C4.02 44 2.04 44 0 44 C0 29.48 0 14.96 0 0 Z " fill="#414141" transform="translate(327,70)"/>
<path d="M0 0 C1.65 0 3.3 0 5 0 C5 5.61 5 11.22 5 17 C6.32 16.01 7.64 15.02 9 14 C12.76094804 13.17942952 16.45114687 13.16130567 19.8828125 15.01953125 C22.55276445 17.15420298 23.91331582 18.73994747 25 22 C25.08178114 23.70016844 25.10749501 25.40336297 25.09765625 27.10546875 C25.09443359 28.08837891 25.09121094 29.07128906 25.08789062 30.08398438 C25.07951172 31.10814453 25.07113281 32.13230469 25.0625 33.1875 C25.05798828 34.22326172 25.05347656 35.25902344 25.04882812 36.32617188 C25.0370401 38.88417266 25.02058515 41.44205733 25 44 C23.02 44 21.04 44 19 44 C18.98541748 43.37955811 18.97083496 42.75911621 18.95581055 42.11987305 C18.88133412 39.30845367 18.78467436 36.49822251 18.6875 33.6875 C18.66494141 32.71103516 18.64238281 31.73457031 18.61914062 30.72851562 C18.5659668 29.32182617 18.5659668 29.32182617 18.51171875 27.88671875 C18.48553467 27.02264404 18.45935059 26.15856934 18.43237305 25.26831055 C17.91343048 22.54583999 17.21188978 21.63257755 15 20 C12 19.41666667 12 19.41666667 9 20 C6.10327051 22.49765512 5.76056939 24.9031049 5.48828125 28.546875 C5.41548657 30.28071202 5.35734304 32.01521501 5.3125 33.75 C5.27833984 34.63816406 5.24417969 35.52632812 5.20898438 36.44140625 C5.12671286 38.62747803 5.05749828 40.81315951 5 43 C3.35 43 1.7 43 0 43 C0 28.81 0 14.62 0 0 Z " fill="#3A3A3A" transform="translate(187,70)"/>
<path d="M0 0 C0.33 0 0.66 0 1 0 C1 13.53 1 27.06 1 41 C-5.27 41 -11.54 41 -18 41 C-17.08585263 36.42926315 -15.67517277 32.7969329 -13.69140625 28.65234375 C-13.36462387 27.95863174 -13.03784149 27.26491974 -12.70115662 26.55018616 C-11.66009758 24.34347502 -10.61137746 22.14050392 -9.5625 19.9375 C-8.86083124 18.45270867 -8.1596542 16.96768486 -7.45898438 15.48242188 C-2.1345987 4.21276167 -2.1345987 4.21276167 0 0 Z " fill="#FCFCFC" transform="translate(471,85)"/>
<path d="M0 0 C3.63 0 7.26 0 11 0 C11 11.88 11 23.76 11 36 C7.37 36 3.74 36 0 36 C0 24.12 0 12.24 0 0 Z " fill="#363636" transform="translate(357,18)"/>
<path d="M0 0 C1.98 0 3.96 0 6 0 C6.96087136 1.89454824 7.91858969 3.79069581 8.875 5.6875 C9.40867187 6.74324219 9.94234375 7.79898438 10.4921875 8.88671875 C11.78688105 11.55995905 12.94023254 14.2271133 14 17 C16.74054368 13.67513619 18.42376049 10.16942114 20.1875 6.25 C20.71730469 5.07953125 21.24710937 3.9090625 21.79296875 2.703125 C22.19128906 1.81109375 22.58960938 0.9190625 23 0 C24.98 0 26.96 0 29 0 C25.60615507 8.86942624 21.67928435 17.48454341 17.75 26.125 C17.09354869 27.57282541 16.4372972 29.02074143 15.78125 30.46875 C14.18979933 33.98021452 12.59565792 37.49044544 11 41 C9.02 41 7.04 41 5 41 C5.57986549 37.03751201 6.87894721 34.37603366 8.88671875 30.94140625 C10.49747341 27.48747066 11.15536736 25.75173431 10.37744141 21.98779297 C9.02916251 18.84147008 7.50502525 15.9124164 5.8125 12.9375 C4.7338243 10.90593058 3.65690604 8.87342673 2.58203125 6.83984375 C2.08936768 5.95675537 1.5967041 5.07366699 1.08911133 4.16381836 C0 2 0 2 0 0 Z " fill="#3C3C3C" transform="translate(442,85)"/>
<path d="M0 0 C3.52185256 1.97678176 5.69957163 4.0987149 7 8 C7.08178114 9.70016844 7.10749501 11.40336297 7.09765625 13.10546875 C7.09443359 14.08837891 7.09121094 15.07128906 7.08789062 16.08398438 C7.07951172 17.10814453 7.07113281 18.13230469 7.0625 19.1875 C7.05798828 20.22326172 7.05347656 21.25902344 7.04882812 22.32617188 C7.0370401 24.88417266 7.02058515 27.44205733 7 30 C5.02 30 3.04 30 1 30 C0.98541748 29.37955811 0.97083496 28.75911621 0.95581055 28.11987305 C0.88133412 25.30845367 0.78467436 22.49822251 0.6875 19.6875 C0.66494141 18.71103516 0.64238281 17.73457031 0.61914062 16.72851562 C0.5659668 15.32182617 0.5659668 15.32182617 0.51171875 13.88671875 C0.48553467 13.02264404 0.45935059 12.15856934 0.43237305 11.26831055 C-0.08656952 8.54583999 -0.78811022 7.63257755 -3 6 C-6 5.41666667 -6 5.41666667 -9 6 C-11.89672949 8.49765512 -12.23943061 10.9031049 -12.51171875 14.546875 C-12.58451343 16.28071202 -12.64265696 18.01521501 -12.6875 19.75 C-12.72166016 20.63816406 -12.75582031 21.52632812 -12.79101562 22.44140625 C-12.87328714 24.62747803 -12.94250172 26.81315951 -13 29 C-14.65 29 -16.3 29 -18 29 C-18 19.76 -18 10.52 -18 1 C-16.35 1 -14.7 1 -13 1 C-12.67 1.66 -12.34 2.32 -12 3 C-11.505 2.505 -11.01 2.01 -10.5 1.5 C-7.03279808 -0.58032115 -3.88669204 -0.8131467 0 0 Z " fill="#3B3B3B" transform="translate(294,84)"/>
<path d="M0 0 C3.58341327 0.93920106 4.94051801 2.44993383 6.9375 5.5078125 C7.76994577 9.93418281 7.43747008 13.41696869 5.5625 17.5078125 C3.12399214 20.50905294 2.08543955 20.49083583 -1.875 20.9453125 C-5.54669817 20.88512073 -6.02421887 20.53971344 -9.0625 18.0078125 C-11.20869836 14.91261486 -11.81239027 12.21683724 -11.5390625 8.4765625 C-10.08570704 2.47253666 -6.14786249 -0.53560923 0 0 Z " fill="#FAFAFA" transform="translate(394.0625,88.4921875)"/>
<path d="M0 0 C1.65 0 3.3 0 5 0 C5 3.3 5 6.6 5 10 C6.98 10 8.96 10 11 10 C11 11.32 11 12.64 11 14 C9.02 14 7.04 14 5 14 C5.33 19.94 5.66 25.88 6 32 C7.98 32.33 9.96 32.66 12 33 C12 34.98 12 36.96 12 39 C7.88854671 39.40308366 5.71993007 39.50477856 2.28125 37.09375 C-0.91389486 32.76060834 -0.56597003 29.41678162 -0.3125 24.1875 C-0.27866211 22.86202148 -0.27866211 22.86202148 -0.24414062 21.50976562 C-0.18547428 19.3391109 -0.09579979 17.1693331 0 15 C-1.98 15 -3.96 15 -6 15 C-6 13.35 -6 11.7 -6 10 C-4.35 9.34 -2.7 8.68 -1 8 C-0.67 5.36 -0.34 2.72 0 0 Z " fill="#3D3D3D" transform="translate(310,75)"/>
<path d="M0 0 C4.49524833 0.88299521 5.93952397 1.88558105 8.5 5.6875 C9.33966695 10.10974596 8.99810915 13.60071641 7.125 17.6875 C5.5 19.6875 5.5 19.6875 3.5 20.6875 C-2.74259681 21.26551822 -2.74259681 21.26551822 -5.875 18.875 C-8.79277104 14.9472313 -8.98587074 11.46522893 -8.5 6.6875 C-6.56891485 2.7214148 -4.41210238 0.86666297 0 0 Z " fill="#FAFAFA" transform="translate(426.5,88.3125)"/>
<path d="M0 0 C1.98 0 3.96 0 6 0 C6 14.52 6 29.04 6 44 C4.02 44 2.04 44 0 44 C0 29.48 0 14.96 0 0 Z " fill="#3D3D3D" transform="translate(232,70)"/>
<path d="M0 0 C4.5021067 0.78984328 5.94681879 1.89963585 8.5625 5.625 C9.07201861 9.77393725 9.10916957 13.18699608 6.5625 16.625 C3.88616974 18.7065902 2.44496332 18.62087591 -1 18.5 C-4.4375 17.625 -4.4375 17.625 -6.375 16.0625 C-7.90265217 12.55788621 -8.08504204 9.34100829 -7.4375 5.625 C-5.38739561 1.68879957 -4.38967409 0.79812256 0 0 Z " fill="#F8F8F8" transform="translate(208.4375,26.375)"/>
<path d="M0 0 C12.59717314 -0.27385159 12.59717314 -0.27385159 16 2 C17.52491998 5.04983996 17.23562548 7.6423369 17 11 C15.45737187 13.10358381 14.31891683 13.84054159 12 15 C9.95944995 15.07065617 7.91665743 15.08421976 5.875 15.0625 C3.93625 15.041875 1.9975 15.02125 0 15 C0 10.05 0 5.1 0 0 Z " fill="#F2F2F2" transform="translate(159,76)"/>
<path d="M0 0 C33.99 0 67.98 0 103 0 C103 0.66 103 1.32 103 2 C101.80840775 2.00142502 100.61681549 2.00285004 99.38911438 2.00431824 C88.16206591 2.02098428 76.93538008 2.06374605 65.70852375 2.13209057 C59.93657034 2.16638827 54.16488241 2.19147492 48.39282227 2.19555664 C42.8229058 2.19983354 37.25358847 2.2282464 31.68385887 2.27343178 C29.5584277 2.28642614 27.43292489 2.29070763 25.30745888 2.28615379 C22.33102263 2.28126172 19.35634688 2.30727907 16.38012695 2.34057617 C15.06058517 2.32763771 15.06058517 2.32763771 13.71438599 2.31443787 C9.3046303 2.39719183 7.56681191 2.5375145 4.03874207 5.41621399 C3.36595718 6.26886337 2.6931723 7.12151276 2 8 C1.34 8.66 0.68 9.32 0 10 C0 6.7 0 3.4 0 0 Z " fill="#E5E5E5" transform="translate(0,0)"/>
<path d="M0 0 C1.36125 0.12375 1.36125 0.12375 2.75 0.25 C2.75 2.23 2.75 4.21 2.75 6.25 C0.73177083 6.640625 -1.28645833 7.03125 -3.3046875 7.421875 C-5.33067474 8.10205341 -5.33067474 8.10205341 -6.46875 9.78125 C-7.63954502 13.48096225 -7.72136557 17.13993498 -7.875 21 C-7.91367187 21.79277344 -7.95234375 22.58554688 -7.9921875 23.40234375 C-8.086108 25.35119416 -8.16912822 27.30056451 -8.25 29.25 C-9.9 29.25 -11.55 29.25 -13.25 29.25 C-13.25 20.01 -13.25 10.77 -13.25 1.25 C-11.6 1.25 -9.95 1.25 -8.25 1.25 C-7.92 2.24 -7.59 3.23 -7.25 4.25 C-6.71375 3.59 -6.1775 2.93 -5.625 2.25 C-3.25 0.25 -3.25 0.25 0 0 Z " fill="#373737" transform="translate(373.25,83.75)"/>
<path d="M0 0 C2.4375 1.5 2.4375 1.5 4 4 C4.61014545 6.8089715 4.65360928 9.19636021 4 12 C1.9375 14.5625 1.9375 14.5625 -1 16 C-4.77910616 16 -7.00693033 15.83289714 -9.9375 13.375 C-11.43699866 10.02317947 -11.45377473 7.63019782 -11 4 C-8.11188513 -0.5054592 -5.11821063 -0.73117295 0 0 Z " fill="#F8F8F8" transform="translate(295,27)"/>
<path d="M0 0 C1.65 0 3.3 0 5 0 C5 9.24 5 18.48 5 28 C3.35 28 1.7 28 0 28 C0 18.76 0 9.52 0 0 Z " fill="#333333" transform="translate(219,85)"/>
<path d="M0 0 C2.60964149 1.03012164 3.83498357 1.58694861 5.375 3.9375 C5.76865568 7.08674548 5.90354531 9.05659116 4.25 11.8125 C1.45053259 13.49218045 -0.42304064 13.39492277 -3.625 12.9375 C-6.41006308 10.95863939 -7.43584752 9.77817767 -8.1875 6.4375 C-7.625 3.9375 -7.625 3.9375 -5.4375 1.5625 C-2.625 -0.0625 -2.625 -0.0625 0 0 Z " fill="#3D3D3D" transform="translate(363.625,0.0625)"/>
<path d="M0 0 C-0.48 6.36 -0.48 6.36 -2.625 9 C-6.01592758 10.42775898 -8.473747 9.79839691 -12 9 C-13 8 -13 8 -13.0625 5.4375 C-13.041875 4.633125 -13.02125 3.82875 -13 3 C-8.37802694 0.78145293 -5.23175837 -0.38281159 0 0 Z " fill="#EFEFEF" transform="translate(263,100)"/>
<path d="M0 0 C2.68636205 0.06825602 3.78157595 0.12814359 6.0625 1.625 C7.0625 3.3125 7.0625 3.3125 7.0625 6.3125 C2.4425 6.3125 -2.1775 6.3125 -6.9375 6.3125 C-5.63502704 1.10260817 -5.39081895 0.42784277 0 0 Z " fill="#E7E7E7" transform="translate(391.9375,25.6875)"/>
<path d="M0 0 C2.5625 0.1875 2.5625 0.1875 4.5625 2.1875 C4.19568342 5.12203261 3.69812754 6.05187246 1.5625 8.1875 C-1.97321429 7.65178571 -1.97321429 7.65178571 -3.4375 6.1875 C-3.5625 3.6875 -3.5625 3.6875 -3.4375 1.1875 C-2.4375 0.1875 -2.4375 0.1875 0 0 Z " fill="#3E3E3E" transform="translate(221.4375,69.8125)"/>
</svg>
