<?xml version="1.0" encoding="UTF-8"?>
<svg version="1.1" xmlns="http://www.w3.org/2000/svg" width="500" height="283">
<path d="M0 0 C165 0 330 0 500 0 C500 93.39 500 186.78 500 283 C335 283 170 283 0 283 C0 189.61 0 96.22 0 0 Z " fill="#FDFDFD" transform="translate(0,0)"/>
<path d="M0 0 C57.42 0 114.84 0 174 0 C174 12.54 174 25.08 174 38 C116.58 38 59.16 38 0 38 C0 25.46 0 12.92 0 0 Z " fill="#4B4B4B" transform="translate(19,18)"/>
<path d="M0 0 C5.4759375 -0.0928125 5.4759375 -0.0928125 11.0625 -0.1875 C12.76805054 -0.22846802 12.76805054 -0.22846802 14.50805664 -0.27026367 C21.30409733 -0.32582691 26.61609419 0.05272719 31.9375 4.6875 C33.50445003 8.09792066 33.56347012 11.3518922 33 15 C31.5 18 31.5 18 30 20 C30.66 20.61875 31.32 21.2375 32 21.875 C34.79349583 26.23983723 34.952976 29.94438155 34 35 C32.09704729 38.61706278 29.93956929 40.68681024 26 42 C24.0079697 42.08291953 22.01326287 42.10738177 20.01953125 42.09765625 C18.97128174 42.09515869 17.92303223 42.09266113 16.84301758 42.09008789 C15.51294678 42.08098389 14.18287598 42.07187988 12.8125 42.0625 C8.584375 42.041875 4.35625 42.02125 0 42 C0 28.14 0 14.28 0 0 Z " fill="#060606" transform="translate(193,95)"/>
<path d="M0 0 C4.29 0 8.58 0 13 0 C13.98174259 4.04105667 14.96048594 8.08279996 15.9375 12.125 C16.35418945 13.83816406 16.35418945 13.83816406 16.77929688 15.5859375 C17.04677734 16.69453125 17.31425781 17.803125 17.58984375 18.9453125 C17.83597412 19.96125488 18.08210449 20.97719727 18.33569336 22.02392578 C19.00095327 25.00427063 19.52614364 27.98383543 20 31 C20.24234375 30.01902344 20.4846875 29.03804687 20.734375 28.02734375 C23.05817769 18.65732243 25.48254689 9.31993279 28 0 C32.29 0 36.58 0 41 0 C41 14.19 41 28.38 41 43 C38.03 43 35.06 43 32 43 C31.505 29.14 31.505 29.14 31 15 C29.02 23.91 27.04 32.82 25 42 C21.7 42 18.4 42 15 42 C14.78065796 40.88757935 14.78065796 40.88757935 14.55688477 39.75268555 C13.89410006 36.39722298 13.22833576 33.04235841 12.5625 29.6875 C12.33240234 28.52025391 12.10230469 27.35300781 11.86523438 26.15039062 C11.64287109 25.03212891 11.42050781 23.91386719 11.19140625 22.76171875 C10.98717041 21.73006592 10.78293457 20.69841309 10.57250977 19.63549805 C10.03026149 16.91139314 10.03026149 16.91139314 9 14 C8.67 23.57 8.34 33.14 8 43 C5.36 43 2.72 43 0 43 C0 28.81 0 14.62 0 0 Z " fill="#0E0E0E" transform="translate(23,95)"/>
<path d="M0 0 C2.97 0 5.94 0 9 0 C9 14.19 9 28.38 9 43 C6.36 43 3.72 43 1 43 C0.67 42.01 0.34 41.02 0 40 C-0.474375 40.495 -0.94875 40.99 -1.4375 41.5 C-5.24221805 43.72715203 -8.69290935 43.54705445 -13 43 C-16.62976394 41.6585655 -17.71858603 40.43667685 -19.8125 37.1875 C-22.06153231 31.13837863 -22.43340568 22.89970662 -20.203125 16.83203125 C-18.50120382 14.18096172 -16.62081026 12.74720684 -14 11 C-11.625 10.734375 -11.625 10.734375 -9 10.75 C-8.13375 10.74484375 -7.2675 10.7396875 -6.375 10.734375 C-4 11 -4 11 -1 13 C-0.67 8.71 -0.34 4.42 0 0 Z " fill="#0E0E0E" transform="translate(463,95)"/>
<path d="M0 0 C2.64 0 5.28 0 8 0 C8 13.86 8 27.72 8 42 C5.36 42 2.72 42 0 42 C-0.33 41.34 -0.66 40.68 -1 40 C-1.99 40.66 -2.98 41.32 -4 42 C-8.65929212 42.67915105 -12.71667376 42.65531553 -16.9375 40.5 C-21.44434505 35.03715752 -22.531905 29.32291553 -22.28515625 22.328125 C-21.72874644 17.78538188 -19.87995979 15.01328704 -16.9375 11.625 C-12.73650993 9.30104805 -8.71185778 9.31318683 -4 10 C-3.01 10.66 -2.02 11.32 -1 12 C-0.67 8.04 -0.34 4.08 0 0 Z " fill="#0B0B0B" transform="translate(144,96)"/>
<path d="M0 0 C4.55730319 1.99881719 7.0904819 4.71334661 9.3046875 9.0859375 C11.21270366 14.33834154 10.33530936 18.72567769 8.375 23.75 C6.26653454 27.95966034 4.47981047 30.16007784 0 32 C-5.61031912 32.73211582 -10.32387021 32.77820312 -15.5 30.375 C-20.3143755 25.80134327 -22.25156236 22.6912538 -22.5 16 C-22.26781777 9.53092283 -20.43609166 6.3087698 -15.7578125 1.875 C-10.91176722 -1.41976166 -5.63944984 -0.68895042 0 0 Z " fill="#080808" transform="translate(84,161)"/>
<path d="M0 0 C4.04425974 1.49279644 6.76400089 4.35179092 9 8 C10.67652353 13.02957058 11.07699578 18.33655815 9.05859375 23.328125 C6.61755305 27.4602942 4.39343547 29.87332254 0 32 C-5.54808604 32.82885269 -10.47140883 32.7240695 -15.5625 30.3125 C-20.41763272 25.70634844 -21.78004814 21.68341266 -22.3125 15.1875 C-22.24192727 10.45030534 -20.73678176 7.84628789 -18 4 C-12.55064657 -1.27846778 -7.22988684 -0.90941973 0 0 Z " fill="#0A0A0A" transform="translate(237,161)"/>
<path d="M0 0 C9.24 0 18.48 0 28 0 C28 9.24 28 18.48 28 28 C18.76 28 9.52 28 0 28 C0 18.76 0 9.52 0 0 Z " fill="#4B4B4B" transform="translate(25,236)"/>
<path d="M0 0 C2.76754915 1.70268054 4.3381657 3.37987591 5.94921875 6.19921875 C6.69921875 9.51171875 6.69921875 9.51171875 6.94921875 12.19921875 C3.89897011 12.48697806 0.987418 12.65332682 -2.05078125 12.19921875 C-3.98828125 9.76171875 -3.98828125 9.76171875 -5.05078125 7.19921875 C-8.25566094 5.59677891 -11.58387962 5.56762479 -15.05078125 6.19921875 C-19.37983568 10.41727178 -20.23531256 13.54918882 -20.36328125 19.44921875 C-20.33202369 25.10058596 -19.93383719 28.08774776 -16.05078125 32.19921875 C-12.95904373 33.74508751 -10.45648573 33.49281396 -7.05078125 33.19921875 C-4.14361052 30.98058846 -3.21096482 29.67976946 -2.05078125 26.19921875 C0.91921875 26.19921875 3.88921875 26.19921875 6.94921875 26.19921875 C6.69923838 31.32381639 4.92514792 33.93260678 1.71484375 37.68359375 C-3.19174487 41.89544416 -8.78588992 41.6199703 -14.94921875 41.515625 C-20.27467931 40.97234754 -22.75356567 38.56850186 -26.30078125 34.82421875 C-30.91926199 27.89649764 -30.79586341 20.24794575 -30.05078125 12.19921875 C-28.2702569 6.01069356 -24.38557918 1.14451754 -18.80078125 -2.11328125 C-11.96239977 -3.82287662 -6.31037446 -3.13866792 0 0 Z " fill="#070707" transform="translate(50.05078125,151.80078125)"/>
<path d="M0 0 C1.54300781 -0.03867188 1.54300781 -0.03867188 3.1171875 -0.078125 C7.48657798 0.39853578 10.0621613 2.1871613 13.125 5.25 C13.42797852 7.63256836 13.42797852 7.63256836 13.50390625 10.58984375 C13.55514648 12.1840918 13.55514648 12.1840918 13.60742188 13.81054688 C13.63384766 14.92494141 13.66027344 16.03933594 13.6875 17.1875 C13.74742224 19.38422385 13.81105576 21.58085049 13.87890625 23.77734375 C13.90283447 24.75437256 13.9267627 25.73140137 13.95141602 26.73803711 C14.028626 29.37766901 14.028626 29.37766901 15.125 32.25 C13.66757537 32.33096803 12.20887193 32.38917774 10.75 32.4375 C9.93789063 32.47230469 9.12578125 32.50710937 8.2890625 32.54296875 C7.57492187 32.44628906 6.86078125 32.34960938 6.125 32.25 C5.465 31.26 4.805 30.27 4.125 29.25 C3.485625 29.745 2.84625 30.24 2.1875 30.75 C-1.92869213 32.76609411 -5.370833 33.09707661 -9.875 32.25 C-12.92567422 30.25772296 -14.46926669 28.91317126 -15.34765625 25.3125 C-15.63222136 21.45992621 -15.12836542 19.6259616 -12.9375 16.375 C-9.01441699 13.65286077 -5.52776505 12.97357648 -0.875 12.25 C0.135625 12.04375 1.14625 11.8375 2.1875 11.625 C2.826875 11.50125 3.46625 11.3775 4.125 11.25 C3.795 9.93 3.465 8.61 3.125 7.25 C-0.29142759 6.99984127 -0.29142759 6.99984127 -3.875 7.25 C-4.865 8.735 -4.865 8.735 -5.875 10.25 C-7.8203125 10.54296875 -7.8203125 10.54296875 -10 10.4375 C-11.918125 10.3446875 -11.918125 10.3446875 -13.875 10.25 C-13.39653935 5.94385411 -12.21573619 4.00119451 -8.875 1.25 C-5.71490467 0.19663489 -3.3196864 0.04967112 0 0 Z " fill="#090909" transform="translate(386.875,105.75)"/>
<path d="M0 0 C4.63513514 2.27027027 4.63513514 2.27027027 6 5 C6.14127771 6.78854665 6.22594589 8.58173483 6.28125 10.375 C6.31863281 11.44234375 6.35601562 12.5096875 6.39453125 13.609375 C6.46484375 15.86979167 6.53515625 18.13020833 6.60546875 20.390625 C6.64285156 21.45796875 6.68023437 22.5253125 6.71875 23.625 C6.74904297 24.60726562 6.77933594 25.58953125 6.81054688 26.6015625 C6.85002069 29.01286912 6.85002069 29.01286912 8 31 C5.03 31 2.06 31 -1 31 C-1.33 30.34 -1.66 29.68 -2 29 C-2.61875 29.495 -3.2375 29.99 -3.875 30.5 C-8.27699305 32.61295666 -12.20504121 32.96685235 -17 32 C-19.70962567 30.2477754 -20.35982748 28.95231054 -22 26 C-22.84084123 21.9639621 -22.20618442 20.38291392 -20.25 16.75 C-16.87529793 13.00359162 -12.43207368 12.87322177 -7.64453125 12.32421875 C-5.02726674 12.1532369 -5.02726674 12.1532369 -3 11 C-2.34786708 8.97536745 -2.34786708 8.97536745 -2 7 C-3.45742463 6.91903197 -4.91612807 6.86082226 -6.375 6.8125 C-7.59316406 6.76029297 -7.59316406 6.76029297 -8.8359375 6.70703125 C-9.55007813 6.80371094 -10.26421875 6.90039062 -11 7 C-11.99 8.485 -11.99 8.485 -13 10 C-16.625 10.1875 -16.625 10.1875 -20 10 C-20.375 7.8125 -20.375 7.8125 -20 5 C-15.00326829 -1.61332138 -7.73893187 -1.08616588 0 0 Z " fill="#070707" transform="translate(276,106)"/>
<path d="M0 0 C4.22674702 1.96883595 5.9238793 4.84775861 8 9 C8 11.97 8 14.94 8 18 C1.07 18 -5.86 18 -13 18 C-11.45957252 22.80304035 -11.45957252 22.80304035 -9 25 C-6 25.41666667 -6 25.41666667 -3 25 C-2.34 24.01 -1.68 23.02 -1 22 C1.1640625 21.70703125 1.1640625 21.70703125 3.625 21.8125 C4.85089844 21.85310547 4.85089844 21.85310547 6.1015625 21.89453125 C6.72804688 21.92933594 7.35453125 21.96414062 8 22 C6.89570319 25.86503884 5.1741718 28.55721754 1.97265625 31.05078125 C-3.1963118 33.53802726 -9.17446505 32.5974478 -14.4375 30.875 C-17.62334451 28.54389426 -19.77512096 26.76409459 -21 23 C-22.46702501 10.38059099 -22.46702501 10.38059099 -19.25 5.3125 C-13.34513449 -0.75638955 -8.34696062 -1.11984068 0 0 Z " fill="#060606" transform="translate(377,161)"/>
<path d="M0 0 C2.97 0 5.94 0 9 0 C9.33 0.66 9.66 1.32 10 2 C10.99 1.34 11.98 0.68 13 0 C16.39107371 -0.54602034 19.60874176 -0.54627924 23 0 C25.82424288 2.19022918 27.41508603 3.83017207 29 7 C29.084915 8.8863912 29.107193 10.77578515 29.09765625 12.6640625 C29.09443359 13.78554687 29.09121094 14.90703125 29.08789062 16.0625 C29.07951172 17.238125 29.07113281 18.41375 29.0625 19.625 C29.05798828 20.80835937 29.05347656 21.99171875 29.04882812 23.2109375 C29.03701467 26.14067507 29.02054258 29.07031272 29 32 C26.03 32 23.06 32 20 32 C19.505 20.12 19.505 20.12 19 8 C13.51228218 6.41498891 13.51228218 6.41498891 11.15698242 8.1184082 C9.65926589 10.55413331 9.57074504 12.25222149 9.48828125 15.10546875 C9.45283203 16.08837891 9.41738281 17.07128906 9.38085938 18.08398438 C9.34702148 19.62022461 9.34702148 19.62022461 9.3125 21.1875 C9.27833984 22.22326172 9.24417969 23.25902344 9.20898438 24.32617188 C9.12647358 26.8840066 9.05733428 29.44149723 9 32 C6.03 32 3.06 32 0 32 C0 21.44 0 10.88 0 0 Z " fill="#161616" transform="translate(407,106)"/>
<path d="M0 0 C3.06836219 1.29960508 3.8853436 2.28115605 6 5 C6.875 7.8125 6.875 7.8125 7 10 C4.03 10 1.06 10 -2 10 C-2.33 9.01 -2.66 8.02 -3 7 C-5.64 7 -8.28 7 -11 7 C-11 7.99 -11 8.98 -11 10 C-9.87980469 10.31453125 -8.75960938 10.6290625 -7.60546875 10.953125 C-6.132593 11.38466821 -4.65994854 11.81700137 -3.1875 12.25 C-2.44951172 12.45496094 -1.71152344 12.65992188 -0.95117188 12.87109375 C2.35281167 13.85780377 4.51621025 14.51334759 6.98046875 16.9921875 C8.47857765 19.94248626 8.52331983 21.72925108 8 25 C5.92564959 28.42545988 3.88223414 30.70592195 0 32 C-13.51193579 33.17495094 -13.51193579 33.17495094 -17.8125 29.8125 C-19.9763027 27.03046795 -20.80092107 25.48388125 -21 22 C-18.03 22 -15.06 22 -12 22 C-11.67 22.99 -11.34 23.98 -11 25 C-8.03 25 -5.06 25 -2 25 C-2 24.01 -2 23.02 -2 22 C-3.04800781 21.68546875 -4.09601563 21.3709375 -5.17578125 21.046875 C-6.5549149 20.61530937 -7.93380891 20.18297737 -9.3125 19.75 C-10.00279297 19.54503906 -10.69308594 19.34007812 -11.40429688 19.12890625 C-14.44527589 18.15931874 -16.67851562 17.32212734 -18.953125 15.04296875 C-20.57991708 11.86829614 -20.43039877 9.50467569 -20 6 C-15.03027314 -1.62024785 -8.49825444 -0.85850697 0 0 Z " fill="#0A0A0A" transform="translate(308,161)"/>
<path d="M0 0 C3.11191245 1.29752751 3.90176494 2.22292419 6 5 C6.375 7.8125 6.375 7.8125 6 10 C3.36 10 0.72 10 -2 10 C-2.33 9.01 -2.66 8.02 -3 7 C-5.64 7 -8.28 7 -11 7 C-11 7.99 -11 8.98 -11 10 C-9.87980469 10.31453125 -8.75960938 10.6290625 -7.60546875 10.953125 C-6.132593 11.38466821 -4.65994854 11.81700137 -3.1875 12.25 C-2.44951172 12.45496094 -1.71152344 12.65992188 -0.95117188 12.87109375 C2.35281167 13.85780377 4.51621025 14.51334759 6.98046875 16.9921875 C8.47857765 19.94248626 8.52331983 21.72925108 8 25 C5.92564959 28.42545988 3.88223414 30.70592195 0 32 C-13.51193579 33.17495094 -13.51193579 33.17495094 -17.8125 29.8125 C-19.9763027 27.03046795 -20.80092107 25.48388125 -21 22 C-18.03 22 -15.06 22 -12 22 C-11.67 22.99 -11.34 23.98 -11 25 C-8.03 25 -5.06 25 -2 25 C-2 24.01 -2 23.02 -2 22 C-3.04800781 21.68546875 -4.09601563 21.3709375 -5.17578125 21.046875 C-6.5549149 20.61530937 -7.93380891 20.18297737 -9.3125 19.75 C-10.00279297 19.54503906 -10.69308594 19.34007812 -11.40429688 19.12890625 C-14.44527589 18.15931874 -16.67851562 17.32212734 -18.953125 15.04296875 C-20.57991708 11.86829614 -20.43039877 9.50467569 -20 6 C-15.02994975 -1.62074372 -8.49833148 -0.85754139 0 0 Z " fill="#0A0A0A" transform="translate(410,161)"/>
<path d="M0 0 C3.49598625 1.69144764 4.81945804 2.72918705 7 6 C7 7.32 7 8.64 7 10 C5.72125 10.061875 4.4425 10.12375 3.125 10.1875 C2.40570313 10.22230469 1.68640625 10.25710937 0.9453125 10.29296875 C0.30335938 10.19628906 -0.33859375 10.09960938 -1 10 C-1.66 9.01 -2.32 8.02 -3 7 C-6.58357241 6.74984127 -6.58357241 6.74984127 -10 7 C-10 7.99 -10 8.98 -10 10 C-9.11957031 10.24234375 -8.23914063 10.4846875 -7.33203125 10.734375 C-6.17058594 11.06953125 -5.00914062 11.4046875 -3.8125 11.75 C-2.66394531 12.07484375 -1.51539063 12.3996875 -0.33203125 12.734375 C3.14982322 14.05690823 5.36649422 15.37622992 8 18 C8.78377763 22.93779904 8.78377763 22.93779904 8 26 C5.5625 28.9375 5.5625 28.9375 3 31 C2.67 31.33 2.34 31.66 2 32 C-0.24731125 32.1264848 -2.49916239 32.17582553 -4.75 32.1875 C-5.98234375 32.20167969 -7.2146875 32.21585938 -8.484375 32.23046875 C-11.85134975 32.00974485 -14.03575636 31.5652064 -17 30 C-19.17815142 27.07076189 -20 25.67718093 -20 22 C-18.72125 21.938125 -17.4425 21.87625 -16.125 21.8125 C-15.04605469 21.76029297 -15.04605469 21.76029297 -13.9453125 21.70703125 C-13.30335938 21.80371094 -12.66140625 21.90039062 -12 22 C-11.34 22.99 -10.68 23.98 -10 25 C-7.79274927 25.36362818 -7.79274927 25.36362818 -5.375 25.1875 C-4.55773437 25.16042969 -3.74046875 25.13335937 -2.8984375 25.10546875 C-1.95871094 25.05326172 -1.95871094 25.05326172 -1 25 C-1 24.01 -1 23.02 -1 22 C-1.88042969 21.75765625 -2.76085937 21.5153125 -3.66796875 21.265625 C-5.41013672 20.76289063 -5.41013672 20.76289063 -7.1875 20.25 C-8.33605469 19.92515625 -9.48460937 19.6003125 -10.66796875 19.265625 C-14.16145799 17.93867246 -16.37349351 16.65073626 -19 14 C-19.99721757 10.88578422 -19.75424479 8.16332516 -19 5 C-14.37477889 -1.47530956 -7.4402139 -1.11742887 0 0 Z " fill="#0A0A0A" transform="translate(442,161)"/>
<path d="M0 0 C3.49598625 1.69144764 4.81945804 2.72918705 7 6 C7 7.32 7 8.64 7 10 C5.72125 10.061875 4.4425 10.12375 3.125 10.1875 C2.40570313 10.22230469 1.68640625 10.25710937 0.9453125 10.29296875 C0.30335938 10.19628906 -0.33859375 10.09960938 -1 10 C-1.66 9.01 -2.32 8.02 -3 7 C-6.58357241 6.74984127 -6.58357241 6.74984127 -10 7 C-10 7.99 -10 8.98 -10 10 C-9.11957031 10.24234375 -8.23914063 10.4846875 -7.33203125 10.734375 C-6.17058594 11.06953125 -5.00914062 11.4046875 -3.8125 11.75 C-2.66394531 12.07484375 -1.51539063 12.3996875 -0.33203125 12.734375 C3.13893785 14.05277358 5.36108827 15.40025579 8 18 C8.5615592 21.86071953 8.32862438 24.2216791 6.8125 27.8125 C3.94495985 31.27332432 1.03287422 31.89719076 -3.375 32.3359375 C-5.169375 32.35527344 -5.169375 32.35527344 -7 32.375 C-8.19625 32.40335938 -9.3925 32.43171875 -10.625 32.4609375 C-14.60853211 31.91689029 -16.22437011 30.86284931 -19 28 C-19.8125 24.75 -19.8125 24.75 -20 22 C-18.72125 21.938125 -17.4425 21.87625 -16.125 21.8125 C-15.04605469 21.76029297 -15.04605469 21.76029297 -13.9453125 21.70703125 C-13.30335938 21.80371094 -12.66140625 21.90039062 -12 22 C-11.34 22.99 -10.68 23.98 -10 25 C-7.56306689 25.36416047 -7.56306689 25.36416047 -4.875 25.1875 C-3.96492188 25.16042969 -3.05484375 25.13335937 -2.1171875 25.10546875 C-1.41851562 25.07066406 -0.71984375 25.03585938 0 25 C-0.33 24.01 -0.66 23.02 -1 22 C-3.85252384 20.88792075 -3.85252384 20.88792075 -7.25 20.0625 C-12.05792268 18.80613106 -15.46408892 17.58149372 -19 14 C-19.99721757 10.88578422 -19.75424479 8.16332516 -19 5 C-14.37477889 -1.47530956 -7.4402139 -1.11742887 0 0 Z " fill="#0A0A0A" transform="translate(154,161)"/>
<path d="M0 0 C2.64 0 5.28 0 8 0 C8.33 0.99 8.66 1.98 9 3 C9.474375 2.505 9.94875 2.01 10.4375 1.5 C14.14183465 -0.66839101 17.82603336 -1.02660668 22 0 C26.27834547 2.18523148 26.27834547 2.18523148 28 5 C28.74946398 9.62182237 28.56329925 14.14605838 28.375 18.8125 C28.34792969 20.07771484 28.32085937 21.34292969 28.29296875 22.64648438 C28.22233697 25.7660547 28.12373646 28.88215841 28 32 C25.36 32 22.72 32 20 32 C19.98018066 31.31373535 19.96036133 30.6274707 19.93994141 29.92041016 C19.84489055 26.82154221 19.73513153 23.72336706 19.625 20.625 C19.5940625 19.54476562 19.563125 18.46453125 19.53125 17.3515625 C19.49257813 16.3203125 19.45390625 15.2890625 19.4140625 14.2265625 C19.36693115 12.79691162 19.36693115 12.79691162 19.31884766 11.33837891 C19.21444204 8.81104824 19.21444204 8.81104824 17 7 C14.54258463 6.49985047 14.54258463 6.49985047 12 7 C9.23457571 9.90765559 8.60899199 12.02506259 8.48828125 15.984375 C8.45283203 16.91894531 8.41738281 17.85351562 8.38085938 18.81640625 C8.34702148 20.26853516 8.34702148 20.26853516 8.3125 21.75 C8.27833984 22.73355469 8.24417969 23.71710938 8.20898438 24.73046875 C8.12664727 27.15353199 8.05745162 29.57623998 8 32 C5.36 32 2.72 32 0 32 C0 21.44 0 10.88 0 0 Z " fill="#080808" transform="translate(306,106)"/>
<path d="M0 0 C2.64 0 5.28 0 8 0 C8.33 0.99 8.66 1.98 9 3 C9.474375 2.505 9.94875 2.01 10.4375 1.5 C14.16002963 -0.67904173 17.77382564 -0.57291448 22 0 C25.28472596 1.26747578 25.95966737 1.93950106 28 5 C28.22705078 7.8190918 28.22705078 7.8190918 28.1953125 11.19921875 C28.18886719 12.40771484 28.18242188 13.61621094 28.17578125 14.86132812 C28.15902344 16.12396484 28.14226562 17.38660156 28.125 18.6875 C28.11597656 19.96173828 28.10695313 21.23597656 28.09765625 22.54882812 C28.07405641 25.69940627 28.04113194 28.84960983 28 32 C25.36 32 22.72 32 20 32 C19.505 19.625 19.505 19.625 19 7 C12.44885836 6.22627082 12.44885836 6.22627082 10.09448242 8.68847656 C8.86317196 11.2889779 8.5757741 13.11460942 8.48828125 15.984375 C8.45283203 16.91894531 8.41738281 17.85351562 8.38085938 18.81640625 C8.34702148 20.26853516 8.34702148 20.26853516 8.3125 21.75 C8.27833984 22.73355469 8.24417969 23.71710938 8.20898438 24.73046875 C8.12664727 27.15353199 8.05745162 29.57623998 8 32 C5.36 32 2.72 32 0 32 C0 21.44 0 10.88 0 0 Z " fill="#0B0B0B" transform="translate(88,106)"/>
<path d="M0 0 C2.64 0 5.28 0 8 0 C8.02505615 0.65597168 8.0501123 1.31194336 8.07592773 1.98779297 C8.1917326 4.95040183 8.31452886 7.91268031 8.4375 10.875 C8.47681641 11.90753906 8.51613281 12.94007813 8.55664062 14.00390625 C8.61948242 15.48310547 8.61948242 15.48310547 8.68359375 16.9921875 C8.72025146 17.90339355 8.75690918 18.81459961 8.79467773 19.75341797 C8.86577065 22.03483481 8.86577065 22.03483481 10 24 C13.41642759 24.25015873 13.41642759 24.25015873 17 24 C19.12280563 20.81579155 19.28019537 19.79462745 19.4140625 16.11328125 C19.45273437 15.17548828 19.49140625 14.23769531 19.53125 13.27148438 C19.57765625 11.80678711 19.57765625 11.80678711 19.625 10.3125 C19.66367187 9.32443359 19.70234375 8.33636719 19.7421875 7.31835938 C19.83645867 4.87909293 19.92206218 2.43983405 20 0 C22.64 0 25.28 0 28 0 C28 10.23 28 20.46 28 31 C25.36 31 22.72 31 20 31 C19.67 30.34 19.34 29.68 19 29 C18.34 29.495 17.68 29.99 17 30.5 C13.216523 32.3917385 10.15649697 32.93206296 6 32 C3.0625 29.5625 3.0625 29.5625 1 27 C0.67 26.67 0.34 26.34 0 26 C-0.08748207 24.07332493 -0.10697334 22.14348139 -0.09765625 20.21484375 C-0.09443359 19.04501953 -0.09121094 17.87519531 -0.08789062 16.66992188 C-0.07951172 15.43822266 -0.07113281 14.20652344 -0.0625 12.9375 C-0.05798828 11.70193359 -0.05347656 10.46636719 -0.04882812 9.19335938 C-0.03699608 6.12885883 -0.02051173 3.06445279 0 0 Z " fill="#060606" transform="translate(253,161)"/>
<path d="M0 0 C2.64 0 5.28 0 8 0 C8.33 0.66 8.66 1.32 9 2 C9.99 1.34 10.98 0.68 12 0 C16.88516144 -0.71207438 20.8100735 -0.72852643 25.0625 1.875 C28.13890728 5.24912412 28.12030434 7.17974046 28.09765625 11.6640625 C28.09443359 12.78554687 28.09121094 13.90703125 28.08789062 15.0625 C28.07951172 16.238125 28.07113281 17.41375 28.0625 18.625 C28.05798828 19.80835938 28.05347656 20.99171875 28.04882812 22.2109375 C28.03701467 25.14067507 28.02054258 28.07031272 28 31 C25.36 31 22.72 31 20 31 C19.98018066 30.34402832 19.96036133 29.68805664 19.93994141 29.01220703 C19.84487493 26.04938931 19.73512248 23.08729468 19.625 20.125 C19.5940625 19.09246094 19.563125 18.05992187 19.53125 16.99609375 C19.49257812 16.00996094 19.45390625 15.02382812 19.4140625 14.0078125 C19.36693115 12.64100342 19.36693115 12.64100342 19.31884766 11.24658203 C19.20117489 8.80068814 19.20117489 8.80068814 17 7 C14.21356188 6.64276434 12.6637422 6.50505473 10.37182617 8.21411133 C8.59212532 10.53098475 8.57624033 11.98406915 8.48828125 14.88671875 C8.45283203 15.82451172 8.41738281 16.76230469 8.38085938 17.72851562 C8.34702148 19.19321289 8.34702148 19.19321289 8.3125 20.6875 C8.27833984 21.67556641 8.24417969 22.66363281 8.20898438 23.68164062 C8.12649462 26.12098053 8.05734932 28.55996063 8 31 C5.36 31 2.72 31 0 31 C0 20.77 0 10.54 0 0 Z " fill="#040404" transform="translate(100,161)"/>
<path d="M0 0 C2.64 0 5.28 0 8 0 C8.33 0.66 8.66 1.32 9 2 C9.99 1.34 10.98 0.68 12 0 C16.88516144 -0.71207438 20.8100735 -0.72852643 25.0625 1.875 C28.13890728 5.24912412 28.12030434 7.17974046 28.09765625 11.6640625 C28.09443359 12.78554687 28.09121094 13.90703125 28.08789062 15.0625 C28.07951172 16.238125 28.07113281 17.41375 28.0625 18.625 C28.05798828 19.80835938 28.05347656 20.99171875 28.04882812 22.2109375 C28.03701467 25.14067507 28.02054258 28.07031272 28 31 C25.36 31 22.72 31 20 31 C19.98018066 30.34402832 19.96036133 29.68805664 19.93994141 29.01220703 C19.84487493 26.04938931 19.73512248 23.08729468 19.625 20.125 C19.5940625 19.09246094 19.563125 18.05992187 19.53125 16.99609375 C19.49257813 16.00996094 19.45390625 15.02382812 19.4140625 14.0078125 C19.36693115 12.64100342 19.36693115 12.64100342 19.31884766 11.24658203 C19.20117489 8.80068814 19.20117489 8.80068814 17 7 C13.43407381 7.16417032 13.43407381 7.16417032 10 8 C8.79729036 10.40541929 8.79683337 12.10366591 8.68359375 14.7890625 C8.64169922 15.73007813 8.59980469 16.67109375 8.55664062 17.640625 C8.49766602 19.11789063 8.49766602 19.11789063 8.4375 20.625 C8.39431641 21.61757812 8.35113281 22.61015625 8.30664062 23.6328125 C8.20038931 26.08839838 8.09835036 28.54408703 8 31 C5.36 31 2.72 31 0 31 C0 20.77 0 10.54 0 0 Z " fill="#060606" transform="translate(322,161)"/>
<path d="M0 0 C3.34788923 1.26347544 5.37178697 3.05768045 7.375 6.0625 C8 8 8 8 8 11 C2.67181467 11.35521236 2.67181467 11.35521236 0 11 C-1.37195574 9.70644173 -2.71182656 8.37701298 -4 7 C-6.6433774 6.91194854 -6.6433774 6.91194854 -9 8 C-11.15942819 11.23914229 -11.27232978 12.24859733 -11.25 16 C-11.25515625 16.86625 -11.2603125 17.7325 -11.265625 18.625 C-11.15414552 21.265795 -11.15414552 21.265795 -9 24 C-5.91634129 24.2502157 -5.91634129 24.2502157 -3 24 C-2.34 22.68 -1.68 21.36 -1 20 C1.97 20 4.94 20 8 20 C7.14489368 24.04232081 6.561819 26.45258661 3.5625 29.375 C-1.41121616 32.52906391 -6.26776003 32.62501059 -12 32 C-16.05805146 30.15543115 -17.58825073 28.68624879 -19.875 24.875 C-21.92386161 19.20404377 -21.7974721 13.3481123 -19.875 7.6875 C-14.37940175 -0.18952416 -9.44720285 -1.41060974 0 0 Z " fill="#0A0A0A" transform="translate(187,161)"/>
<path d="M0 0 C2.64 0 5.28 0 8 0 C8.33 0.99 8.66 1.98 9 3 C9.37125 2.505 9.7425 2.01 10.125 1.5 C12.74694393 -0.59755514 14.73842472 -0.21743835 18 0 C18 2.64 18 5.28 18 8 C16.88625 8.103125 15.7725 8.20625 14.625 8.3125 C13.42875 8.539375 12.2325 8.76625 11 9 C8.94872156 12.07691766 8.72739128 12.93644999 8.5859375 16.44921875 C8.52792969 17.72055664 8.52792969 17.72055664 8.46875 19.01757812 C8.42234375 20.33918945 8.42234375 20.33918945 8.375 21.6875 C8.31699219 23.02651367 8.31699219 23.02651367 8.2578125 24.39257812 C8.16359782 26.5948462 8.07798412 28.79710722 8 31 C5.36 31 2.72 31 0 31 C0 20.77 0 10.54 0 0 Z " fill="#060606" transform="translate(234,106)"/>
<path d="M0 0 C2.64 0 5.28 0 8 0 C8 10.56 8 21.12 8 32 C5.36 32 2.72 32 0 32 C0 21.44 0 10.88 0 0 Z " fill="#070707" transform="translate(290,106)"/>
<path d="M0 0 C2.64 0 5.28 0 8 0 C8 10.56 8 21.12 8 32 C5.36 32 2.72 32 0 32 C0 21.44 0 10.88 0 0 Z " fill="#080808" transform="translate(72,106)"/>
<path d="M0 0 C2.64 0 5.28 0 8 0 C8 10.23 8 20.46 8 31 C5.36 31 2.72 31 0 31 C0 20.77 0 10.54 0 0 Z " fill="#030303" transform="translate(201,161)"/>
<path d="M0 0 C3.375 1.125 3.375 1.125 5.3125 2.625 C7.17369339 7.00427856 7.26667109 11.91334421 5.48046875 16.34375 C4.375 18.125 4.375 18.125 2.375 19.125 C-3.96617647 19.58617647 -3.96617647 19.58617647 -6.5 17.8125 C-9.00673806 14.05239291 -9.07088777 10.50956304 -8.625 6.125 C-6.65963311 2.00918682 -4.72043909 0.16277376 0 0 Z " fill="#F4F4F4" transform="translate(78.625,166.875)"/>
<path d="M0 0 C3.50209879 0.80817664 4.49930764 1.4757492 6.4375 4.5625 C7.07215249 9.2095666 7.47656802 13.6813738 5.16015625 17.875 C3.4375 19.5625 3.4375 19.5625 1.5 20.09375 C0.819375 20.0834375 0.13875 20.073125 -0.5625 20.0625 C-1.243125 20.0728125 -1.92375 20.083125 -2.625 20.09375 C-4.5625 19.5625 -4.5625 19.5625 -6.28125 17.83984375 C-8.50284669 13.89109109 -8.32154489 9.95361015 -7.5625 5.5625 C-5.25588056 2.26732938 -3.9381945 0.86448172 0 0 Z " fill="#F8F8F8" transform="translate(231.5625,166.4375)"/>
<path d="M0 0 C2.10358381 1.54262813 2.84054159 2.68108317 4 5 C4.41813602 13.64147775 4.41813602 13.64147775 2 17 C-1.11877956 18.55938978 -3.57255771 18.3607834 -7 18 C-9.88232076 15.11767924 -10.21311867 12.36150336 -10.375 8.4375 C-10.26062411 5.69247863 -10.00032837 4.00079194 -8.9375 1.4375 C-5.93408933 -0.79083695 -3.62113687 -0.45264211 0 0 Z " fill="#F7F7F7" transform="translate(460,113)"/>
<path d="M0 0 C3.5 0.4375 3.5 0.4375 5.1953125 1.58984375 C7.0576558 4.22723411 6.89851255 6.23979286 6.875 9.4375 C6.88273438 10.489375 6.89046875 11.54125 6.8984375 12.625 C6.5 15.4375 6.5 15.4375 5.1953125 17.28515625 C2.31079424 19.24583111 -0.14328639 18.8570892 -3.5 18.4375 C-5.58944523 16.32398282 -6.41720152 14.94403186 -6.8984375 12 C-6.89070312 11.154375 -6.88296875 10.30875 -6.875 9.4375 C-6.88273438 8.591875 -6.89046875 7.74625 -6.8984375 6.875 C-6.14375336 2.25810877 -4.62230252 0.57778781 0 0 Z " fill="#FBFBFB" transform="translate(137.5,112.5625)"/>
<path d="M0 0 C2.43816585 -0.0809723 4.87364384 -0.14046972 7.3125 -0.1875 C8.34793945 -0.22520508 8.34793945 -0.22520508 9.40429688 -0.26367188 C14.51242349 -0.3377027 14.51242349 -0.3377027 16.95703125 1.35546875 C18.45708786 3.72072654 18.41145137 5.25699085 18 8 C16.95703125 9.64453125 16.95703125 9.64453125 15 11 C12.35003674 11.2172101 9.94923442 11.28351554 7.3125 11.1875 C6.2596582 11.16719727 6.2596582 11.16719727 5.18554688 11.14648438 C3.45670171 11.11120182 1.72825235 11.05739583 0 11 C0 7.37 0 3.74 0 0 Z " fill="#F7F7F7" transform="translate(201,119)"/>
<path d="M0 0 C9.625 -0.25 9.625 -0.25 13 2 C13.43132515 6.05445642 13.30019361 7.54970958 11 11 C11.99 12.65 12.98 14.3 14 16 C12.35 16 10.7 16 9 16 C8.34 14.35 7.68 12.7 7 11 C6.01 11 5.02 11 4 11 C4 12.65 4 14.3 4 16 C2.68 16 1.36 16 0 16 C0 10.72 0 5.44 0 0 Z " fill="#363636" transform="translate(139,242)"/>
<path d="M0 0 C3.0625 0.1875 3.0625 0.1875 5.0625 2.1875 C4.67371812 5.20055957 3.79793126 6.58435311 2.0625 9.1875 C3.7125 8.8575 5.3625 8.5275 7.0625 8.1875 C7.0625 10.4975 7.0625 12.8075 7.0625 15.1875 C6.0725 15.1875 5.0825 15.1875 4.0625 15.1875 C2.72816914 15.41078521 1.39487407 15.64032048 0.0625 15.875 C-3.64637789 16.34629388 -3.64637789 16.34629388 -6 15.0625 C-7.31333963 12.43582073 -6.78487719 10.94147588 -5.9375 8.1875 C-5.6075 7.5275 -5.2775 6.8675 -4.9375 6.1875 C-4.7725 5.341875 -4.6075 4.49625 -4.4375 3.625 C-3.71824127 0.11861371 -3.66386023 0.23386342 0 0 Z " fill="#464646" transform="translate(192.9375,241.8125)"/>
<path d="M0 0 C2.3125 1.625 2.3125 1.625 4 4 C4.61195145 7.6717087 4.48706506 9.28813568 2.375 12.375 C-0.71186432 14.48706506 -2.3282913 14.61195145 -6 14 C-8.4375 12.4375 -8.4375 12.4375 -10 10 C-10 6.17610254 -9.85254277 3.94388664 -7.25 1.0625 C-4.50508782 -0.23370853 -2.99925788 -0.52487013 0 0 Z " fill="#F3F3F3" transform="translate(156,30)"/>
<path d="M0 0 C5 1 5 1 6.58203125 2.62890625 C6.98808594 3.26699219 7.39414062 3.90507812 7.8125 4.5625 C8.44091797 5.52349609 8.44091797 5.52349609 9.08203125 6.50390625 C9.38496094 6.99761719 9.68789063 7.49132812 10 8 C10.33 5.36 10.66 2.72 11 0 C11.99 0 12.98 0 14 0 C14 5.28 14 10.56 14 16 C9.77000325 14.94250081 9.45069644 14.79967512 7.25 11.4375 C6.82203125 10.79683594 6.3940625 10.15617188 5.953125 9.49609375 C5.63859375 9.00238281 5.3240625 8.50867188 5 8 C4.67 10.64 4.34 13.28 4 16 C2.68 16 1.36 16 0 16 C0 10.72 0 5.44 0 0 Z " fill="#323232" transform="translate(258,242)"/>
<path d="M0 0 C4.29 0 8.58 0 13 0 C13 0.99 13 1.98 13 3 C10.03 3 7.06 3 4 3 C4 3.99 4 4.98 4 6 C6.64 6 9.28 6 12 6 C12 6.99 12 7.98 12 9 C9.36 9 6.72 9 4 9 C4 9.99 4 10.98 4 12 C6.97 12 9.94 12 13 12 C13 13.32 13 14.64 13 16 C8.71 16 4.42 16 0 16 C0 10.72 0 5.44 0 0 Z " fill="#424242" transform="translate(243,242)"/>
<path d="M0 0 C5 1 5 1 6.58203125 2.62890625 C6.98808594 3.26699219 7.39414063 3.90507812 7.8125 4.5625 C8.44091797 5.52349609 8.44091797 5.52349609 9.08203125 6.50390625 C9.38496094 6.99761719 9.68789062 7.49132812 10 8 C10.33 5.36 10.66 2.72 11 0 C11.99 0 12.98 0 14 0 C14 5.28 14 10.56 14 16 C9.77000325 14.94250081 9.45069644 14.79967512 7.25 11.4375 C6.82203125 10.79683594 6.3940625 10.15617188 5.953125 9.49609375 C5.63859375 9.00238281 5.3240625 8.50867188 5 8 C4.67 10.64 4.34 13.28 4 16 C2.68 16 1.36 16 0 16 C0 10.72 0 5.44 0 0 Z " fill="#505050" transform="translate(60,242)"/>
<path d="M0 0 C2.45862401 -0.05383848 4.9160755 -0.09359038 7.375 -0.125 C8.42300781 -0.15013672 8.42300781 -0.15013672 9.4921875 -0.17578125 C11.32897486 -0.19344267 13.16601963 -0.10303261 15 0 C15.66 0.66 16.32 1.32 17 2 C16.8125 4.5 16.8125 4.5 16 7 C12.36804504 9.42130331 10.61650652 9.21022785 6.3125 9.125 C5.13300781 9.10695313 3.95351562 9.08890625 2.73828125 9.0703125 C1.83464844 9.04710938 0.93101562 9.02390625 0 9 C0 6.03 0 3.06 0 0 Z " fill="#F4F4F4" transform="translate(201,103)"/>
<path d="M0 0 C3.96 0 7.92 0 12 0 C12 0.99 12 1.98 12 3 C9.36 3 6.72 3 4 3 C4 3.99 4 4.98 4 6 C6.31 6 8.62 6 11 6 C11 6.99 11 7.98 11 9 C8.69 9 6.38 9 4 9 C4 9.99 4 10.98 4 12 C6.64 12 9.28 12 12 12 C12 13.32 12 14.64 12 16 C8.04 16 4.08 16 0 16 C0 10.72 0 5.44 0 0 Z " fill="#393939" transform="translate(291,242)"/>
<path d="M0 0 C2.32421875 0.1328125 2.32421875 0.1328125 5 1 C6.58203125 3.6171875 6.58203125 3.6171875 7.8125 6.875 C8.23144531 7.94492188 8.65039062 9.01484375 9.08203125 10.1171875 C10 13 10 13 10 16 C8.68 16 7.36 16 6 16 C6 14.68 6 13.36 6 12 C2.56769552 12.26393501 2.56769552 12.26393501 -1 13 C-1.99 14.485 -1.99 14.485 -3 16 C-3.99 16 -4.98 16 -6 16 C-4.25192871 10.53262809 -2.34205919 5.24175152 0 0 Z " fill="#404040" transform="translate(127,242)"/>
<path d="M0 0 C1.32 0 2.64 0 4 0 C4 3.96 4 7.92 4 12 C5.98 12 7.96 12 10 12 C10 8.04 10 4.08 10 0 C11.32 0 12.64 0 14 0 C14.10841951 1.91541138 14.18578079 3.83259773 14.25 5.75 C14.29640625 6.81734375 14.3428125 7.8846875 14.390625 8.984375 C14 12 14 12 12.171875 14.359375 C10 16 10 16 7 16.5 C3.26816938 15.87802823 2.29695087 14.96444087 0 12 C-0.390625 8.984375 -0.390625 8.984375 -0.25 5.75 C-0.21390625 4.67234375 -0.1778125 3.5946875 -0.140625 2.484375 C-0.09421875 1.66453125 -0.0478125 0.8446875 0 0 Z " fill="#5A5A5A" transform="translate(93,242)"/>
<path d="M0 0 C6.8359375 -0.1953125 6.8359375 -0.1953125 9 0 C11 2 11 2 11.125 5.125 C11.08375 6.07375 11.0425 7.0225 11 8 C10.34 8 9.68 8 9 8 C9.99 9.98 10.98 11.96 12 14 C8 14 8 14 5.75 12 C5.1725 11.34 4.595 10.68 4 10 C4 11.32 4 12.64 4 14 C2.68 14 1.36 14 0 14 C0 9.38 0 4.76 0 0 Z " fill="#DDDDDD" transform="translate(164,30)"/>
<path d="M0 0 C1.258125 -0.04125 2.51625 -0.0825 3.8125 -0.125 C4.52019531 -0.14820312 5.22789063 -0.17140625 5.95703125 -0.1953125 C8 0 8 0 11 2 C11.27242475 4.58803513 11.10275803 6.611803 10.4375 9.125 C9.77876382 11.20883241 9.77876382 11.20883241 11 14 C9.0625 13.625 9.0625 13.625 7 13 C6.67 12.34 6.34 11.68 6 11 C5.01 10.67 4.02 10.34 3 10 C3 11.32 3 12.64 3 14 C2.01 14 1.02 14 0 14 C0 9.38 0 4.76 0 0 Z " fill="#E6E6E6" transform="translate(110,30)"/>
<path d="M0 0 C2.05078125 0.03255208 4.1015625 0.06510417 6.15234375 0.09765625 C6.48234375 1.41765625 6.81234375 2.73765625 7.15234375 4.09765625 C4.84234375 3.76765625 2.53234375 3.43765625 0.15234375 3.09765625 C1.77600841 6.34498557 4.90622214 6.79920761 8.15234375 8.09765625 C8.33984375 10.97265625 8.33984375 10.97265625 8.15234375 14.09765625 C4.68235646 16.41098111 3.22725127 16.43723188 -0.84765625 16.09765625 C-1.83765625 15.43765625 -2.82765625 14.77765625 -3.84765625 14.09765625 C-3.51765625 13.10765625 -3.18765625 12.11765625 -2.84765625 11.09765625 C-0.53765625 11.42765625 1.77234375 11.75765625 4.15234375 12.09765625 C4.48234375 11.43765625 4.81234375 10.77765625 5.15234375 10.09765625 C4.22421875 9.99453125 3.29609375 9.89140625 2.33984375 9.78515625 C-0.84765625 9.09765625 -0.84765625 9.09765625 -2.78515625 7.84765625 C-3.84765625 6.09765625 -3.84765625 6.09765625 -3.59765625 3.47265625 C-2.54348062 0.13443344 -2.54348062 0.13443344 0 0 Z " fill="#363636" transform="translate(209.84765625,241.90234375)"/>
<path d="M0 0 C2.97 0 5.94 0 9 0 C9.56312292 11.90900701 9.56312292 11.90900701 6 16 C3 18 3 18 0 18 C0 15 0 15 1.9375 12.9375 C2.618125 12.298125 3.29875 11.65875 4 11 C4.33 10.34 4.66 9.68 5 9 C3.35 9 1.7 9 0 9 C0 6.03 0 3.06 0 0 Z " fill="#111111" transform="translate(160,129)"/>
<path d="M0 0 C0.66 0.33 1.32 0.66 2 1 C1.67 1.99 1.34 2.98 1 4 C-1.31 3.67 -3.62 3.34 -6 3 C-4.37633534 6.24732932 -1.24612161 6.70155136 2 8 C2.125 10.875 2.125 10.875 2 14 C0 16 0 16 -3.4375 16.25 C-7 16 -7 16 -10 14 C-9.67 13.01 -9.34 12.02 -9 11 C-6.69 11.33 -4.38 11.66 -2 12 C-1.67 11.34 -1.34 10.68 -1 10 C-1.94875 9.87625 -2.8975 9.7525 -3.875 9.625 C-7 9 -7 9 -9 7 C-9.125 3.875 -9.125 3.875 -9 1 C-6.01405576 -0.49297212 -3.29146376 -0.11755228 0 0 Z " fill="#343434" transform="translate(178,242)"/>
<path d="M0 0 C0.66 0.33 1.32 0.66 2 1 C1.67 1.99 1.34 2.98 1 4 C-1.64 4 -4.28 4 -7 4 C-7.38133299 5.9914056 -7.71325582 7.99279077 -8 10 C-7.01732141 11.20561184 -7.01732141 11.20561184 -5.15234375 11.09765625 C-3.1015625 11.06510417 -1.05078125 11.03255208 1 11 C1 12.32 1 13.64 1 15 C-2.09173752 16.54586876 -4.59429552 16.29359521 -8 16 C-10.4375 14.5 -10.4375 14.5 -12 12 C-12.79841448 7.98323437 -12.61897146 5.0316191 -10.5 1.5 C-6.81370046 -0.71177972 -4.26823808 -0.34421275 0 0 Z " fill="#343434" transform="translate(232,242)"/>
<path d="M0 0 C4.59037956 1.14759489 5.33669182 2.29039218 8 6 C8.33 4.02 8.66 2.04 9 0 C9.99 0 10.98 0 12 0 C12 4.62 12 9.24 12 14 C11.01 14 10.02 14 9 14 C7.61328125 12.46875 7.61328125 12.46875 6.3125 10.5 C5.65701172 9.52546875 5.65701172 9.52546875 4.98828125 8.53125 C4.66214844 8.0259375 4.33601563 7.520625 4 7 C3.67 9.31 3.34 11.62 3 14 C2.01 14 1.02 14 0 14 C0 9.38 0 4.76 0 0 Z " fill="#E4E4E4" transform="translate(65,30)"/>
<path d="M0 0 C2.64 0 5.28 0 8 0 C8.05423638 1.91635217 8.09289963 3.83314925 8.125 5.75 C8.14820313 6.81734375 8.17140625 7.8846875 8.1953125 8.984375 C8.00208779 11.96776453 7.70820684 13.57254817 6 16 C2.875 17.25 2.875 17.25 0 18 C0.33 16.68 0.66 15.36 1 14 C1.66 14 2.32 14 3 14 C3.33 12.35 3.66 10.7 4 9 C2.68 9 1.36 9 0 9 C0 6.03 0 3.06 0 0 Z " fill="#0C0C0C" transform="translate(342,129)"/>
<path d="M0 0 C0.33 1.32 0.66 2.64 1 4 C-1.64 4 -4.28 4 -7 4 C-7.67801034 6.90073181 -7.67801034 6.90073181 -8 10 C-7.34 10.66 -6.68 11.32 -6 12 C-3.99363529 11.70740515 -1.99285937 11.37366113 0 11 C0.66 11.33 1.32 11.66 2 12 C2 12.66 2 13.32 2 14 C-1.7205836 16.48038907 -3.59796571 16.46337203 -8 16 C-10.4375 14.5625 -10.4375 14.5625 -12 12 C-12.5437043 8.89471978 -12.56422012 6.10321065 -12 3 C-9.01309264 -1.10699762 -4.63668814 -0.23183441 0 0 Z " fill="#303030" transform="translate(287,242)"/>
<path d="M0 0 C1.65 0 3.3 0 5 0 C5.28875 0.639375 5.5775 1.27875 5.875 1.9375 C6.82823451 4.15206079 6.82823451 4.15206079 9 5 C9.66 3.35 10.32 1.7 11 0 C12.32 0 13.64 0 15 0 C13.87548273 2.9719385 12.77706209 5.33440687 11 8 C10.54860541 10.0492094 10.54860541 10.0492094 10.375 12.1875 C10.25125 13.445625 10.1275 14.70375 10 16 C8.68 16 7.36 16 6 16 C5.90203125 15.43152344 5.8040625 14.86304688 5.703125 14.27734375 C4.63676081 8.77085969 3.01715751 4.7268801 0 0 Z " fill="#5A5A5A" transform="translate(76,242)"/>
<path d="M0 0 C3.3 0 6.6 0 10 0 C10 0.99 10 1.98 10 3 C7.69 3 5.38 3 3 3 C3 3.99 3 4.98 3 6 C4.98 6 6.96 6 9 6 C9 6.66 9 7.32 9 8 C7.02 8 5.04 8 3 8 C3 8.99 3 9.98 3 11 C5.31 11 7.62 11 10 11 C10 11.99 10 12.98 10 14 C6.7 14 3.4 14 0 14 C0 9.38 0 4.76 0 0 Z " fill="#E6E6E6" transform="translate(51,30)"/>
<path d="M0 0 C4.29 0 8.58 0 13 0 C13 0.99 13 1.98 13 3 C11.35 3 9.7 3 8 3 C8 7.29 8 11.58 8 16 C6.68 16 5.36 16 4 16 C4 11.71 4 7.42 4 3 C2.68 3 1.36 3 0 3 C0 2.01 0 1.02 0 0 Z " fill="#353535" transform="translate(154,242)"/>
<path d="M0 0 C-0.3125 3.375 -0.3125 3.375 -1 7 C-4.6441774 9.4294516 -6.71241272 9.16179575 -11 9 C-11.6875 6.6875 -11.6875 6.6875 -12 4 C-10.45711983 1.59996418 -9.30330438 1.08554739 -6.5625 0.3125 C-4 0 -4 0 0 0 Z " fill="#EDEDED" transform="translate(392,123)"/>
<path d="M0 0 C0.35789474 5.36842105 0.35789474 5.36842105 -1.0625 7.875 C-4.06732099 9.61973477 -6.60810131 9.30835443 -10 9 C-10.66 8.34 -11.32 7.68 -12 7 C-11.8125 5 -11.8125 5 -11 3 C-7.4144509 0.60963393 -4.2914923 0 0 0 Z " fill="#F3F3F3" transform="translate(274,123)"/>
<path d="M0 0 C1.0725 0.2475 2.145 0.495 3.25 0.75 C3.25 1.74 3.25 2.73 3.25 3.75 C0.94 3.75 -1.37 3.75 -3.75 3.75 C-3.75 5.73 -3.75 7.71 -3.75 9.75 C-1.44 9.75 0.87 9.75 3.25 9.75 C3.25 10.74 3.25 11.73 3.25 12.75 C0 13.5 0 13.5 -3.75 13.75 C-6.1875 12.1875 -6.1875 12.1875 -7.75 9.75 C-8.35975382 6.09147708 -8.19543026 4.44487121 -6.1875 1.3125 C-3.75 -0.25 -3.75 -0.25 0 0 Z " fill="#EEEEEE" transform="translate(42.75,30.25)"/>
<path d="M0 0 C2.3125 1.8125 2.3125 1.8125 4 4 C4 4.99 4 5.98 4 7 C-0.29 7 -4.58 7 -9 7 C-8.67 5.35 -8.34 3.7 -8 2 C-4.75173326 -0.16551116 -3.76905843 -0.55156953 0 0 Z " fill="#E2E2E2" transform="translate(373,167)"/>
<path d="M0 0 C3.3 0 6.6 0 10 0 C10 0.66 10 1.32 10 2 C7.69 2 5.38 2 3 2 C3 2.99 3 3.98 3 5 C4.98 5 6.96 5 9 5 C9 5.99 9 6.98 9 8 C7.02 8 5.04 8 3 8 C3 9.65 3 11.3 3 13 C2.01 13 1.02 13 0 13 C0 8.71 0 4.42 0 0 Z " fill="#F0F0F0" transform="translate(133,31)"/>
<path d="M0 0 C0.556875 0.391875 1.11375 0.78375 1.6875 1.1875 C1.6875 7.1875 1.6875 7.1875 0.4375 8.9375 C-1.3125 10.1875 -1.3125 10.1875 -3.5 9.875 C-4.098125 9.648125 -4.69625 9.42125 -5.3125 9.1875 C-5.3125 8.8575 -5.3125 8.5275 -5.3125 8.1875 C-6.3025 7.8575 -7.2925 7.5275 -8.3125 7.1875 C-8.125 4.875 -8.125 4.875 -7.3125 2.1875 C-3.3125 -1.16385135 -3.3125 -1.16385135 0 0 Z " fill="#D7D7D7" transform="translate(41.3125,241.8125)"/>
<path d="M0 0 C2.64 0 5.28 0 8 0 C8 2.64 8 5.28 8 8 C5.36 8 2.72 8 0 8 C0 5.36 0 2.72 0 0 Z " fill="#101010" transform="translate(201,150)"/>
<path d="M0 0 C2.64 0 5.28 0 8 0 C8 2.64 8 5.28 8 8 C5.36 8 2.72 8 0 8 C0 5.36 0 2.72 0 0 Z " fill="#0C0C0C" transform="translate(290,95)"/>
<path d="M0 0 C2.64 0 5.28 0 8 0 C8 2.64 8 5.28 8 8 C5.36 8 2.72 8 0 8 C0 5.36 0 2.72 0 0 Z " fill="#0D0D0D" transform="translate(72,95)"/>
<path d="M0 0 C2.97 0 5.94 0 9 0 C9 0.66 9 1.32 9 2 C6.69 2 4.38 2 2 2 C2 2.99 2 3.98 2 5 C3.98 5 5.96 5 8 5 C8 5.66 8 6.32 8 7 C6.02 7 4.04 7 2 7 C2 7.99 2 8.98 2 10 C4.31 10 6.62 10 9 10 C9 10.66 9 11.32 9 12 C6.03 12 3.06 12 0 12 C0 8.04 0 4.08 0 0 Z " fill="#FDFDFD" transform="translate(96,31)"/>
<path d="M0 0 C3.63 0 7.26 0 11 0 C11 0.66 11 1.32 11 2 C9.68 2 8.36 2 7 2 C7 5.63 7 9.26 7 13 C6.01 13 5.02 13 4 13 C4 9.37 4 5.74 4 2 C2.68 2 1.36 2 0 2 C0 1.34 0 0.68 0 0 Z " fill="#F2F2F2" transform="translate(81,31)"/>
<path d="M0 0 C2.625 0.375 2.625 0.375 5 1 C5.625 3.375 5.625 3.375 6 6 C5.34 6.66 4.68 7.32 4 8 C1.375 7.625 1.375 7.625 -1 7 C-1.625 4.625 -1.625 4.625 -2 2 C-1.34 1.34 -0.68 0.68 0 0 Z " fill="#505050" transform="translate(151,33)"/>
<path d="M0 0 C0.99 0 1.98 0 3 0 C3 4.95 3 9.9 3 15 C2.01 15 1.02 15 0 15 C0 10.05 0 5.1 0 0 Z " fill="#222222" transform="translate(237,242)"/>
<path d="M0 0 C0.33 0 0.66 0 1 0 C1.36103536 1.81114432 1.71365504 3.62396823 2.0625 5.4375 C2.25972656 6.44683594 2.45695312 7.45617187 2.66015625 8.49609375 C2.77230469 9.32238281 2.88445313 10.14867188 3 11 C2.67 11.33 2.34 11.66 2 12 C1.84285346 13.63256758 1.74914586 15.27135338 1.68359375 16.91015625 C1.64169922 17.89951172 1.59980469 18.88886719 1.55664062 19.90820312 C1.51732422 20.94912109 1.47800781 21.99003906 1.4375 23.0625 C1.39431641 24.10728516 1.35113281 25.15207031 1.30664062 26.22851562 C1.20018775 28.81886884 1.0981724 31.40932186 1 34 C0.67 34 0.34 34 0 34 C0 22.78 0 11.56 0 0 Z " fill="#E0E0E0" transform="translate(31,103)"/>
<path d="M0 0 C0.33 0 0.66 0 1 0 C1.32152515 3.53677664 1.4131192 5.3962104 -0.625 8.375 C-3.6037896 10.4131192 -5.46322336 10.32152515 -9 10 C-7 7 -7 7 -3.9375 5.5625 C-0.85927303 4.33047039 -0.85927303 4.33047039 -0.125 1.8125 C-0.08375 1.214375 -0.0425 0.61625 0 0 Z " fill="#E0E0E0" transform="translate(159,34)"/>
<path d="M0 0 C4.44936709 -0.36075949 4.44936709 -0.36075949 6.8125 1.1875 C8.36678206 3.55982525 8.22537188 5.22041345 8 8 C7.01 8.495 7.01 8.495 6 9 C5.731875 8.21625 5.46375 7.4325 5.1875 6.625 C4.15185568 3.71885077 4.15185568 3.71885077 1 2 C0.67 1.34 0.34 0.68 0 0 Z " fill="#EBEBEB" transform="translate(151,30)"/>
<path d="M0 0 C1.65 0 3.3 0 5 0 C5 1.32 5 2.64 5 4 C3.35 4 1.7 4 0 4 C0 2.68 0 1.36 0 0 Z " fill="#F5F5F5" transform="translate(143,245)"/>
<path d="M0 0 C1.65 0 3.3 0 5 0 C5 1.32 5 2.64 5 4 C3.35 4 1.7 4 0 4 C0 2.68 0 1.36 0 0 Z " fill="#636363" transform="translate(167,33)"/>
<path d="M0 0 C2.31 0.33 4.62 0.66 7 1 C6.67 1.99 6.34 2.98 6 4 C4.02 3.34 2.04 2.68 0 2 C0 1.34 0 0.68 0 0 Z " fill="#E4E4E4" transform="translate(172,245)"/>
<path d="M0 0 C2.31 0.33 4.62 0.66 7 1 C6.67 1.99 6.34 2.98 6 4 C4.02 3.34 2.04 2.68 0 2 C0 1.34 0 0.68 0 0 Z " fill="#EFEFEF" transform="translate(210,245)"/>
<path d="M0 0 C2.475 0.495 2.475 0.495 5 1 C4.67 1.99 4.34 2.98 4 4 C2.68 4 1.36 4 0 4 C0 2.68 0 1.36 0 0 Z " fill="#585858" transform="translate(113,33)"/>
<path d="M0 0 C2.31 0.33 4.62 0.66 7 1 C7 1.99 7 2.98 7 4 C5.35 3.67 3.7 3.34 2 3 C2 2.34 2 1.68 2 1 C1.34 0.67 0.68 0.34 0 0 Z " fill="#DCDCDC" transform="translate(39,30)"/>
<path d="M0 0 C0.66 0.66 1.32 1.32 2 2 C1.625 4.625 1.625 4.625 1 7 C0.01 6.67 -0.98 6.34 -2 6 C-1.125 1.125 -1.125 1.125 0 0 Z " fill="#BDBDBD" transform="translate(35,243)"/>
</svg>
