<?xml version="1.0" encoding="UTF-8"?>
<svg version="1.1" xmlns="http://www.w3.org/2000/svg" width="500" height="283">
<path d="M0 0 C165 0 330 0 500 0 C500 93.39 500 186.78 500 283 C335 283 170 283 0 283 C0 189.61 0 96.22 0 0 Z " fill="#FDFDFD" transform="translate(0,0)"/>
<path d="M0 0 C53.46 0 106.92 0 162 0 C162 11.22 162 22.44 162 34 C108.54 34 55.08 34 0 34 C0 22.78 0 11.56 0 0 Z " fill="#474747" transform="translate(35,28)"/>
<path d="M0 0 C15 0 15 0 18.65234375 3.4296875 C19.87304687 5.58984375 19.87304687 5.58984375 20.9375 7.875 C21.34677734 8.62136719 21.75605469 9.36773437 22.17773438 10.13671875 C25 15.40178571 25 15.40178571 25 18 C25.66 18 26.32 18 27 18 C27.26425781 17.31550781 27.52851562 16.63101563 27.80078125 15.92578125 C29.16149583 12.60599225 30.56043705 9.38774964 32.1875 6.1875 C32.73792969 5.02605469 33.28835937 3.86460938 33.85546875 2.66796875 C37 0 37 0 52 0 C52 16.17 52 32.34 52 49 C47.71 49 43.42 49 39 49 C37.28556781 47.28556781 37.76947033 44.99554759 37.68359375 42.65234375 C37.64169922 41.57275391 37.59980469 40.49316406 37.55664062 39.38085938 C37.51732422 38.24455078 37.47800781 37.10824219 37.4375 35.9375 C37.39431641 34.79732422 37.35113281 33.65714844 37.30664062 32.48242188 C37.20017262 29.65510492 37.09954738 26.82756908 37 24 C33.7 28.95 30.4 33.9 27 39 C22.78996899 37.59665633 21.52493516 34.54594831 19.3125 30.9375 C17.1778125 27.5034375 17.1778125 27.5034375 15 24 C14.67 32.25 14.34 40.5 14 49 C9.38 49 4.76 49 0 49 C0 32.83 0 16.66 0 0 Z " fill="#2A2A2A" transform="translate(38,80)"/>
<path d="M0 0 C4.62 0 9.24 0 14 0 C14 16.83 14 33.66 14 51 C9.38 51 4.76 51 0 51 C-0.33 50.01 -0.66 49.02 -1 48 C-1.804375 48.495 -2.60875 48.99 -3.4375 49.5 C-7.83350212 51.35094826 -11.29712657 51.74433968 -16 51 C-20.93110762 48.62927518 -25.04368063 45.1975095 -27 40 C-27.89654794 33.09513484 -28.48289188 25.50449531 -24.9375 19.25 C-21.76231835 15.21858959 -18.17326127 12.6008542 -13.01953125 11.625 C-7.65895068 11.29320391 -4.4016046 13.06559693 0 16 C0 10.72 0 5.44 0 0 Z " fill="#282828" transform="translate(185,78)"/>
<path d="M0 0 C4.29 0 8.58 0 13 0 C13 16.83 13 33.66 13 51 C8.71 51 4.42 51 0 51 C-0.33 50.01 -0.66 49.02 -1 48 C-1.598125 48.495 -2.19625 48.99 -2.8125 49.5 C-7.51472923 51.71281375 -11.88650527 51.55531164 -17 51 C-22.42269362 48.92322372 -24.58128532 44.62462215 -27.25 39.6875 C-29.41190924 31.94065855 -27.89107963 24.95639959 -24 18 C-19.75041449 13.8515951 -16.9683866 12.83572205 -11.125 12.75 C-10.07570312 12.72421875 -9.02640625 12.6984375 -7.9453125 12.671875 C-5 13 -5 13 -1 16 C-0.67 10.72 -0.34 5.44 0 0 Z " fill="#242424" transform="translate(147,143)"/>
<path d="M0 0 C12.87 0 25.74 0 39 0 C39 3.63 39 7.26 39 11 C30.75 11 22.5 11 14 11 C14 13.64 14 16.28 14 19 C21.59 19 29.18 19 37 19 C37 22.3 37 25.6 37 29 C29.41 29 21.82 29 14 29 C14 31.64 14 34.28 14 37 C22.58 37 31.16 37 40 37 C40 40.96 40 44.92 40 49 C26.8 49 13.6 49 0 49 C0 32.83 0 16.66 0 0 Z " fill="#282828" transform="translate(243,80)"/>
<path d="M0 0 C28.24137931 0 28.24137931 0 35.875 4.8125 C39.52346096 8.56826863 40.85000054 11.67143339 41.4375 16.875 C41.19015943 22.74371722 38.71867983 27.32538888 34.5625 31.375 C29.50253153 34.58376049 25.68900607 35.23717768 19.6875 35.125 C16.3771875 35.063125 16.3771875 35.063125 13 35 C13 39.62 13 44.24 13 49 C8.71 49 4.42 49 0 49 C0 32.83 0 16.66 0 0 Z " fill="#242424" transform="translate(186,145)"/>
<path d="M0 0 C5.27490353 1.88893276 8.93060705 5.33452271 12 10 C13.99374888 15.98124663 13.99908576 22.67434022 11.3125 28.4375 C8.36876132 33.50612048 4.50180962 36.15829254 -1 38 C-8.34197341 38.83331837 -15.33721572 39.15104282 -21.44921875 34.5703125 C-24.01770635 31.96947619 -25.44089051 29.30531212 -27 26 C-27.33 25.34 -27.66 24.68 -28 24 C-28.82565594 17.65424438 -28.23446114 13.00822308 -24.50390625 7.7578125 C-17.47095108 -0.46252472 -10.32805379 -0.9486035 0 0 Z " fill="#242424" transform="translate(256,156)"/>
<path d="M0 0 C4.29 0 8.58 0 13 0 C13.33 5.28 13.66 10.56 14 16 C15.98 14.68 17.96 13.36 20 12 C24.28430267 10.92892433 27.41847838 11.70375314 31.3125 13.6875 C35.05133335 16.90463567 36.83010586 19.3430754 37.34057617 24.3215332 C37.3170105 26.16751099 37.3170105 26.16751099 37.29296875 28.05078125 C37.28872391 28.70958786 37.28447906 29.36839447 37.28010559 30.04716492 C37.26341196 32.13603885 37.22578058 34.22392139 37.1875 36.3125 C37.17244097 37.73501203 37.15875469 39.1575393 37.14648438 40.58007812 C37.11609963 44.0540677 37.0573699 47.52593406 37 51 C32.71 51 28.42 51 24 51 C23.95101563 49.29070312 23.90203125 47.58140625 23.8515625 45.8203125 C23.77654442 43.58852471 23.70099619 41.3567547 23.625 39.125 C23.5940625 37.99707031 23.563125 36.86914062 23.53125 35.70703125 C23.49257813 34.63066406 23.45390625 33.55429688 23.4140625 32.4453125 C23.36693115 30.95281982 23.36693115 30.95281982 23.31884766 29.43017578 C23.22752917 26.82145483 23.22752917 26.82145483 21 25 C18.69 25 16.38 25 14 25 C13.67 33.25 13.34 41.5 13 50 C8.71 50 4.42 50 0 50 C0 33.5 0 17 0 0 Z " fill="#242424" transform="translate(317,78)"/>
<path d="M0 0 C4.46326021 1.4877534 6.91981553 3.41868438 9.19067383 7.57250977 C11.03923891 13.11708974 10.39807897 19.16032462 10.25 24.9375 C10.22990673 26.30270821 10.21166094 27.66794493 10.1953125 29.03320312 C10.14835036 32.35577472 10.07661289 35.67797985 10 39 C5.38 39 0.76 39 -4 39 C-4.06058594 37.20691406 -4.12117188 35.41382813 -4.18359375 33.56640625 C-4.26797849 31.23176176 -4.35262751 28.89712681 -4.4375 26.5625 C-4.47681641 25.37849609 -4.51613281 24.19449219 -4.55664062 22.97460938 C-4.59853516 21.84990234 -4.64042969 20.72519531 -4.68359375 19.56640625 C-4.72025146 18.52427979 -4.75690918 17.48215332 -4.79467773 16.40844727 C-4.73515341 14.0500174 -4.73515341 14.0500174 -6 13 C-9 12.83333333 -9 12.83333333 -12 13 C-13.74506615 14.74506615 -13.23282784 17.19039143 -13.31640625 19.56640625 C-13.35830078 20.69111328 -13.40019531 21.81582031 -13.44335938 22.97460938 C-13.48267578 24.15861328 -13.52199219 25.34261719 -13.5625 26.5625 C-13.60568359 27.75037109 -13.64886719 28.93824219 -13.69335938 30.16210938 C-13.79983453 33.10792197 -13.90045681 36.05394502 -14 39 C-18.62 39 -23.24 39 -28 39 C-28 26.46 -28 13.92 -28 1 C-23.38 1 -18.76 1 -14 1 C-13.67 1.99 -13.34 2.98 -13 4 C-12.154375 3.34 -11.30875 2.68 -10.4375 2 C-6.45336991 -0.31803932 -4.53455517 -0.5668194 0 0 Z " fill="#2D2D2D" transform="translate(144,90)"/>
<path d="M0 0 C1.08764648 -0.03673828 1.08764648 -0.03673828 2.19726562 -0.07421875 C7.77237916 -0.10427327 11.03144969 1.08479494 15.5625 4.375 C18.57817127 8.35598431 18.92071178 11.27030878 18.85546875 16.20703125 C18.8409668 18.14545898 18.8409668 18.14545898 18.82617188 20.12304688 C18.80110985 21.4778707 18.77571506 22.83268841 18.75 24.1875 C18.73494013 25.56183445 18.72125401 26.93618468 18.70898438 28.31054688 C18.67366872 31.66553404 18.61986316 35.02031738 18.5625 38.375 C14.2725 38.375 9.9825 38.375 5.5625 38.375 C5.2325 37.715 4.9025 37.055 4.5625 36.375 C4.02496094 36.69597656 3.48742187 37.01695312 2.93359375 37.34765625 C-1.61956228 39.32044049 -6.58795226 39.04413159 -11.4375 38.375 C-14.41111086 36.15936838 -15.80709793 34.63580415 -17.4375 31.375 C-17.97766597 26.86771349 -18.04072525 23.42505877 -15.75 19.4375 C-11.03948885 15.2362333 -6.9309851 15.16010412 -0.83984375 15.20703125 C1.41537725 15.36471337 3.3954974 15.74942188 5.5625 16.375 C5.21463292 14.39963255 5.21463292 14.39963255 4.5625 12.375 C1.49716836 10.84233418 -1.70504272 11.27223529 -5.0625 11.3125 C-6.12210938 11.31926758 -6.12210938 11.31926758 -7.203125 11.32617188 C-8.94795275 11.33796125 -10.692737 11.35589676 -12.4375 11.375 C-13.0975 8.405 -13.7575 5.435 -14.4375 2.375 C-9.4957585 0.42328535 -5.23175078 0.00925155 0 0 Z " fill="#262626" transform="translate(53.4375,155.625)"/>
<path d="M0 0 C4.62 0 9.24 0 14 0 C14.33 0.99 14.66 1.98 15 3 C15.54914063 2.5153125 16.09828125 2.030625 16.6640625 1.53125 C20.77483069 -1.16343416 25.26633685 -0.75246091 30 0 C33.17282395 1.66019858 35.37590133 3.75180266 37 7 C37.08586809 9.32416296 37.10711043 11.65083307 37.09765625 13.9765625 C37.0962413 14.66181 37.09482635 15.3470575 37.09336853 16.05307007 C37.08776675 18.24375761 37.07521406 20.4343433 37.0625 22.625 C37.05748522 24.10937352 37.05292228 25.59374865 37.04882812 27.078125 C37.03779677 30.71878315 37.02053099 34.35938164 37 38 C32.71 38 28.42 38 24 38 C23.95101562 36.29070312 23.90203125 34.58140625 23.8515625 32.8203125 C23.77654442 30.58852471 23.70099619 28.3567547 23.625 26.125 C23.5940625 24.99707031 23.563125 23.86914062 23.53125 22.70703125 C23.49257812 21.63066406 23.45390625 20.55429688 23.4140625 19.4453125 C23.36693115 17.95281982 23.36693115 17.95281982 23.31884766 16.43017578 C23.22752917 13.82145483 23.22752917 13.82145483 21 12 C18.45809998 11.7499227 18.45809998 11.7499227 16 12 C14.25493385 13.74506615 14.76717216 16.19039143 14.68359375 18.56640625 C14.64169922 19.69111328 14.59980469 20.81582031 14.55664062 21.97460938 C14.51732422 23.15861328 14.47800781 24.34261719 14.4375 25.5625 C14.39431641 26.75037109 14.35113281 27.93824219 14.30664062 29.16210938 C14.20016547 32.10792197 14.09954319 35.05394502 14 38 C9.38 38 4.76 38 0 38 C0 25.46 0 12.92 0 0 Z " fill="#282828" transform="translate(78,156)"/>
<path d="M0 0 C4.62 0 9.24 0 14 0 C17.465 10.395 17.465 10.395 21 21 C23.31 14.07 25.62 7.14 28 0 C32.62 0 37.24 0 42 0 C39.39120972 7.68760539 36.72665639 15.3533794 34 23 C33.65308105 23.97533691 33.30616211 24.95067383 32.94873047 25.95556641 C31.97019736 28.66806582 30.96013766 31.36636265 29.9375 34.0625 C29.64617187 34.87557617 29.35484375 35.68865234 29.0546875 36.52636719 C26.89918019 42.07143308 24.16971154 45.89731657 19 49 C13.84091487 50.23902044 9.17951156 49.47980131 4.3125 47.5 C3.549375 47.005 2.78625 46.51 2 46 C2.99 43.03 3.98 40.06 5 37 C7.97 37.33 10.94 37.66 14 38 C11.33813839 29.59085162 8.22219694 21.48015739 4.75 13.375 C3.84575874 11.25917705 2.94454902 9.14205506 2.046875 7.0234375 C1.65338867 6.10481934 1.25990234 5.18620117 0.85449219 4.23974609 C0 2 0 2 0 0 Z " fill="#262626" transform="translate(345,156)"/>
<path d="M0 0 C-1.11756266 3.86848614 -2.02873292 6.28922757 -5 9 C-5.79664063 8.67515625 -5.79664063 8.67515625 -6.609375 8.34375 C-7.31578125 8.0653125 -8.0221875 7.786875 -8.75 7.5 C-9.44609375 7.2215625 -10.1421875 6.943125 -10.859375 6.65625 C-13.26422695 5.80459673 -13.26422695 5.80459673 -17 6 C-17.33 6.99 -17.66 7.98 -18 9 C-17.27554687 9.17015625 -16.55109375 9.3403125 -15.8046875 9.515625 C-8.73287308 11.28829315 -3.20720723 12.68918915 1 19 C1.33543441 23.15938672 1.40733724 25.92175435 -0.0625 29.8125 C-3.45824208 33.64640235 -6.83948981 34.75047629 -11.7734375 35.3203125 C-18.80967035 35.59163253 -24.83893594 34.53905986 -31 31 C-31.33 30.34 -31.66 29.68 -32 29 C-30.35 26.69 -28.7 24.38 -27 22 C-25.845 22.474375 -24.69 22.94875 -23.5 23.4375 C-19.31429668 25.02208768 -15.44761014 25.60289195 -11 26 C-11.33 25.01 -11.66 24.02 -12 23 C-14.88164177 21.66681759 -14.88164177 21.66681759 -18.3125 20.5625 C-23.56857613 18.77908335 -27.42921675 17.1415665 -30 12 C-30.57426836 4.99392601 -30.57426836 4.99392601 -28.375 1.1875 C-19.34738434 -7.12740916 -10.31368099 -4.31825148 0 0 Z " fill="#252525" transform="translate(446,94)"/>
<path d="M0 0 C4.11254388 1.44050992 6.66962826 4.3749773 9 8 C7.93106782 9.03590338 6.84421512 10.05333942 5.75 11.0625 C5.14671875 11.63097656 4.5434375 12.19945312 3.921875 12.78515625 C2 14 2 14 -0.171875 13.74609375 C-2 13 -2 13 -3 12 C-7.64064337 11.59096936 -7.64064337 11.59096936 -11.9375 13.0625 C-14.17661541 17.1455928 -13.17310242 21.69547096 -12 26 C-5.99923438 26.37957927 -5.99923438 26.37957927 -0.375 24.6875 C2 24 2 24 3.85546875 24.98046875 C5.64112288 26.25288097 7.33706473 27.57188844 9 29 C8.33569507 31.65721974 7.66303927 33.49228228 5.44921875 35.1875 C-0.04490746 38.38750499 -4.56361481 39.62287599 -11 39 C-18.02540364 36.39118293 -22.50463047 33.36689667 -26.25 26.8125 C-27.59666965 21.76248883 -28.08541594 16.68326 -26.08984375 11.75 C-19.73079975 0.95393816 -12.1107679 -1.00578618 0 0 Z " fill="#262626" transform="translate(336,156)"/>
<path d="M0 0 C2.35686672 1.27153758 4.03150731 2.88068201 5.73046875 4.93359375 C4.23211647 9.59513417 0.84583284 10.79970126 -3.26953125 12.93359375 C-3.82640625 12.43859375 -4.38328125 11.94359375 -4.95703125 11.43359375 C-7.69711289 9.6562435 -9.06326149 9.60474557 -12.26953125 9.93359375 C-13.25953125 10.26359375 -14.24953125 10.59359375 -15.26953125 10.93359375 C-16.71068054 15.25704162 -17.05703298 19.12697214 -15.20703125 23.37109375 C-12.24062538 25.76335655 -9.97098097 25.31650234 -6.26953125 24.93359375 C-5.44453125 24.50046875 -4.61953125 24.06734375 -3.76953125 23.62109375 C-1.26953125 22.93359375 -1.26953125 22.93359375 0.59375 23.9140625 C2.37463024 25.18815918 4.06968793 26.50733241 5.73046875 27.93359375 C4.00639288 32.32215052 0.90073002 34.84846312 -3.26953125 36.93359375 C-10.19331955 37.47993213 -16.27809173 37.64828625 -22.26953125 33.93359375 C-27.63157418 29.00698354 -29.87396421 24.38067793 -30.70703125 17.12109375 C-30.51827355 11.92528957 -28.54190837 7.9176762 -25.26953125 3.93359375 C-17.28510678 -2.84064791 -9.56809871 -3.9914823 0 0 Z " fill="#252525" transform="translate(407.26953125,92.06640625)"/>
<path d="M0 0 C4.29 0 8.58 0 13 0 C13 2.97 13 5.94 13 9 C15.97 9 18.94 9 22 9 C22 12.63 22 16.26 22 20 C19.03 20 16.06 20 13 20 C13.33 24.95 13.66 29.9 14 35 C17.465 35.495 17.465 35.495 21 36 C21 38.97 21 41.94 21 45 C16.07620388 47.46189806 12.40859938 47.56102165 7 47 C3.85612343 45.75554886 2.5415632 44.95436311 0.8828125 42.03125 C-0.4131609 37.58135905 -0.20965311 33.29458271 -0.125 28.6875 C-0.11597656 27.75615234 -0.10695313 26.82480469 -0.09765625 25.86523438 C-0.07418263 23.5765564 -0.04134729 21.28841328 0 19 C-1.32 19 -2.64 19 -4 19 C-4 15.7 -4 12.4 -4 9 C-2.68 9 -1.36 9 0 9 C0 6.03 0 3.06 0 0 Z " fill="#232323" transform="translate(290,82)"/>
<path d="M0 0 C8.58 0 17.16 0 26 0 C26 8.58 26 17.16 26 26 C17.42 26 8.84 26 0 26 C0 17.42 0 8.84 0 0 Z " fill="#4A4A4A" transform="translate(41,229)"/>
<path d="M0 0 C4.29 0 8.58 0 13 0 C13 16.83 13 33.66 13 51 C8.71 51 4.42 51 0 51 C0 34.17 0 17.34 0 0 Z " fill="#242424" transform="translate(273,143)"/>
<path d="M0 0 C4.62 0 9.24 0 14 0 C14 12.54 14 25.08 14 38 C9.38 38 4.76 38 0 38 C0 25.46 0 12.92 0 0 Z " fill="#313131" transform="translate(292,156)"/>
<path d="M0 0 C4.29 0 8.58 0 13 0 C13 12.21 13 24.42 13 37 C8.71 37 4.42 37 0 37 C0 24.79 0 12.58 0 0 Z " fill="#212121" transform="translate(360,91)"/>
<path d="M0 0 C4.29 0 8.58 0 13 0 C13 12.21 13 24.42 13 37 C8.71 37 4.42 37 0 37 C0 24.79 0 12.58 0 0 Z " fill="#212121" transform="translate(97,91)"/>
<path d="M0 0 C0.99 0 1.98 0 3 0 C7 0 11 0 15 0 C15 0.99 15 1.98 15 3 C12.36 3 9.72 3 7 3 C7 3.99 7 4.98 7 6 C9.31 6 11.62 6 14 6 C14 6.99 14 7.98 14 9 C11.69 9 9.38 9 7 9 C7 9.66 7 10.32 7 11 C9.64 11 12.28 11 15 11 C15 11.99 15 12.98 15 14 C10 14 5 14 0 14 C-1.11375 14.268125 -2.2275 14.53625 -3.375 14.8125 C-7 15 -7 15 -9.9375 12.9375 C-12 10 -12 10 -12.5625 6.9375 C-12 4 -12 4 -10.5 1.625 C-6.83856577 -0.75493225 -4.3369809 -0.27536387 0 0 Z " fill="#F2F2F2" transform="translate(284,235)"/>
<path d="M0 0 C4.62 0 9.24 0 14 0 C14.0816082 2.37570543 14.14077222 4.74855841 14.1875 7.125 C14.21263672 7.79015625 14.23777344 8.4553125 14.26367188 9.140625 C14.33333151 13.87748 13.50989546 16.99359411 11 21 C7.74040931 23.75254325 5.90137718 24.93323132 1.625 25.25 C0.75875 25.1675 -0.1075 25.085 -1 25 C-1 23.02 -1 21.04 -1 19 C-0.195625 18.731875 0.60875 18.46375 1.4375 18.1875 C2.283125 17.795625 3.12875 17.40375 4 17 C4.33 16.01 4.66 15.02 5 14 C3.35 14 1.7 14 0 14 C0 9.38 0 4.76 0 0 Z " fill="#2B2B2B" transform="translate(450,115)"/>
<path d="M0 0 C4.29 0 8.58 0 13 0 C13.08126109 2.72977064 13.14061663 5.4571017 13.1875 8.1875 C13.22520508 9.34088867 13.22520508 9.34088867 13.26367188 10.51757812 C13.32377656 15.18570887 13.0554562 18.22182465 10 22 C6.22433034 24.38031348 3.46192275 25.39369907 -1 25 C-1 23.35 -1 21.7 -1 20 C-0.195625 19.773125 0.60875 19.54625 1.4375 19.3125 C2.283125 18.879375 3.12875 18.44625 4 18 C4.89386164 15.45224694 4.89386164 15.45224694 5 13 C3.35 13 1.7 13 0 13 C0 8.71 0 4.42 0 0 Z " fill="#232323" transform="translate(205,115)"/>
<path d="M0 0 C4.07139403 1.40648157 5.44715676 2.37267546 7.4375 6.1875 C7.4375 10.14274221 7.00581266 12.36660394 4.75 15.625 C1.69972457 17.68599691 0.05110931 17.78976822 -3.5625 17.1875 C-6.74146089 15.03955345 -7.46994986 13.4814828 -8.625 9.8125 C-8.56411882 6.28139174 -8.48083034 5.40988299 -6.5625 2.6875 C-3.5625 0.1875 -3.5625 0.1875 0 0 Z " fill="#F5F5F5" transform="translate(178.5625,100.8125)"/>
<path d="M0 0 C3.00342896 2.05497771 3.83287356 3.47633714 4.9375 6.9375 C5.01221891 10.59872681 4.21363944 12.1304674 2 15 C-1.12860495 16.56430248 -3.55602925 16.35627284 -7 16 C-10.22456813 13.27151928 -10.91290117 11.62057913 -11.5 7.4375 C-11 4 -11 4 -9.4375 1.5625 C-6.05782196 -0.60396028 -3.94016013 -0.56288002 0 0 Z " fill="#F7F7F7" transform="translate(252,167)"/>
<path d="M0 0 C2.3125 1 2.3125 1 4 3 C4.80965452 7.30997911 4.73964316 10.78698522 2.4375 14.5625 C-0.98306617 16.57975697 -3.09873948 16.6269883 -7 16 C-9.93307135 13.44296344 -10.86097012 11.83417929 -11.5 8 C-10.88466097 4.30796584 -9.58383614 2.65983132 -7 0 C-4.25700998 -1.37149501 -2.91518346 -0.83290956 0 0 Z " fill="#F7F7F7" transform="translate(143,167)"/>
<path d="M0 0 C9.40212264 -0.27653302 9.40212264 -0.27653302 13 2 C14.39935013 4.79870027 14.25265405 6.90498792 14 10 C12.83984375 11.6796875 12.83984375 11.6796875 11 13 C7.29631297 13.40199208 3.73655831 13.13187853 0 13 C0 8.71 0 4.42 0 0 Z " fill="#F1F1F1" transform="translate(199,156)"/>
<path d="M0 0 C5.45949074 1.09189815 6.01471081 1.68791562 9 6 C9.33 4.02 9.66 2.04 10 0 C11.32 0 12.64 0 14 0 C14 4.95 14 9.9 14 15 C9.77000325 13.94250081 9.45069644 13.79967512 7.25 10.4375 C6.82203125 9.79683594 6.3940625 9.15617188 5.953125 8.49609375 C5.63859375 8.00238281 5.3240625 7.50867188 5 7 C4.67 9.64 4.34 12.28 4 15 C2.68 14.67 1.36 14.34 0 14 C0 9.38 0 4.76 0 0 Z " fill="#636363" transform="translate(73,235)"/>
<path d="M0 0 C3.96 0 7.92 0 12 0 C12 0.99 12 1.98 12 3 C9.36 3 6.72 3 4 3 C4 3.66 4 4.32 4 5 C6.31 5 8.62 5 11 5 C11 6.32 11 7.64 11 9 C8.69 9 6.38 9 4 9 C4 9.66 4 10.32 4 11 C6.64 11 9.28 11 12 11 C12 12.32 12 13.64 12 15 C10.18757948 15.02687279 8.37504767 15.04633715 6.5625 15.0625 C5.55316406 15.07410156 4.54382813 15.08570313 3.50390625 15.09765625 C1 15 1 15 0 14 C-0.07271741 11.64686445 -0.08370868 9.29166332 -0.0625 6.9375 C-0.05347656 5.64714844 -0.04445312 4.35679687 -0.03515625 3.02734375 C-0.02355469 2.02832031 -0.01195312 1.02929688 0 0 Z " fill="#515151" transform="translate(243,235)"/>
<path d="M0 0 C4.62 0 9.24 0 14 0 C14 3.3 14 6.6 14 10 C9.38 10 4.76 10 0 10 C0 6.7 0 3.4 0 0 Z " fill="#2C2C2C" transform="translate(292,143)"/>
<path d="M0 0 C4.62 0 9.24 0 14 0 C14 3.3 14 6.6 14 10 C9.38 10 4.76 10 0 10 C0 6.7 0 3.4 0 0 Z " fill="#303030" transform="translate(359,78)"/>
<path d="M0 0 C4.62 0 9.24 0 14 0 C14 3.3 14 6.6 14 10 C9.38 10 4.76 10 0 10 C0 6.7 0 3.4 0 0 Z " fill="#303030" transform="translate(97,78)"/>
<path d="M0 0 C1.60875 -0.04125 3.2175 -0.0825 4.875 -0.125 C5.77992188 -0.14820313 6.68484375 -0.17140625 7.6171875 -0.1953125 C10 0 10 0 12 2 C12.38286803 5.73296326 12.14915785 6.77626323 10 10 C10.30840599 12.15274948 10.30840599 12.15274948 11 14 C9.0625 13.625 9.0625 13.625 7 13 C6.67 12.34 6.34 11.68 6 11 C5.01 10.67 4.02 10.34 3 10 C3 11.32 3 12.64 3 14 C2.01 14 1.02 14 0 14 C0 9.38 0 4.76 0 0 Z " fill="#2C2C2C" transform="translate(147,235)"/>
<path d="M0 0 C1.4540625 0.0309375 1.4540625 0.0309375 2.9375 0.0625 C3.5625 2.375 3.5625 2.375 3.9375 5.0625 C2.9475 6.5475 2.9475 6.5475 1.9375 8.0625 C3.2575 7.7325 4.5775 7.4025 5.9375 7.0625 C5.9375 9.3725 5.9375 11.6825 5.9375 14.0625 C4.9475 14.0625 3.9575 14.0625 2.9375 14.0625 C1.1740625 14.371875 1.1740625 14.371875 -0.625 14.6875 C-1.759375 14.81125 -2.89375 14.935 -4.0625 15.0625 C-6.0625 13.0625 -6.0625 13.0625 -6.25 10.625 C-6.0625 8.0625 -6.0625 8.0625 -5.0625 5.0625 C-4.8975 4.36125 -4.7325 3.66 -4.5625 2.9375 C-3.72696213 -0.195767 -3.41702898 0.06973529 0 0 Z " fill="#454545" transform="translate(197.0625,234.9375)"/>
<path d="M0 0 C3.5625 0.3125 3.5625 0.3125 5.5 1.4375 C7.06672245 4.20230433 6.95226435 6.19438517 6.5625 9.3125 C5.5 11.1875 5.5 11.1875 3.5625 12.3125 C0.0625 12.75 0.0625 12.75 -3.4375 12.3125 C-5.4375 10.6875 -5.4375 10.6875 -6.4375 8.3125 C-6.12371717 3.0827861 -5.61102633 0.5100933 0 0 Z " fill="#F1F1F1" transform="translate(159.4375,38.6875)"/>
<path d="M0 0 C1.32 0 2.64 0 4 0 C5.484375 1.53125 5.484375 1.53125 6.75 3.5 C7.39195312 4.47453125 7.39195312 4.47453125 8.046875 5.46875 C8.36140625 5.9740625 8.6759375 6.479375 9 7 C9.33 4.69 9.66 2.38 10 0 C10.99 0 11.98 0 13 0 C13 4.62 13 9.24 13 14 C7.85139294 12.71284823 7.13538553 11.09341999 4 7 C3.67 9.31 3.34 11.62 3 14 C2.01 14 1.02 14 0 14 C0 9.38 0 4.76 0 0 Z " fill="#272727" transform="translate(257,235)"/>
<path d="M0 0 C3.63 0 7.26 0 11 0 C11 0.99 11 1.98 11 3 C8.36 3 5.72 3 3 3 C3 3.99 3 4.98 3 6 C5.31 6 7.62 6 10 6 C10 6.99 10 7.98 10 9 C7.69 9 5.38 9 3 9 C3 9.66 3 10.32 3 11 C5.64 11 8.28 11 11 11 C11 11.99 11 12.98 11 14 C7.37 14 3.74 14 0 14 C0 9.38 0 4.76 0 0 Z " fill="#363636" transform="translate(288,235)"/>
<path d="M0 0 C1.890625 0.09765625 1.890625 0.09765625 4 1 C5.484375 3.43359375 5.484375 3.43359375 6.75 6.4375 C7.39195312 7.92056641 7.39195312 7.92056641 8.046875 9.43359375 C9 12 9 12 9 14 C7.68 13.67 6.36 13.34 5 13 C5 12.34 5 11.68 5 11 C2.69 11 0.38 11 -2 11 C-2.33 11.99 -2.66 12.98 -3 14 C-3.99 13.67 -4.98 13.34 -6 13 C-5.1905146 11.01959844 -4.37732831 9.04070923 -3.5625 7.0625 C-3.11003906 5.96035156 -2.65757812 4.85820312 -2.19140625 3.72265625 C-1 1 -1 1 0 0 Z " fill="#3C3C3C" transform="translate(136,235)"/>
<path d="M0 0 C0.99 0 1.98 0 3 0 C3.33 3.3 3.66 6.6 4 10 C5.65 10 7.3 10 9 10 C9.33 6.7 9.66 3.4 10 0 C10.99 0 11.98 0 13 0 C13.61551853 9.91668739 13.61551853 9.91668739 11.4375 13.75 C7.92821869 15.54963144 5.73588519 15.03774589 2 14 C-0.28062828 10.57905758 -0.21925007 9.31812778 -0.125 5.3125 C-0.10695313 4.31863281 -0.08890625 3.32476562 -0.0703125 2.30078125 C-0.04710938 1.54152344 -0.02390625 0.78226563 0 0 Z " fill="#535353" transform="translate(104,235)"/>
<path d="M0 0 C0 1.32 0 2.64 0 4 C-2.31 4 -4.62 4 -7 4 C-7 5.98 -7 7.96 -7 10 C-4.69 10 -2.38 10 0 10 C0 11.32 0 12.64 0 14 C-3.1875 14.8125 -3.1875 14.8125 -7 15 C-10.46194162 12.56927503 -11.79395747 11.12178713 -12.5625 6.9375 C-12 4 -12 4 -10.5 1.625 C-6.86748926 -0.73613198 -4.28156703 -0.2854378 0 0 Z " fill="#393939" transform="translate(284,235)"/>
<path d="M0 0 C6.93359375 -0.09765625 6.93359375 -0.09765625 9 0 C10 1 10 1 10.0625 4.0625 C10.041875 5.031875 10.02125 6.00125 10 7 C9.34 7 8.68 7 8 7 C8.66 8.65 9.32 10.3 10 12 C7 12 7 12 4.8125 10 C4.214375 9.34 3.61625 8.68 3 8 C3 9.32 3 10.64 3 12 C2.01 12 1.02 12 0 12 C0 8.04 0 4.08 0 0 Z " fill="#D7D7D7" transform="translate(170,39)"/>
<path d="M0 0 C1.134375 0.020625 2.26875 0.04125 3.4375 0.0625 C3.4375 1.3825 3.4375 2.7025 3.4375 4.0625 C0.4675 3.5675 0.4675 3.5675 -2.5625 3.0625 C-2.5625 3.7225 -2.5625 4.3825 -2.5625 5.0625 C-0.2525 5.7225 2.0575 6.3825 4.4375 7.0625 C5.74986443 11.4768167 5.74986443 11.4768167 4.4375 13.9375 C1.33490743 15.68270832 -1.1898707 14.76247967 -4.5625 14.0625 C-4.5625 12.7425 -4.5625 11.4225 -4.5625 10.0625 C-1.5925 10.5575 -1.5925 10.5575 1.4375 11.0625 C0.4475 10.4025 -0.5425 9.7425 -1.5625 9.0625 C-2.90040641 8.06862666 -4.23468122 7.0698108 -5.5625 6.0625 C-4.48849278 0.07874549 -4.48849278 0.07874549 0 0 Z " fill="#343434" transform="translate(214.5625,234.9375)"/>
<path d="M0 0 C1.134375 0.020625 2.26875 0.04125 3.4375 0.0625 C3.4375 1.3825 3.4375 2.7025 3.4375 4.0625 C0.4675 3.5675 0.4675 3.5675 -2.5625 3.0625 C-2.5625 3.7225 -2.5625 4.3825 -2.5625 5.0625 C-0.2525 5.7225 2.0575 6.3825 4.4375 7.0625 C5.74986443 11.4768167 5.74986443 11.4768167 4.4375 13.9375 C1.33490743 15.68270832 -1.1898707 14.76247967 -4.5625 14.0625 C-4.5625 12.7425 -4.5625 11.4225 -4.5625 10.0625 C-1.5925 10.5575 -1.5925 10.5575 1.4375 11.0625 C0.4475 10.4025 -0.5425 9.7425 -1.5625 9.0625 C-2.90040641 8.06862666 -4.23468122 7.0698108 -5.5625 6.0625 C-4.48849278 0.07874549 -4.48849278 0.07874549 0 0 Z " fill="#343434" transform="translate(179.5625,234.9375)"/>
<path d="M0 0 C0 1.32 0 2.64 0 4 C-2.31 4 -4.62 4 -7 4 C-7 5.98 -7 7.96 -7 10 C-4.69 10 -2.38 10 0 10 C0 11.32 0 12.64 0 14 C-1 15 -1 15 -3.75 15.375 C-7 15 -7 15 -9.9375 12.9375 C-12 10 -12 10 -12 6.375 C-9.88018169 -0.77938681 -6.86490453 -0.33761826 0 0 Z " fill="#383838" transform="translate(233,235)"/>
<path d="M0 0 C6.0546875 -0.1953125 6.0546875 -0.1953125 8 0 C8.66 0.66 9.32 1.32 10 2 C9.70241581 4.3381615 9.36760731 6.67182036 9 9 C9.33 9.99 9.66 10.98 10 12 C6.73045798 11.43628586 5.17424117 10.50037734 3 8 C3 9.32 3 10.64 3 12 C2.01 12 1.02 12 0 12 C0 8.04 0 4.08 0 0 Z " fill="#DBDBDB" transform="translate(120,39)"/>
<path d="M0 0 C4.59037956 1.14759489 5.33669182 2.29039218 8 6 C8.33 4.02 8.66 2.04 9 0 C9.66 0 10.32 0 11 0 C11 3.96 11 7.92 11 12 C10.01 12 9.02 12 8 12 C5.8125 9 5.8125 9 4 6 C3.67 7.98 3.34 9.96 3 12 C2.01 12 1.02 12 0 12 C0 8.04 0 4.08 0 0 Z " fill="#EEEEEE" transform="translate(78,39)"/>
<path d="M0 0 C0.99 0.66 1.98 1.32 3 2 C3 2.99 3 3.98 3 5 C3.66 4.67 4.32 4.34 5 4 C4.625 5.9375 4.625 5.9375 4 8 C3.01 8.495 3.01 8.495 2 9 C1.31270746 11.11846285 1.31270746 11.11846285 0.875 13.5625 C0.70742188 14.38878906 0.53984375 15.21507812 0.3671875 16.06640625 C0.24601562 16.70449219 0.12484375 17.34257812 0 18 C-2.67597708 13.98603438 -4.63211735 10.0233546 -5.5 5.25 C-5 3 -5 3 -2.5 1.1875 C-1.675 0.795625 -0.85 0.40375 0 0 Z " fill="#DCDCDC" transform="translate(54,234)"/>
<path d="M0 0 C1.32 0 2.64 0 4 0 C5.75 2 5.75 2 7 4 C7.66 2.68 8.32 1.36 9 0 C10.32 0 11.64 0 13 0 C11.87548273 2.9719385 10.77706209 5.33440687 9 8 C8.60986284 9.9896995 8.26797351 11.99019869 8 14 C7.01 14 6.02 14 5 14 C4.731875 12.948125 4.46375 11.89625 4.1875 10.8125 C3.12838692 7.41218959 1.87464985 4.9823975 0 2 C0 1.34 0 0.68 0 0 Z " fill="#505050" transform="translate(89,235)"/>
<path d="M0 0 C1.23556641 0.01740234 1.23556641 0.01740234 2.49609375 0.03515625 C3.32238281 0.04417969 4.14867187 0.05320313 5 0.0625 C5.63808594 0.07410156 6.27617188 0.08570313 6.93359375 0.09765625 C7.12109375 2.97265625 7.12109375 2.97265625 6.93359375 6.09765625 C3.49252109 8.39170469 1.96519566 8.36058681 -2.06640625 8.09765625 C-3.06640625 7.09765625 -3.06640625 7.09765625 -3.19140625 4.09765625 C-3.02663038 0.14303546 -3.02663038 0.14303546 0 0 Z " fill="#F8F8F8" transform="translate(52.06640625,177.90234375)"/>
<path d="M0 0 C2.97 0 5.94 0 9 0 C9 0.66 9 1.32 9 2 C7.02 2 5.04 2 3 2 C3 2.99 3 3.98 3 5 C4.98 5 6.96 5 9 5 C9 5.66 9 6.32 9 7 C7.02 7 5.04 7 3 7 C3 7.99 3 8.98 3 10 C5.31 10 7.62 10 10 10 C10 10.66 10 11.32 10 12 C6.7 12 3.4 12 0 12 C0 8.04 0 4.08 0 0 Z " fill="#DBDBDB" transform="translate(106,39)"/>
<path d="M0 0 C4.29 0 8.58 0 13 0 C13 0.99 13 1.98 13 3 C11.35 3 9.7 3 8 3 C8 6.63 8 10.26 8 14 C7.01 14 6.02 14 5 14 C5 10.37 5 6.74 5 3 C3.35 3 1.7 3 0 3 C0 2.01 0 1.02 0 0 Z " fill="#303030" transform="translate(160,235)"/>
<path d="M0 0 C2.97 0 5.94 0 9 0 C9 0.66 9 1.32 9 2 C6.69 2 4.38 2 2 2 C2 2.99 2 3.98 2 5 C3.98 5 5.96 5 8 5 C8 5.66 8 6.32 8 7 C6.35 7 4.7 7 3 7 C3 7.99 3 8.98 3 10 C4.98 10 6.96 10 9 10 C9 10.66 9 11.32 9 12 C6.03 12 3.06 12 0 12 C0 8.04 0 4.08 0 0 Z " fill="#FAFAFA" transform="translate(65,39)"/>
<path d="M0 0 C0 0.99 0 1.98 0 3 C-1.65 3 -3.3 3 -5 3 C-5.33 4.65 -5.66 6.3 -6 8 C-3.50935112 8.68707555 -1.62113708 9 1 9 C0.67 9.99 0.34 10.98 0 12 C-6.3782235 12.36103152 -6.3782235 12.36103152 -8.9375 10.875 C-10.50422245 8.11019567 -10.38976435 6.11811483 -10 3 C-7.7109263 -1.03954182 -4.21983723 -0.23885871 0 0 Z " fill="#EFEFEF" transform="translate(60,39)"/>
<path d="M0 0 C2.97 0 5.94 0 9 0 C9 0.66 9 1.32 9 2 C7.02 2 5.04 2 3 2 C3 2.99 3 3.98 3 5 C4.65 5 6.3 5 8 5 C8 5.66 8 6.32 8 7 C6.35 7 4.7 7 3 7 C3 8.65 3 10.3 3 12 C2.01 12 1.02 12 0 12 C0 8.04 0 4.08 0 0 Z " fill="#F4F4F4" transform="translate(141,39)"/>
<path d="M0 0 C3.3 0 6.6 0 10 0 C10 0.66 10 1.32 10 2 C8.68 2 7.36 2 6 2 C6 5.3 6 8.6 6 12 C5.01 12 4.02 12 3 12 C3 9.03 3 6.06 3 3 C2.01 3 1.02 3 0 3 C0 2.01 0 1.02 0 0 Z " fill="#E4E4E4" transform="translate(93,39)"/>
<path d="M0 0 C3.69230769 0.69230769 3.69230769 0.69230769 5 2 C5.04063832 3.66617115 5.042721 5.33388095 5 7 C2.625 7.625 2.625 7.625 0 8 C-0.66 7.34 -1.32 6.68 -2 6 C-1.44444444 1.44444444 -1.44444444 1.44444444 0 0 Z " fill="#545454" transform="translate(158,41)"/>
<path d="M0 0 C0.99 0 1.98 0 3 0 C3 4.62 3 9.24 3 14 C2.01 14 1.02 14 0 14 C0 9.38 0 4.76 0 0 Z " fill="#242424" transform="translate(237,235)"/>
<path d="M0 0 C0.66 0.33 1.32 0.66 2 1 C1.67 1.33 1.34 1.66 1 2 C0.85363946 5.36629251 0.92806521 7.78419562 2 11 C0.68 10.67 -0.64 10.34 -2 10 C-2.6875 7.25 -2.6875 7.25 -3 4 C-1.5625 1.625 -1.5625 1.625 0 0 Z " fill="#E9E9E9" transform="translate(156,39)"/>
<path d="M0 0 C0 0.99 0 1.98 0 3 C-1.1446875 2.9690625 -1.1446875 2.9690625 -2.3125 2.9375 C-5.10185786 2.87057159 -5.10185786 2.87057159 -8 4 C-8.33 5.65 -8.66 7.3 -9 9 C-9.33 9 -9.66 9 -10 9 C-10.35789474 3.63157895 -10.35789474 3.63157895 -8.9375 1.125 C-5.99772876 -0.58196395 -3.32129197 -0.18799766 0 0 Z " fill="#E8E8E8" transform="translate(60,39)"/>
<path d="M0 0 C3 2 3 2 3.75 3.8125 C4.04654743 6.40729 3.63034051 8.47863795 3 11 C0.81024227 7.71536341 0.00193437 4.79303725 -1 1 C-0.67 0.67 -0.34 0.34 0 0 Z " fill="#9F9F9F" transform="translate(51,241)"/>
<path d="M0 0 C0.33 0.66 0.66 1.32 1 2 C2.65 1.34 4.3 0.68 6 0 C5.6875 1.875 5.6875 1.875 5 4 C4.01 4.66 3.02 5.32 2 6 C1.01 5.67 0.02 5.34 -1 5 C-0.67 3.35 -0.34 1.7 0 0 Z " fill="#C7C7C7" transform="translate(53,238)"/>
<path d="M0 0 C0.66 0 1.32 0 2 0 C2 0.66 2 1.32 2 2 C4.31 2 6.62 2 9 2 C9 2.66 9 3.32 9 4 C6.03 4 3.06 4 0 4 C0 2.68 0 1.36 0 0 Z " fill="#F8F8F8" transform="translate(107,47)"/>
<path d="M0 0 C1.65 0 3.3 0 5 0 C5 1.32 5 2.64 5 4 C3.35 4 1.7 4 0 4 C0 2.68 0 1.36 0 0 Z " fill="#F6F6F6" transform="translate(150,238)"/>
<path d="M0 0 C2.64 0 5.28 0 8 0 C8 0.66 8 1.32 8 2 C6.576875 2.185625 6.576875 2.185625 5.125 2.375 C1.91332809 2.71687177 1.91332809 2.71687177 0 5 C0 3.35 0 1.7 0 0 Z " fill="#F9F9F9" transform="translate(107,39)"/>
</svg>
