<?xml version="1.0" encoding="UTF-8"?>
<svg version="1.1" xmlns="http://www.w3.org/2000/svg" width="1398" height="402">
<path d="M0 0 C7.59 0 15.18 0 23 0 C24.84431248 5.53293744 26.55332156 10.82167081 27.98950195 16.43383789 C28.16562012 17.11836533 28.34173828 17.80289276 28.52319336 18.50816345 C29.09799893 20.74554361 29.66819954 22.98406824 30.23828125 25.22265625 C30.64534116 26.81146376 31.05266984 28.40020243 31.46025085 29.98887634 C32.53106607 34.16605635 33.59787912 38.34424868 34.66394043 42.52264404 C35.51777207 45.86637603 36.37448839 49.20936543 37.23137093 52.55231667 C44.24306548 79.90905923 44.24306548 79.90905923 46.90771484 90.68701172 C47.18826218 91.82101913 47.46880951 92.95502655 47.75785828 94.12339783 C48.26598514 96.18487029 48.77092747 98.24713141 49.27204895 100.31031799 C49.48931137 101.19332077 49.70657379 102.07632355 49.93041992 102.98608398 C50.11489182 103.74485336 50.29936371 104.50362274 50.48942566 105.28538513 C50.85642992 107.01506156 50.85642992 107.01506156 52 108 C52.21507407 107.19243523 52.21507407 107.19243523 52.43449306 106.36855602 C55.92206674 93.27359734 59.41068383 80.17891703 62.90042782 67.08453655 C64.58800354 60.75220885 66.27523076 54.41978871 67.96166992 48.0871582 C69.58830745 41.97913565 71.21584945 35.87135477 72.84402657 29.76374245 C73.46594215 27.43017017 74.08752832 25.09651008 74.7087841 22.76276207 C75.57704575 19.50135965 76.44646393 16.24026764 77.31616211 12.97924805 C77.57438751 12.00820633 77.83261292 11.03716461 78.09866333 10.03669739 C78.33563431 9.14908722 78.57260529 8.26147705 78.8167572 7.3469696 C79.02231704 6.57542888 79.22787687 5.80388815 79.43966579 5.0089674 C79.90949924 3.32447255 80.44698405 1.65904784 81 0 C90.9 0 100.8 0 111 0 C115.67981963 17.99660773 120.34654923 35.99655596 125 54 C125.32208435 55.24541565 125.6441687 56.4908313 125.97601318 57.77398682 C127.82725832 64.93431717 129.67297664 72.09603136 131.51065063 79.25985718 C132.08609592 81.50021929 132.66321973 83.74015094 133.24203491 85.97964478 C134.04874627 89.10246328 134.84937784 92.22677873 135.6484375 95.3515625 C135.88837936 96.27516068 136.12832123 97.19875885 136.37553406 98.15034485 C136.59111465 98.99872421 136.80669525 99.84710358 137.02880859 100.72119141 C137.3118837 101.82256943 137.3118837 101.82256943 137.60067749 102.94619751 C138 105 138 105 138 109 C138.66 109 139.32 109 140 109 C140.08306396 107.99090576 140.16612793 106.98181152 140.25170898 105.94213867 C141.11238101 99.12118934 143.15047056 92.53866075 144.97265625 85.92578125 C145.37851234 84.43739802 145.78389279 82.94888502 146.18882751 81.46025085 C147.25769696 77.53606203 148.33317801 73.61371491 149.41003418 69.69171143 C150.47474019 65.80926943 151.53294808 61.92505826 152.59179688 58.04101562 C154.45132619 51.22400184 156.31787561 44.40893943 158.18937111 37.59520149 C159.39219072 33.21589164 160.59244295 28.83589168 161.79019642 24.45519352 C162.53598094 21.7289626 163.28353606 19.00321956 164.03158379 16.27760887 C164.54679219 14.39851205 165.06004781 12.51888015 165.57325745 10.63923645 C165.87964645 9.52489731 166.18603546 8.41055817 166.50170898 7.26245117 C166.76837875 6.28910324 167.03504852 5.31575531 167.30979919 4.31291199 C168 2 168 2 169 0 C176.59 0 184.18 0 192 0 C189.40414352 10.54820733 186.65514876 21.02606538 183.69140625 31.4765625 C183.28354494 32.92158757 182.875897 34.36667287 182.46844482 35.81181335 C181.39079522 39.6317562 180.31026628 43.45087843 179.22903824 47.26980972 C178.10777244 51.23176443 176.98894592 55.19440787 175.86987305 59.15698242 C174.30281454 64.705018 172.73483996 70.25279319 171.16576099 75.80025768 C168.71283806 84.47293912 166.26794327 93.14784013 163.828125 101.82421875 C162.93361049 105.00214898 162.03887801 108.18001772 161.14401245 111.35784912 C160.5919171 113.31963455 160.0404188 115.28158811 159.48953247 117.24371338 C158.74097073 119.9090961 157.98995964 122.5737761 157.23828125 125.23828125 C157.02258484 126.00871262 156.80688843 126.77914398 156.58465576 127.57292175 C155.11413838 132.77172324 155.11413838 132.77172324 154 135 C143.77 135 133.54 135 123 135 C114.09 99.69 105.18 64.38 96 28 C85.25040046 67.6555483 85.25040046 67.6555483 74.75 107.375 C73.4764646 112.25847205 72.20011231 117.14119432 70.921875 122.0234375 C70.6397113 123.10934174 70.35754761 124.19524597 70.0668335 125.3140564 C69.80855774 126.300159 69.55028198 127.2862616 69.28417969 128.30224609 C69.05913757 129.16562592 68.83409546 130.02900574 68.60223389 130.91854858 C68 133 68 133 67 135 C56.77 135 46.54 135 36 135 C34.0949707 127.95898438 34.0949707 127.95898438 33.42865372 125.49626446 C32.28025686 121.25179619 31.13182333 117.00733785 29.9833374 112.76289368 C27.63280162 104.07598999 25.28240398 95.38904908 22.93278408 86.70189762 C21.61678779 81.83638344 20.30063111 76.97091265 18.984375 72.10546875 C18.59385043 70.661923 18.59385043 70.661923 18.19543648 69.18921471 C14.99768761 57.37004621 11.79376454 45.55259444 8.578125 33.73828125 C7.96310373 31.47657094 7.34811183 29.21485264 6.7331543 26.953125 C5.6435436 22.94587936 4.55079133 18.9395084 3.45629883 14.93359375 C2.98245585 13.19144127 2.50873235 11.44925629 2.03515625 9.70703125 C1.71813751 8.552351 1.71813751 8.552351 1.39471436 7.37434387 C0 2.22758636 0 2.22758636 0 0 Z " fill="#3B3B3B" transform="translate(755,232)"/>
<path d="M0 0 C6.20137495 4.32868251 10.73445205 10.22178644 13.12890625 17.44921875 C14.92391798 27.7174579 13.3870468 37.01827183 8.0546875 45.9296875 C2.3365913 53.97076028 -5.70147495 59.31168143 -14.5078125 63.52734375 C-7.65319849 72.04929631 0.68510846 79.01851864 8.93359375 86.15234375 C10.15954573 87.23388535 11.3361835 88.37133975 12.4921875 89.52734375 C19.54738888 81.09144705 23.10305808 71.5900222 25.75561523 61.05175781 C26.24710817 59.18506894 26.86040261 57.35133402 27.4921875 55.52734375 C30.5789366 54.49842738 31.63153486 54.53786633 34.72265625 55.0859375 C35.92631836 55.29379883 35.92631836 55.29379883 37.15429688 55.50585938 C37.98767578 55.65732422 38.82105469 55.80878906 39.6796875 55.96484375 C40.9471582 56.18624023 40.9471582 56.18624023 42.24023438 56.41210938 C44.3253766 56.77730378 46.40894423 57.15146805 48.4921875 57.52734375 C47.92258281 63.44453134 46.71732673 68.71874231 44.8046875 74.33984375 C44.40540039 75.52114868 44.40540039 75.52114868 43.99804688 76.72631836 C40.56963528 86.55275101 35.4192066 95.01513547 29.4921875 103.52734375 C31.29767487 104.49882426 33.11204051 105.45380886 34.9296875 106.40234375 C35.93902344 106.93601562 36.94835938 107.4696875 37.98828125 108.01953125 C42.28301995 109.99680917 42.28301995 109.99680917 50.4921875 111.52734375 C48.8421875 118.12734375 47.1921875 124.72734375 45.4921875 131.52734375 C33.80500033 131.52734375 27.79506932 129.51426697 18.5 122.89453125 C17.83742188 122.44335938 17.17484375 121.9921875 16.4921875 121.52734375 C15.8528125 121.07359375 15.2134375 120.61984375 14.5546875 120.15234375 C12.38074186 119.23804583 12.38074186 119.23804583 10.046875 120.72265625 C9.16257812 121.35945313 8.27828125 121.99625 7.3671875 122.65234375 C-8.30735296 133.27596705 -27.29964659 135.29732422 -45.71484375 132.3125 C-57.62428308 129.84720926 -67.85489628 125.10618426 -74.9453125 114.96484375 C-80.67355732 106.07056049 -80.80990939 95.54468469 -78.92578125 85.390625 C-75.50894349 74.45362377 -67.12848969 67.16281342 -57.5078125 61.52734375 C-56.59515625 60.97949219 -55.6825 60.43164062 -54.7421875 59.8671875 C-54.00484375 59.42503906 -53.2675 58.98289062 -52.5078125 58.52734375 C-53.03890625 57.90988281 -53.57 57.29242188 -54.1171875 56.65625 C-63.4133226 45.51106613 -66.63958632 36.06749347 -65.5078125 21.52734375 C-64.60910048 17.90807415 -63.29118586 14.79490613 -61.5078125 11.52734375 C-60.981875 10.55861328 -60.981875 10.55861328 -60.4453125 9.5703125 C-55.70901502 2.0218384 -47.53968386 -2.23600832 -39.2109375 -4.77734375 C-26.01418237 -7.25521549 -11.75421068 -6.90239474 0 0 Z M-39.9453125 19.02734375 C-43.42139 23.34639372 -44.03287986 27.01413651 -43.5078125 32.52734375 C-41.08706763 39.47284539 -36.84316831 46.53175003 -30.5078125 50.52734375 C-24.81348877 50.20846162 -19.92015035 46.93175138 -15.5078125 43.52734375 C-10.85107193 38.03837445 -8.10915416 32.93220999 -8.23046875 25.5859375 C-8.69789171 22.11647409 -10.25454453 20.13639087 -12.5078125 17.52734375 C-21.40735887 10.80727812 -32.25366495 10.32363731 -39.9453125 19.02734375 Z M-50.55078125 79.53515625 C-55.3893966 84.94243361 -56.90069277 88.61307304 -56.7734375 95.8984375 C-56.24459687 101.1324043 -54.47224515 104.79061548 -50.51953125 108.28515625 C-41.24136274 114.9192871 -31.53075136 115.72224954 -20.38671875 114.0625 C-13.38918581 112.55602476 -8.13821642 109.92076499 -2.5078125 105.52734375 C-6.64844817 100.53571854 -10.97984494 96.0315833 -15.7578125 91.65234375 C-16.41241455 91.04737061 -17.0670166 90.44239746 -17.74145508 89.8190918 C-19.65909162 88.05021508 -21.58226173 86.28759797 -23.5078125 84.52734375 C-24.03616699 84.04313965 -24.56452148 83.55893555 -25.10888672 83.06005859 C-37.30439004 71.5732489 -37.30439004 71.5732489 -50.55078125 79.53515625 Z " fill="#3B3B3B" transform="translate(1076.5078125,235.47265625)"/>
<path d="M0 0 C26 0 26 0 31.36328125 4.328125 C32.95800781 7.16162109 32.95800781 7.16162109 34.3125 10.25 C35.45808091 12.3732353 36.605246 14.49561653 37.75390625 16.6171875 C38.29031738 17.6906543 38.82672852 18.76412109 39.37939453 19.87011719 C41.83022102 24.60340969 44.77684924 28.95874609 47.75 33.375 C48.82083959 35.01619035 49.88860737 36.65938954 50.953125 38.3046875 C51.46423828 39.09198242 51.97535156 39.87927734 52.50195312 40.69042969 C55.28586185 44.9824402 58.06358597 49.27844739 60.84130859 53.57446289 C65.3075848 60.48003781 69.7897763 67.37523582 74.2734375 74.26953125 C79.85039561 82.84541967 85.42489107 91.42290933 91 100 C91.33 67 91.66 34 92 0 C99.26 0 106.52 0 114 0 C114 44.55 114 89.1 114 135 C105.09 135 96.18 135 87 135 C78.76368613 125.22810219 78.76368613 125.22810219 76.7578125 120.703125 C74.12287416 115.1150099 70.94820634 110.11485635 67.5 105 C66.41357692 103.33534575 65.33024449 101.66867035 64.25 100 C63.71375 99.175 63.1775 98.35 62.625 97.5 C57.75 90 57.75 90 56.12475586 87.49951172 C55.04237365 85.83438339 53.95985431 84.16934418 52.87719727 82.50439453 C50.15317515 78.31491489 47.43162135 74.12386926 44.71484375 69.9296875 C44.16570312 69.08277344 43.6165625 68.23585938 43.05078125 67.36328125 C42.03812544 65.80138839 41.02628221 64.23896809 40.015625 62.67578125 C34.42670605 54.06015553 28.69817576 45.54726364 23 37 C22.67 69.34 22.34 101.68 22 135 C14.74 135 7.48 135 0 135 C0 90.45 0 45.9 0 0 Z " fill="#3B3B3B" transform="translate(107,37)"/>
<path d="M0 0 C16.6753125 -0.12375 16.6753125 -0.12375 33.6875 -0.25 C38.91339966 -0.30462402 38.91339966 -0.30462402 44.24487305 -0.36035156 C48.56604004 -0.37841797 48.56604004 -0.37841797 50.60188293 -0.3817749 C51.99553061 -0.38783628 53.38916003 -0.40173209 54.78266907 -0.42230225 C69.41746177 -0.62715039 82.28478967 1.75167594 93.1875 12.0703125 C102.65283199 22.05762971 104.49450224 32.07968685 104.27734375 45.43359375 C103.85768009 55.60365185 99.41171862 63.51022774 92.375 70.6484375 C88.04184858 74.60043208 83.17951574 77.30640909 78 80 C78.42845215 80.60150879 78.8569043 81.20301758 79.29833984 81.82275391 C83.59286223 87.89796053 87.66438651 94.07818529 91.625 100.375 C95.30356816 106.20398487 98.99564316 112.01952932 102.796875 117.76953125 C103.39806152 118.68105957 103.99924805 119.59258789 104.61865234 120.53173828 C105.76962217 122.27211217 106.92601288 124.0089159 108.08837891 125.74169922 C108.60319824 126.52174316 109.11801758 127.30178711 109.6484375 128.10546875 C110.10395996 128.78762451 110.55948242 129.46978027 111.02880859 130.17260742 C112 132 112 132 112 135 C90.30604133 137.97821687 90.30604133 137.97821687 83.81640625 133.48974609 C80.02077119 129.20029117 77.75350472 124.04733219 75.39990234 118.87158203 C72.90113735 113.7459326 69.68878046 109.07146548 66.5625 104.3125 C65.41480494 102.51894768 64.27012998 100.72345816 63.12890625 98.92578125 C62.59539551 98.0951416 62.06188477 97.26450195 61.51220703 96.40869141 C60.52849639 94.84180584 59.57434391 93.25583627 58.65576172 91.64990234 C58.24213379 90.93398926 57.82850586 90.21807617 57.40234375 89.48046875 C57.05550537 88.85422607 56.70866699 88.2279834 56.35131836 87.58276367 C53.79874074 84.59299661 50.74694399 84.07818457 46.95385742 83.68115234 C45.29640503 83.634021 45.29640503 83.634021 43.60546875 83.5859375 C42.52160889 83.55032715 41.43774902 83.5147168 40.32104492 83.47802734 C38.9569751 83.44402832 37.59290527 83.4100293 36.1875 83.375 C29.6596875 83.189375 29.6596875 83.189375 23 83 C23 100.16 23 117.32 23 135 C15.41 135 7.82 135 0 135 C0 90.45 0 45.9 0 0 Z M23 20 C23 34.52 23 49.04 23 64 C27.846875 64.04125 32.69375 64.0825 37.6875 64.125 C39.18756592 64.14320801 40.68763184 64.16141602 42.2331543 64.18017578 C60.17260507 64.61306733 60.17260507 64.61306733 75.45703125 56.58203125 C80.27730602 51.17832265 81.43114259 46.6234148 81.2421875 39.55859375 C80.60646144 32.84245552 78.32861217 28.67320109 73.20703125 24.32421875 C66.67587536 20.40552521 60.91623635 19.56810194 53.46875 19.70703125 C52.69047852 19.71005249 51.91220703 19.71307373 51.11035156 19.71618652 C48.24009688 19.73172487 45.37003323 19.77360724 42.5 19.8125 C32.8475 19.9053125 32.8475 19.9053125 23 20 Z " fill="#3B3B3B" transform="translate(305,232)"/>
<path d="M0 0 C0.86238281 0.42410156 1.72476563 0.84820312 2.61328125 1.28515625 C16.1752365 8.67323203 24.60305477 21.06090372 29.375 35.5 C35.74321368 58.85950946 35.07228423 85.15603655 24 107 C16.27019638 119.91562124 5.74788459 128.68947015 -8.703125 133.140625 C-23.77022513 136.65324433 -40.07725092 134.69974726 -53.4375 127.0625 C-67.82875924 118.07734858 -75.74785556 103.72742236 -79.8125 87.5625 C-84.15401722 63.3847403 -82.28176726 38.02651332 -69 17 C-61.60592812 6.68080079 -50.81703341 -1.25418308 -38.18261719 -3.70263672 C-25.72835315 -5.39942571 -11.39821038 -5.81689274 0 0 Z M-48.25 26.75 C-59.26804432 40.91605698 -59.29801119 59.8703637 -58 77 C-56.50344317 88.5073086 -52.68892339 99.49441868 -43.984375 107.4921875 C-36.32082967 113.31527509 -27.30110224 114.20930298 -17.95117188 113.31787109 C-10.62308213 112.12403065 -3.68538056 107.98555279 0.76171875 102.04296875 C4.9511981 95.13098862 7.76297638 87.98311757 9 80 C9.11085938 79.29488281 9.22171875 78.58976562 9.3359375 77.86328125 C11.63707562 60.54255246 10.04896844 41.58604644 -0.296875 27.0078125 C-5.55330554 20.81101136 -11.59694625 17.39609061 -19.734375 16.6640625 C-31.34838117 16.39984673 -40.13402787 17.84861121 -48.25 26.75 Z " fill="#3B3B3B" transform="translate(234,234)"/>
<path d="M0 0 C30.69 0 61.38 0 93 0 C93 6.93 93 13.86 93 21 C69.9 21 46.8 21 23 21 C23 32.88 23 44.76 23 57 C42.8 57 62.6 57 83 57 C83 63.6 83 70.2 83 77 C63.2 77 43.4 77 23 77 C23 89.54 23 102.08 23 115 C46.43 115 69.86 115 94 115 C94 121.6 94 128.2 94 135 C62.98 135 31.96 135 0 135 C0 90.45 0 45.9 0 0 Z " fill="#3B3B3B" transform="translate(1007,37)"/>
<path d="M0 0 C7.59 0 15.18 0 23 0 C23.01458252 2.5778833 23.02916504 5.1557666 23.04418945 7.81176758 C23.09469087 16.36137699 23.16131288 24.91080724 23.23571491 33.46024036 C23.28030363 38.64006281 23.31958476 43.81980868 23.34643555 48.99975586 C23.37258364 54.00550287 23.4130664 59.01095338 23.46318626 64.01651573 C23.47977751 65.91928079 23.49133971 67.82209704 23.49761391 69.72492409 C23.54815421 83.65289608 23.67637512 96.84401263 33.5625 107.71875 C40.67478563 114.43590865 48.53394899 115.48473296 58.04223633 115.42407227 C66.70806975 115.12067105 74.01212645 112.40563217 80 106 C85.53144621 97.21748094 87.29050944 88.23947892 87.31884766 77.99194336 C87.32889328 77.14206848 87.3389389 76.2921936 87.34928894 75.41656494 C87.37988343 72.64099735 87.39708934 69.86552512 87.4140625 67.08984375 C87.43279329 65.15213717 87.4523681 63.21443859 87.4727478 61.27674866 C87.52387315 56.20192191 87.56360328 51.12706878 87.60089111 46.05212402 C87.6410542 40.86346006 87.69209017 35.674904 87.7421875 30.48632812 C87.83871456 20.32428736 87.9221869 10.16220131 88 0 C95.59 0 103.18 0 111 0 C111.04538834 10.84083044 111.08199475 21.6815966 111.10362434 32.52250099 C111.11401134 37.55768013 111.12807641 42.59279025 111.15087891 47.62792969 C111.17279018 52.49737592 111.18460674 57.36675624 111.18975449 62.23624802 C111.19341771 64.08355114 111.20056987 65.93085111 111.21146011 67.77812576 C111.32532915 87.9149194 110.29743077 108.33793178 95.625 123.8125 C81.90828721 136.5430439 64.67304351 137.74973345 46.83886719 137.17480469 C33.57286694 136.35794399 21.59678835 130.69945774 12.5546875 120.921875 C2.57410911 108.58407458 -0.1845864 93.61617568 -0.11352539 78.10546875 C-0.11367142 77.2557399 -0.11381744 76.40601105 -0.1139679 75.53053284 C-0.11327672 72.74949502 -0.10552192 69.96852597 -0.09765625 67.1875 C-0.09578924 65.24837277 -0.09436667 63.30924506 -0.09336853 61.37011719 C-0.08956564 56.28699421 -0.07975454 51.20390018 -0.06866455 46.12078857 C-0.05840236 40.92558178 -0.05386064 35.73037027 -0.04882812 30.53515625 C-0.03813013 20.35675612 -0.02055154 10.17838501 0 0 Z " fill="#3B3B3B" transform="translate(722,37)"/>
<path d="M0 0 C8.58 0 17.16 0 26 0 C34.97549043 22.21801729 43.61930127 44.56127713 52.25878906 66.91162109 C54.42573941 72.51676917 56.59602817 78.12061565 58.76763916 83.72395897 C60.80913553 88.99183593 62.84880974 94.26041606 64.88717651 99.52950478 C66.12612174 102.73200986 67.36579996 105.93422647 68.6072998 109.13574219 C69.9934684 112.71055997 71.37580593 116.28685226 72.7578125 119.86328125 C73.17356537 120.93391312 73.58931824 122.00454498 74.01766968 123.10762024 C74.3974295 124.09215683 74.77718933 125.07669342 75.16845703 126.09106445 C75.49975616 126.94698685 75.8310553 127.80290924 76.1723938 128.68476868 C77 131 77 131 78 135 C70.08 135 62.16 135 54 135 C50.84009633 127.89021675 47.96518037 120.8368839 45.25 113.5625 C44.83878906 112.47517578 44.42757813 111.38785156 44.00390625 110.26757812 C43.61589844 109.23181641 43.22789063 108.19605469 42.828125 107.12890625 C42.3007373 105.72233765 42.3007373 105.72233765 41.76269531 104.28735352 C41 102 41 102 41 100 C22.52 100 4.04 100 -15 100 C-15.99 103.3 -16.98 106.6 -18 110 C-18.71785262 112.07239208 -19.45657472 114.13781424 -20.2265625 116.19140625 C-20.6184375 117.23748047 -21.0103125 118.28355469 -21.4140625 119.36132812 C-21.81367187 120.41771484 -22.21328125 121.47410156 -22.625 122.5625 C-23.03234375 123.65369141 -23.4396875 124.74488281 -23.859375 125.86914062 C-26.87046547 133.87046547 -26.87046547 133.87046547 -28 135 C-29.78071246 135.08726223 -31.5648314 135.10699041 -33.34765625 135.09765625 C-34.42724609 135.09443359 -35.50683594 135.09121094 -36.61914062 135.08789062 C-37.75544922 135.07951172 -38.89175781 135.07113281 -40.0625 135.0625 C-41.20267578 135.05798828 -42.34285156 135.05347656 -43.51757812 135.04882812 C-46.34510351 135.03699747 -49.1725264 135.0205141 -52 135 C-50.08473073 129.1268185 -48.04375215 123.32151403 -45.83984375 117.55078125 C-45.53812256 116.75687485 -45.23640137 115.96296844 -44.92553711 115.14500427 C-43.93183698 112.5332818 -42.93493678 109.92279753 -41.9375 107.3125 C-41.59018829 106.40205933 -41.24287659 105.49161865 -40.88504028 104.55358887 C-27.54324165 69.59138001 -13.76465089 34.79736229 0 0 Z M12 26 C9.95460126 31.58241847 7.90995793 37.16511286 5.8659668 42.74804688 C5.17280703 44.64102362 4.47945299 46.53392925 3.78588867 48.42675781 C2.7799046 51.17233168 1.77465676 53.91817422 0.76953125 56.6640625 C0.46723099 57.48862946 0.16493073 58.31319641 -0.14653015 59.16275024 C-2.80469149 66.42816811 -5.3976797 73.71350315 -8 81 C5.86 81 19.72 81 34 81 C27.65228502 62.54734017 20.83170585 44.27747156 14 26 C13.34 26 12.68 26 12 26 Z " fill="#3B3B3B" transform="translate(1231,232)"/>
<path d="M0 0 C1.084021 0.00523682 2.16804199 0.01047363 3.28491211 0.01586914 C4.45473633 0.0190918 5.62456055 0.02231445 6.82983398 0.02563477 C8.0615332 0.03401367 9.29323242 0.04239258 10.56225586 0.05102539 C12.41560547 0.05779297 12.41560547 0.05779297 14.30639648 0.06469727 C17.37089703 0.07652931 20.43530307 0.09301366 23.49975586 0.11352539 C23.73318192 0.71881577 23.96660797 1.32410614 24.20710754 1.94773865 C27.24148119 9.81576163 30.27661372 17.68349174 33.31225586 25.55102539 C33.55876389 26.18991322 33.80527191 26.82880104 34.05924988 27.4870491 C40.87549916 45.15253105 47.70323829 62.81348036 54.55291748 80.46603394 C55.74034971 83.52677995 56.9270631 86.58780366 58.11352539 89.64892578 C58.86855409 91.59676761 59.62359923 93.54460306 60.37866211 95.49243164 C60.73710205 96.41709732 61.09554199 97.341763 61.46484375 98.29444885 C63.34196425 103.1348199 65.22390188 107.97325272 67.11343384 112.80879211 C67.86526238 114.73403816 68.61509348 116.66004679 69.36401367 118.58642578 C70.20956685 120.76037108 71.05881249 122.93288616 71.9128418 125.10351562 C72.44119629 126.46585327 72.44119629 126.46585327 72.98022461 127.85571289 C73.27823975 128.6173877 73.57625488 129.3790625 73.88330078 130.16381836 C74.49975586 132.11352539 74.49975586 132.11352539 74.49975586 135.11352539 C66.57975586 135.11352539 58.65975586 135.11352539 50.49975586 135.11352539 C48.78617263 130.61281943 47.07565631 126.11118805 45.37280273 121.60644531 C44.79254998 120.07419511 44.21052887 118.54261335 43.62670898 117.01171875 C42.78806722 114.81171038 41.95580473 112.60938008 41.12475586 110.40649414 C40.86227051 109.72201706 40.59978516 109.03753998 40.3293457 108.33232117 C39.24456578 105.44059783 38.49975586 103.23036831 38.49975586 100.11352539 C19.68975586 100.11352539 0.87975586 100.11352539 -18.50024414 100.11352539 C-18.83024414 102.09352539 -19.16024414 104.07352539 -19.50024414 106.11352539 C-20.28247601 108.44168955 -21.12179634 110.75112075 -22.00415039 113.04321289 C-22.24689194 113.67840851 -22.48963348 114.31360413 -22.73973083 114.9680481 C-23.50881007 116.97693942 -24.28563099 118.98273009 -25.06274414 120.98852539 C-25.58865119 122.35811887 -26.11404698 123.72790878 -26.63891602 125.09790039 C-27.91918828 128.43914807 -29.20990789 131.77608238 -30.50024414 135.11352539 C-38.42024414 135.11352539 -46.34024414 135.11352539 -54.50024414 135.11352539 C-53.76197565 131.42218294 -53.00424351 128.53253097 -51.66870117 125.09106445 C-51.28894638 124.10661346 -50.90919159 123.12216248 -50.51792908 122.10787964 C-49.89429222 120.50965866 -49.89429222 120.50965866 -49.25805664 118.87915039 C-48.82251968 117.75348663 -48.38698273 116.62782288 -47.93824768 115.4680481 C-46.75135906 112.40278138 -45.56089632 109.33893286 -44.36880112 106.27568817 C-43.12171289 103.06862298 -41.87919936 99.85978648 -40.63623047 96.65112305 C-38.59448505 91.38210577 -36.55007352 86.11413057 -34.50366211 80.84692383 C-31.70710162 73.64868478 -28.91717415 66.44788791 -26.12915039 59.24633789 C-21.96133867 48.48382185 -17.79314151 37.72147158 -13.60858154 26.9654541 C-12.82685422 24.95394515 -12.04641719 22.94193452 -11.26690674 20.92956543 C-10.02026469 17.71130164 -8.77029629 14.49434613 -7.51977539 11.27758789 C-7.13238693 10.27521088 -6.74499847 9.27283386 -6.34587097 8.24008179 C-5.98793961 7.32127228 -5.63000824 6.40246277 -5.26123047 5.45581055 C-4.94471024 4.63988434 -4.62819 3.82395813 -4.30207825 2.98330688 C-3.12939126 0.24874071 -3.07913541 0.13981037 0 0 Z M9.49975586 25.11352539 C9.07154541 26.2874585 8.64333496 27.4613916 8.20214844 28.67089844 C6.59114185 33.08651521 4.97864158 37.50158534 3.36572266 41.91650391 C2.67196484 43.81609802 1.97859549 45.71583406 1.28564453 47.61572266 C0.28125071 50.36928462 -0.72433709 53.12240596 -1.73071289 55.87524414 C-2.05635223 56.76637909 -2.38199158 57.65751404 -2.71749878 58.57565308 C-4.95945781 64.69094504 -7.2771081 70.77006656 -9.68115234 76.82373047 C-10.61251525 79.02206811 -10.61251525 79.02206811 -10.50024414 81.11352539 C3.02975586 81.11352539 16.55975586 81.11352539 30.49975586 81.11352539 C28.56405867 74.01596905 26.60135474 67.29030448 23.99584961 60.46508789 C23.67189713 59.60466888 23.34794464 58.74424988 23.01417542 57.85775757 C21.99320305 55.14955656 20.96531397 52.44404335 19.93725586 49.73852539 C19.24475049 47.90405906 18.55268973 46.06942483 17.86108398 44.23461914 C14.2576445 34.64408959 14.2576445 34.64408959 10.49975586 25.11352539 C10.16975586 25.11352539 9.83975586 25.11352539 9.49975586 25.11352539 Z " fill="#3B3B3B" transform="translate(671.500244140625,231.886474609375)"/>
<path d="M0 0 C1.39008192 1.33868018 2.77133721 2.68700394 4.125 4.0625 C3.55183305 7.34659174 2.65866486 8.86738187 0.18359375 11.078125 C-0.69135742 11.87089844 -0.69135742 11.87089844 -1.58398438 12.6796875 C-2.50147461 13.48792969 -2.50147461 13.48792969 -3.4375 14.3125 C-4.05302734 14.86679688 -4.66855469 15.42109375 -5.30273438 15.9921875 C-6.82001675 17.35656545 -8.34662594 18.71055855 -9.875 20.0625 C-10.34808594 19.69898438 -10.82117188 19.33546875 -11.30859375 18.9609375 C-13.48288018 17.30797121 -15.67813114 15.68531268 -17.875 14.0625 C-18.57238281 13.52496094 -19.26976562 12.98742187 -19.98828125 12.43359375 C-29.38358253 5.58034839 -40.42428217 3.81205351 -51.875 5.0625 C-59.0701222 6.67253367 -63.81395133 8.83555871 -67.875 15.0625 C-69.15063384 17.61376768 -69.07873295 19.52572086 -69.125 22.375 C-69.15078125 23.31988281 -69.1765625 24.26476562 -69.203125 25.23828125 C-68.80713662 28.64660979 -67.87809636 30.28313302 -65.875 33.0625 C-58.22578422 38.30324752 -49.35367314 40.56272123 -40.4375 42.625 C-25.15832276 46.22370593 -7.76825091 50.35692328 1.90625 63.77734375 C5.38971074 70.30883263 6.65708855 76.04469729 6.5625 83.4375 C6.55420166 84.27458496 6.54590332 85.11166992 6.53735352 85.97412109 C6.2499925 96.48887549 2.6209574 104.58090267 -4.875 112.0625 C-19.70725839 123.4271485 -38.09203396 124.63097172 -56.07128906 122.84423828 C-72.22409085 120.52680404 -85.91202517 113.00560834 -96.875 101.0625 C-92.46656563 95.77237876 -87.79940206 90.87441572 -82.875 86.0625 C-79.82875927 87.42230987 -77.79972571 88.9765797 -75.4375 91.3125 C-63.75210045 101.81178757 -50.09652952 102.80630235 -35.20898438 102.24169922 C-28.96033778 101.76193911 -24.0297395 99.70381945 -19.8125 95.0625 C-16.72998483 90.28957329 -16.48203163 86.76054137 -16.875 81.0625 C-18.95869927 75.46941249 -22.07863001 72.49360929 -27.36328125 69.7890625 C-34.77287008 66.89901541 -42.21176726 64.92070771 -49.9375 63.0625 C-64.60516703 59.52094311 -79.92364975 55.24487433 -88.875 42.0625 C-93.8402657 32.30318465 -94.17760158 21.9061404 -91.3125 11.4375 C-87.55231206 0.35414885 -80.77445091 -5.81782078 -70.60546875 -11.12109375 C-48.19903991 -21.26529785 -18.09527968 -16.25247892 0 0 Z " fill="#3B3B3B" transform="translate(353.875,50.9375)"/>
<path d="M0 0 C28.71 0 57.42 0 87 0 C87 6.6 87 13.2 87 20 C65.55 20 44.1 20 22 20 C22 32.87 22 45.74 22 59 C40.48 59 58.96 59 78 59 C78 65.93 78 72.86 78 80 C59.52 80 41.04 80 22 80 C22 98.15 22 116.3 22 135 C14.74 135 7.48 135 0 135 C0 90.45 0 45.9 0 0 Z " fill="#3B3B3B" transform="translate(39,232)"/>
<path d="M0 0 C35.97 0 71.94 0 109 0 C109 6.93 109 13.86 109 21 C94.81 21 80.62 21 66 21 C66 58.62 66 96.24 66 135 C58.41 135 50.82 135 43 135 C43 97.38 43 59.76 43 21 C28.81 21 14.62 21 0 21 C0 14.07 0 7.14 0 0 Z " fill="#3B3B3B" transform="translate(865,37)"/>
<path d="M0 0 C35.97 0 71.94 0 109 0 C109 6.93 109 13.86 109 21 C94.81 21 80.62 21 66 21 C66 58.62 66 96.24 66 135 C58.41 135 50.82 135 43 135 C43 97.38 43 59.76 43 21 C28.81 21 14.62 21 0 21 C0 14.07 0 7.14 0 0 Z " fill="#3B3B3B" transform="translate(581,37)"/>
<path d="M0 0 C35.97 0 71.94 0 109 0 C109 6.93 109 13.86 109 21 C94.48 21 79.96 21 65 21 C65 58.62 65 96.24 65 135 C57.74 135 50.48 135 43 135 C43 97.38 43 59.76 43 21 C28.81 21 14.62 21 0 21 C0 14.07 0 7.14 0 0 Z " fill="#3B3B3B" transform="translate(383,37)"/>
<path d="M0 0 C7.26 0 14.52 0 22 0 C22 37.62 22 75.24 22 114 C42.79 114 63.58 114 85 114 C85 120.93 85 127.86 85 135 C56.95 135 28.9 135 0 135 C0 90.45 0 45.9 0 0 Z " fill="#3A3A3A" transform="translate(504,232)"/>
<path d="M0 0 C0 44.55 0 89.1 0 135 C-7.59 135 -15.18 135 -23 135 C-23.31705705 119.46559838 -23.57450283 103.93281865 -23.72537041 88.39604759 C-23.797311 81.18048982 -23.89522296 73.96709682 -24.05615234 66.75292969 C-24.19649281 60.45867961 -24.28619635 54.16599777 -24.31723893 47.8702265 C-24.33537167 44.54019547 -24.38487895 41.21816956 -24.48022079 37.88892746 C-25.11002571 14.97266059 -25.11002571 14.97266059 -18.33491707 7.10915565 C-12.15839667 0.96243808 -9.5203278 0 0 0 Z " fill="#3B3B3B" transform="translate(1364,232)"/>
<path d="M0 0 C0 44.55 0 89.1 0 135 C-7.59 135 -15.18 135 -23 135 C-23.33983555 119.61329216 -23.61561106 104.22846829 -23.77718258 88.83901119 C-23.85423103 81.69167297 -23.95907081 74.54684712 -24.1315918 67.40112305 C-24.28205918 61.16582444 -24.37808992 54.93234582 -24.41132742 48.69528204 C-24.43073646 45.39742824 -24.4837263 42.10593172 -24.58595085 38.80946159 C-25.26085688 16.12891011 -25.26085688 16.12891011 -17.92147923 7.75930882 C-11.55903661 1.4649632 -9.54932105 0 0 0 Z " fill="#3B3B3B" transform="translate(548,37)"/>
<path d="M0 0 C0 44.55 0 89.1 0 135 C-7.26 135 -14.52 135 -22 135 C-22.33983555 119.61329216 -22.61561106 104.22846829 -22.77718258 88.83901119 C-22.85423103 81.69167297 -22.95907081 74.54684712 -23.1315918 67.40112305 C-23.28205918 61.16582444 -23.37808992 54.93234582 -23.41132742 48.69528204 C-23.43073646 45.39742824 -23.4837263 42.10593172 -23.58595085 38.80946159 C-24.26096829 16.12516629 -24.26096829 16.12516629 -16.8726511 7.75930882 C-10.9474961 1.93711305 -8.73625184 0 0 0 Z " fill="#3A3A3A" transform="translate(61,37)"/>
</svg>
